<?xml version="1.0" encoding="UTF-8" standalone="no"?>
<!-- Created with Inkscape (http://www.inkscape.org/) -->
<svg xmlns:dc="http://purl.org/dc/elements/1.1/" xmlns:cc="http://creativecommons.org/ns#" xmlns:rdf="http://www.w3.org/1999/02/22-rdf-syntax-ns#" xmlns:svg="http://www.w3.org/2000/svg" xmlns="http://www.w3.org/2000/svg" xmlns:xlink="http://www.w3.org/1999/xlink" xmlns:sodipodi="http://sodipodi.sourceforge.net/DTD/sodipodi-0.dtd" xmlns:inkscape="http://www.inkscape.org/namespaces/inkscape" width="128.49051" height="127.2262" id="svg2" sodipodi:version="0.32" inkscape:version="0.46" sodipodi:docname="tennisball -simple.svg" inkscape:output_extension="org.inkscape.output.svg.inkscape" version="1.0">
  <sodipodi:namedview id="base" pagecolor="#ffffff" bordercolor="#666666" borderopacity="1.0" inkscape:pageopacity="0.0" inkscape:pageshadow="2" inkscape:zoom="1" inkscape:cx="74" inkscape:cy="52" inkscape:document-units="px" inkscape:current-layer="layer1" showgrid="false" inkscape:window-width="1280" inkscape:window-height="785" inkscape:window-x="0" inkscape:window-y="0" showguides="true" inkscape:guide-bbox="true" showborder="true"/>
  <defs id="defs4">
    <radialGradient inkscape:collect="always" xlink:href="#linearGradient3671" id="radialGradient3212" gradientUnits="userSpaceOnUse" gradientTransform="matrix(0.3725564,-0.279078,0.2505717,0.3344953,867.01613,394.04057)" cx="-1029.4312" cy="-124.5611" fx="-1029.4312" fy="-124.5611" r="149.8732"/>
    <radialGradient inkscape:collect="always" xlink:href="#linearGradient3202" id="radialGradient3210" gradientUnits="userSpaceOnUse" cx="-350.56903" cy="-35.205544" fx="-350.56903" fy="-35.205544" r="136.64154"/>
    <linearGradient id="linearGradient3202">
      <stop id="stop3204" offset="0" style="stop-color:#ffffff;stop-opacity:1;"/>
      <stop style="stop-color:#ffffff;stop-opacity:1;" offset="0.5" id="stop3208"/>
      <stop id="stop3206" offset="1" style="stop-color:#9ea09d;stop-opacity:1;"/>
    </linearGradient>
    <linearGradient id="linearGradient3671">
      <stop id="stop3673" offset="0" style="stop-color:#f5ff00;stop-opacity:1;"/>
      <stop style="stop-color:#cae100;stop-opacity:1;" offset="0.43906358" id="stop3675"/>
      <stop id="stop3677" offset="0.63216776" style="stop-color:#b3d200;stop-opacity:1;"/>
      <stop style="stop-color:#97b500;stop-opacity:1;" offset="0.79529327" id="stop3210"/>
      <stop id="stop3679" offset="1" style="stop-color:#526600;stop-opacity:1;"/>
    </linearGradient>
    <filter inkscape:collect="always" id="filter3923" x="-0.13752829" width="1.2750566" y="-0.43092197" height="1.8618439">
      <feGaussianBlur inkscape:collect="always" stdDeviation="13.321684" id="feGaussianBlur3925"/>
    </filter>
    <radialGradient inkscape:collect="always" xlink:href="#linearGradient3202" id="radialGradient3220" gradientUnits="userSpaceOnUse" cx="-350.56903" cy="-35.205544" fx="-350.56903" fy="-35.205544" r="136.64154"/>
    <radialGradient inkscape:collect="always" xlink:href="#linearGradient3671" id="radialGradient3222" gradientUnits="userSpaceOnUse" gradientTransform="matrix(0.3761847,-0.281796,0.253012,0.3377529,781.24658,405.11753)" cx="-1029.4312" cy="-124.5611" fx="-1029.4312" fy="-124.5611" r="149.8732"/>
  </defs>
  <metadata id="metadata7">
    <rdf:RDF>
      <cc:Work rdf:about="">
        <dc:format>image/svg+xml</dc:format>
        <dc:type rdf:resource="http://purl.org/dc/dcmitype/StillImage"/>
      </cc:Work>
    </rdf:RDF>
  </metadata>
  <g id="layer1" inkscape:groupmode="layer" inkscape:label="Ebene 1" transform="translate(69.570564,-557.36127)">
    <g id="g3206" transform="translate(-463.5453,-33.879889)">
      <path inkscape:export-ydpi="150" inkscape:export-xdpi="150" inkscape:export-filename="H:\Tennisball\back.png" transform="matrix(0.4588446,0,0,0.4542182,619.0767,670.84526)" d="M -213.92749,-35.205544 A 136.64154,136.64154 0 1 1 -487.21057,-35.205544 A 136.64154,136.64154 0 1 1 -213.92749,-35.205544 z" sodipodi:ry="136.64154" sodipodi:rx="136.64154" sodipodi:cy="-35.205544" sodipodi:cx="-350.56903" id="path3255" style="fill:url(#radialGradient3210);fill-opacity:1;fill-rule:evenodd;stroke:#000000;stroke-width:6.78176594;marker:none;marker-start:none;marker-mid:none;marker-end:none;stroke-miterlimit:4;stroke-dasharray:none;stroke-opacity:1;visibility:visible;display:inline;overflow:visible;enable-background:accumulate" sodipodi:type="arc"/>
      <path id="path2429" d="M 458.21998,594.29682 C 439.15707,594.29682 422.12456,602.95159 410.90248,616.49549 C 411.22066,616.67935 411.54125,616.85677 411.86704,617.03724 C 423.57458,623.52268 439.97301,627.62126 458.10108,627.62125 C 476.22912,627.62125 492.62762,623.52268 504.33508,617.03724 C 504.71503,616.82675 505.08856,616.61808 505.4582,616.40299 C 494.23527,602.91315 477.23875,594.29682 458.21998,594.29682 z M 507.92915,619.57423 C 507.38462,619.89755 506.83997,620.22722 506.27744,620.53882 C 493.81405,627.44301 476.83021,631.62494 458.10108,631.62494 C 439.37191,631.62494 422.38807,627.44301 409.92468,620.53882 C 409.41829,620.25829 408.92341,619.96997 408.43153,619.67994 C 401.26462,629.5983 397.0415,641.73856 397.04154,654.85426 C 397.04154,669.62961 402.40749,683.17315 411.29888,693.68872 C 423.62231,687.22831 440.05309,683.34256 458.10108,683.34256 C 476.23233,683.34256 492.73282,687.26713 505.07503,693.78122 C 514.01019,683.25349 519.39846,669.67006 519.39846,654.85426 C 519.39846,641.69118 515.14333,629.51226 507.92915,619.57423 z M 458.10108,687.34624 C 441.08781,687.34624 425.5922,690.96101 414.07371,696.76747 C 425.20984,708.25951 440.87529,715.4117 458.21998,715.41171 C 475.521,715.41171 491.15617,708.30124 502.28696,696.85996 C 490.75173,691.00499 475.19533,687.34624 458.10108,687.34624 z" style="opacity:1;fill:url(#radialGradient3212);fill-opacity:1;fill-rule:evenodd;stroke:#8bae00;stroke-width:0.25369912;stroke-linecap:butt;stroke-linejoin:miter;marker:none;marker-start:none;marker-mid:none;marker-end:none;stroke-miterlimit:4;stroke-dasharray:none;stroke-dashoffset:0;stroke-opacity:0.45934963;visibility:visible;display:inline;overflow:visible;enable-background:accumulate" inkscape:export-filename="H:\Tennisball\path2427.png" inkscape:export-xdpi="150" inkscape:export-ydpi="150"/>
    </g>
  </g>
</svg>