<?xml version="1.0" encoding="UTF-8" standalone="no"?>
<!-- Created with Inkscape (http://www.inkscape.org/) -->
<svg xmlns:dc="http://purl.org/dc/elements/1.1/" xmlns:cc="http://creativecommons.org/ns#" xmlns:rdf="http://www.w3.org/1999/02/22-rdf-syntax-ns#" xmlns:svg="http://www.w3.org/2000/svg" xmlns="http://www.w3.org/2000/svg" xmlns:xlink="http://www.w3.org/1999/xlink" xmlns:sodipodi="http://sodipodi.sourceforge.net/DTD/sodipodi-0.dtd" xmlns:inkscape="http://www.inkscape.org/namespaces/inkscape" width="292" height="292" id="svg2" version="1.1" inkscape:version="0.47 r22583" sodipodi:docname="cgbug_Halloween_Full_Moon.svg" style="display:inline;enable-background:new">
  <title id="title2879">Halloween Full Moon</title>
  <defs id="defs4">
    <linearGradient id="linearGradient3863">
      <stop style="stop-color:#ffffff;stop-opacity:0;" offset="0" id="stop3865"/>
      <stop id="stop3873" offset="0.78082287" style="stop-color:#373737;stop-opacity:0.27450982;"/>
      <stop style="stop-color:#000000;stop-opacity:0.698" offset="1" id="stop3867"/>
    </linearGradient>
    <linearGradient id="linearGradient3821">
      <stop id="stop3823" offset="0" style="stop-color:#ffffff;stop-opacity:1"/>
      <stop style="stop-color:#e6e6e6;stop-opacity:0.83137255;" offset="0.23771934" id="stop3829"/>
      <stop id="stop3827" offset="1" style="stop-color:#000000;stop-opacity:0;"/>
    </linearGradient>
    <linearGradient id="linearGradient3809">
      <stop style="stop-color:#000000;stop-opacity:1;" offset="0" id="stop3811"/>
      <stop id="stop3819" offset="0.49031362" style="stop-color:#000000;stop-opacity:0.698"/>
      <stop style="stop-color:#000000;stop-opacity:0;" offset="1" id="stop3813"/>
    </linearGradient>
    <linearGradient id="linearGradient3734">
      <stop style="stop-color:#ffffff;stop-opacity:0.69803923;" offset="0" id="stop3736"/>
      <stop id="stop3742" offset="0.57715452" style="stop-color:#b5b5b5;stop-opacity:0.52156863;"/>
      <stop style="stop-color:#000000;stop-opacity:0;" offset="1" id="stop3738"/>
    </linearGradient>
    <linearGradient inkscape:collect="always" id="linearGradient10885">
      <stop style="stop-color:#ffffff;stop-opacity:1" offset="0" id="stop10887"/>
      <stop style="stop-color:#d8d8d8;stop-opacity:0;" offset="1" id="stop10889"/>
    </linearGradient>
    <linearGradient id="linearGradient10828">
      <stop style="stop-color:#000000;stop-opacity:0.949" offset="0" id="stop10830"/>
      <stop id="stop10836" offset="0.32235926" style="stop-color:#181818;stop-opacity:0.698"/>
      <stop style="stop-color:#ffffff;stop-opacity:0;" offset="1" id="stop10832"/>
    </linearGradient>
    <inkscape:perspective sodipodi:type="inkscape:persp3d" inkscape:vp_x="0 : 146 : 1" inkscape:vp_y="0 : 1000 : 0" inkscape:vp_z="292 : 146 : 1" inkscape:persp3d-origin="146 : 97.333333 : 1" id="perspective10270"/>
    <linearGradient id="linearGradient3840">
      <stop style="stop-color:#1e1e1e;stop-opacity:1" offset="0" id="stop3842"/>
      <stop id="stop3852" offset="0.78548282" style="stop-color:#7b7b7b;stop-opacity:0.49803922;"/>
      <stop style="stop-color:#d8d8d8;stop-opacity:0;" offset="1" id="stop3844"/>
    </linearGradient>
    <radialGradient inkscape:collect="always" xlink:href="#linearGradient3840" id="radialGradient3846" cx="-7.0105505" cy="75.218246" fx="-7.0105505" fy="75.218246" r="145.59856" gradientTransform="matrix(-5.1823177e-8,2.0842823,1.9450479,2.2560665e-8,112.51765,53.190786)" gradientUnits="userSpaceOnUse"/>
    <inkscape:perspective id="perspective10814" inkscape:persp3d-origin="0.5 : 0.33333333 : 1" inkscape:vp_z="1 : 0.5 : 1" inkscape:vp_y="0 : 1000 : 0" inkscape:vp_x="0 : 0.5 : 1" sodipodi:type="inkscape:persp3d"/>
    <linearGradient inkscape:collect="always" xlink:href="#linearGradient10828" id="linearGradient10834" x1="226.62361" y1="25.538666" x2="0.62361848" y2="290.69608" gradientUnits="userSpaceOnUse" gradientTransform="matrix(1.0074693,0,0,1.0074693,-1.0921813,-1.0945453)"/>
    <inkscape:perspective id="perspective10867" inkscape:persp3d-origin="0.5 : 0.33333333 : 1" inkscape:vp_z="1 : 0.5 : 1" inkscape:vp_y="0 : 1000 : 0" inkscape:vp_x="0 : 0.5 : 1" sodipodi:type="inkscape:persp3d"/>
    <radialGradient inkscape:collect="always" xlink:href="#linearGradient10885" id="radialGradient10891" cx="144.7496" cy="240.14227" fx="144.7496" fy="240.14227" r="145.59856" gradientTransform="matrix(1.161978,-0.79686565,0.99038486,1.4441649,-235.09556,5.6438825)" gradientUnits="userSpaceOnUse"/>
    <inkscape:perspective id="perspective10909" inkscape:persp3d-origin="0.5 : 0.33333333 : 1" inkscape:vp_z="1 : 0.5 : 1" inkscape:vp_y="0 : 1000 : 0" inkscape:vp_x="0 : 0.5 : 1" sodipodi:type="inkscape:persp3d"/>
    <linearGradient inkscape:collect="always" xlink:href="#linearGradient10828-0" id="linearGradient10834-1" x1="226.62361" y1="25.538666" x2="0.62361848" y2="290.69608" gradientUnits="userSpaceOnUse" gradientTransform="matrix(1.0074693,0,0,1.0074693,-1.0921813,-1.0945453)"/>
    <linearGradient id="linearGradient10828-0">
      <stop style="stop-color:#000000;stop-opacity:0.949" offset="0" id="stop10830-6"/>
      <stop id="stop10836-1" offset="0.32235926" style="stop-color:#181818;stop-opacity:0.698"/>
      <stop style="stop-color:#ffffff;stop-opacity:0;" offset="1" id="stop10832-1"/>
    </linearGradient>
    <inkscape:perspective id="perspective10950" inkscape:persp3d-origin="0.5 : 0.33333333 : 1" inkscape:vp_z="1 : 0.5 : 1" inkscape:vp_y="0 : 1000 : 0" inkscape:vp_x="0 : 0.5 : 1" sodipodi:type="inkscape:persp3d"/>
    <radialGradient inkscape:collect="always" xlink:href="#linearGradient10885-9" id="radialGradient10891-8" cx="144.7496" cy="240.14227" fx="144.7496" fy="240.14227" r="145.59856" gradientTransform="matrix(1.161978,-0.79686565,0.99038486,1.4441649,-235.09556,5.6438825)" gradientUnits="userSpaceOnUse"/>
    <linearGradient inkscape:collect="always" id="linearGradient10885-9">
      <stop style="stop-color:#ffffff;stop-opacity:1" offset="0" id="stop10887-3"/>
      <stop style="stop-color:#d8d8d8;stop-opacity:0;" offset="1" id="stop10889-8"/>
    </linearGradient>
    <inkscape:perspective id="perspective2903" inkscape:persp3d-origin="0.5 : 0.33333333 : 1" inkscape:vp_z="1 : 0.5 : 1" inkscape:vp_y="0 : 1000 : 0" inkscape:vp_x="0 : 0.5 : 1" sodipodi:type="inkscape:persp3d"/>
    <inkscape:perspective id="perspective2940" inkscape:persp3d-origin="0.5 : 0.33333333 : 1" inkscape:vp_z="1 : 0.5 : 1" inkscape:vp_y="0 : 1000 : 0" inkscape:vp_x="0 : 0.5 : 1" sodipodi:type="inkscape:persp3d"/>
    <inkscape:perspective id="perspective3752" inkscape:persp3d-origin="0.5 : 0.33333333 : 1" inkscape:vp_z="1 : 0.5 : 1" inkscape:vp_y="0 : 1000 : 0" inkscape:vp_x="0 : 0.5 : 1" sodipodi:type="inkscape:persp3d"/>
    <radialGradient inkscape:collect="always" xlink:href="#linearGradient3734-6" id="radialGradient3740-6" cx="99.727242" cy="210.7999" fx="99.727242" fy="210.7999" r="146.00079" gradientTransform="matrix(1.2397247,0.00177706,-0.00193565,1.350356,-26.227052,-69.681413)" gradientUnits="userSpaceOnUse"/>
    <linearGradient id="linearGradient3734-6">
      <stop style="stop-color:#ffffff;stop-opacity:0.69803923;" offset="0" id="stop3736-0"/>
      <stop id="stop3742-4" offset="0.57715452" style="stop-color:#b5b5b5;stop-opacity:0.52156863;"/>
      <stop style="stop-color:#000000;stop-opacity:0;" offset="1" id="stop3738-5"/>
    </linearGradient>
    <radialGradient r="146.00079" fy="209.04089" fx="134.82401" cy="209.04089" cx="134.82401" gradientTransform="matrix(1.4176285,-0.19205886,0.18944793,1.3983568,-84.744218,-61.268907)" gradientUnits="userSpaceOnUse" id="radialGradient3762" xlink:href="#linearGradient3821" inkscape:collect="always"/>
    <inkscape:perspective id="perspective3795" inkscape:persp3d-origin="0.5 : 0.33333333 : 1" inkscape:vp_z="1 : 0.5 : 1" inkscape:vp_y="0 : 1000 : 0" inkscape:vp_x="0 : 0.5 : 1" sodipodi:type="inkscape:persp3d"/>
    <radialGradient inkscape:collect="always" xlink:href="#linearGradient3809" id="radialGradient3815" cx="182.62488" cy="79.463951" fx="182.62488" fy="79.463951" r="146.00079" gradientTransform="matrix(-1.5616407,0.07712077,-0.06219733,-1.2594514,518.1361,110.9882)" gradientUnits="userSpaceOnUse"/>
    <inkscape:perspective id="perspective3839" inkscape:persp3d-origin="0.5 : 0.33333333 : 1" inkscape:vp_z="1 : 0.5 : 1" inkscape:vp_y="0 : 1000 : 0" inkscape:vp_x="0 : 0.5 : 1" sodipodi:type="inkscape:persp3d"/>
    <radialGradient inkscape:collect="always" xlink:href="#linearGradient3863" id="radialGradient3869" cx="145.99924" cy="145.15071" fx="145.99924" fy="145.15071" r="146.00079" gradientTransform="matrix(1,0,0,0.99417758,0,0.84512848)" gradientUnits="userSpaceOnUse"/>
  </defs>
  <sodipodi:namedview id="base" pagecolor="#000000" bordercolor="#666666" borderopacity="1.0" inkscape:pageopacity="0" inkscape:pageshadow="2" inkscape:zoom="1" inkscape:cx="-38" inkscape:cy="114.74953" inkscape:document-units="px" inkscape:current-layer="layer1" showgrid="false" inkscape:window-width="1280" inkscape:window-height="780" inkscape:window-x="-4" inkscape:window-y="-3" inkscape:window-maximized="1"/>
  <metadata id="metadata7">
    <rdf:RDF>
      <cc:Work rdf:about="">
        <dc:format>image/svg+xml</dc:format>
        <dc:type rdf:resource="http://purl.org/dc/dcmitype/StillImage"/>
        <dc:title>Halloween Full Moon</dc:title>
        <dc:date>2010-09-21</dc:date>
        <dc:creator>
          <cc:Agent>
            <dc:title>cgbug</dc:title>
          </cc:Agent>
        </dc:creator>
        <dc:rights>
          <cc:Agent>
            <dc:title>Public Domain</dc:title>
          </cc:Agent>
        </dc:rights>
        <dc:publisher>
          <cc:Agent>
            <dc:title>openclipart.org</dc:title>
          </cc:Agent>
        </dc:publisher>
        <dc:identifier>http://www.cgbug.net/</dc:identifier>
        <dc:source>http://www.cgbug.net/</dc:source>
        <dc:relation>http://www.cgbug.net/</dc:relation>
        <dc:language>en-US</dc:language>
        <dc:description>Halloween Full Moon Grayscale</dc:description>
        <dc:subject>
          <rdf:Bag>
            <rdf:li>halloween2010</rdf:li>
            <rdf:li>Halloween</rdf:li>
            <rdf:li>full</rdf:li>
            <rdf:li>moon</rdf:li>
            <rdf:li>lunar</rdf:li>
            <rdf:li>nature</rdf:li>
            <rdf:li>seasonal</rdf:li>
            <rdf:li>holiday</rdf:li>
            <rdf:li>night</rdf:li>
            <rdf:li>photorealistic</rdf:li>
          </rdf:Bag>
        </dc:subject>
        <cc:license rdf:resource="http://creativecommons.org/licenses/publicdomain/"/>
      </cc:Work>
      <cc:License rdf:about="http://creativecommons.org/licenses/publicdomain/">
        <cc:permits rdf:resource="http://creativecommons.org/ns#Reproduction"/>
        <cc:permits rdf:resource="http://creativecommons.org/ns#Distribution"/>
        <cc:permits rdf:resource="http://creativecommons.org/ns#DerivativeWorks"/>
      </cc:License>
    </rdf:RDF>
  </metadata>
  <g inkscape:groupmode="layer" id="layer1" inkscape:label="moon" style="display:inline">
    <g style="display:inline;enable-background:new" id="g2885">
      <path style="fill:#bebebe" d="M 0,146 C -0.36136656,69.188405 62.17494,0 146,0 233.82506,0 292.53931,78.270986 292,146 291.42696,217.96495 232.65217,286.29698 155.99086,290.11177 63.198481,294.72927 0.33742784,216.78946 0,146 z" id="path2893" sodipodi:nodetypes="cssss"/>
      <path style="fill:#9f9f9d" d="m 121.85078,288.51744 c -8.70612,1.01963 -10.15799,-5.81277 -14.10428,-3.48293 -2.85555,-3.47557 -21.525735,-5.48427 -14.581806,-7.71797 8.112396,1.89203 -0.349898,-6.96471 -4.338721,-0.31654 0.113744,-1.04827 2.758766,-12.38713 0.424018,-5.94992 -5.76542,2.83881 -10.34383,-1.77254 -16.005102,-2.05008 -5.386811,-4.13556 0.857293,-7.21834 1.723114,-4.158 -0.995256,-4.93131 -11.132296,-5.36535 -7.689858,0.0361 1.465439,4.14508 -9.065517,-3.94756 -7.426288,-5.28658 2.988008,0.91549 9.042794,5.78589 3.950054,-1.13588 -3.031719,-2.38752 -14.271698,-3.50413 -4.265435,-3.45495 4.976329,0.1001 15.822132,10.74412 15.463524,4.30928 -8.744797,-2.43028 -8.232561,-8.06288 -1.289306,-7.67924 -4.144728,4.0675 2.918085,7.00514 4.651673,6.2266 3.757291,-2.19639 9.264111,-2.80222 10.451115,-3.85461 0.201922,-6.0372 -6.815864,-4.96501 -10.886523,-6.79492 -3.518283,-2.76855 -9.908941,-5.25242 -14.684278,-7.20784 -4.321055,-0.75737 -10.768548,2.32029 -12.343084,-3.39042 -4.578442,-1.57723 -4.560527,-2.82358 -8.181003,-3.21783 -3.798716,-7.17869 1.345763,6.28103 -1.516744,4.60825 -6.018081,0.34024 2.083216,7.76736 -5.285326,1.19449 4.451901,-1.04382 -2.493568,-5.79373 -2.82608,-8.41859 -7.702706,-6.69659 8.493008,3.11137 2.586046,-1.4478 -5.160501,-2.42854 -3.214375,-9.08838 1.596381,-4.3281 7.09003,7.07974 6.461701,-5.63672 0.372721,-3.92029 -7.08521,1.58261 -4.587201,-8.11882 -7.777033,-4.55566 3.15698,3.89738 -3.783936,7.45109 -1.856159,0.96101 2.538707,-2.10698 0.0064,-11.53583 -3.0124,-7.66542 4.329624,6.25951 -1.223914,10.62202 -3.926765,3.20655 -4.641387,-7.22167 -0.911274,-10.22279 2.686756,-7.63392 -5.785745,-3.30355 -6.149174,-6.47017 -7.967103,-14.79624 C 14.455877,182.66418 9.6364756,180.19723 8.9518642,183 10.992639,174.47093 3.1957189,175.38165 2.3984663,167.70399 1.0663906,158.99271 -0.04028164,149.90294 0.0421045,141.05587 1.9428782,114.11013 9.6221112,87.327199 25.158899,65.002744 26.978387,63.77711 29.581937,67.02543 33.058329,60.365298 38.699358,56.621889 41.837687,49.52597 49.079793,47.424497 47.63488,45.770343 49.382968,41.263225 53,42.020137 54.948636,34.569446 65.110368,35.403098 69,33 c 3.646245,-1.95083 6.011363,-7.714563 13.227691,-7.9846 8.492563,-1.547733 15.192816,-3.385165 19.272649,-8.016461 1.99237,-7.1671761 6.51888,-0.542193 9.72824,-0.533159 0.81801,-1.864331 -2.06449,-6.086076 2.35741,-9.1022804 2.08549,-3.9600266 14.61167,-4.9870239 19.8109,-3.4490731 1.5999,2.4451102 7.10933,-5.9417606 7.60311,-0.1570672 -7.1452,1.1276837 -6.22611,6.1345478 0.7646,3.6235757 6.67055,4.171626 2.42883,-0.3911643 9.37437,2.2461548 4.98921,1.3585292 9.3392,-3.1452816 13.37133,0.181197 3.33055,-1.6315852 -6.92186,-4.7973876 -10.21025,-3.0041206 -4.60868,-1.2779171 7.90255,-3.4889349 -0.9032,-3.3676329 -1.65507,1.2094253 -8.56968,-4.2284561 -2.62026,-2.2540857 10.52589,0.3905475 21.17054,-0.044501 31.22341,3.6341578 12.43833,2.4938467 23.92438,8.1865496 35.20255,13.7578036 21.32567,12.3539 40.06198,29.393495 52.89509,50.514554 10.169,17.0088 17.33682,35.867407 20.661,55.431967 1.47091,13.19182 0.23928,26.6732 0.64579,39.97907 -3.60155,18.42475 -8.65459,36.74389 -18.33002,52.96668 -4.66927,9.45375 -11.64344,17.64164 -18.26648,25.75714 -7.11576,7.60069 -15.25661,13.96444 -22.99721,20.82039 -3.07758,-0.74016 -12.47445,8.6172 -6.81072,0.72372 6.78986,-6.46197 -7.46001,-0.13505 -3.5636,5.1043 -4.86588,3.22742 -0.60429,-8.30283 1.48407,-10.32221 -2.46074,-0.30929 -6.77863,8.3584 -11.52207,2.80535 -4.74938,2.23892 -4.29247,-1.6545 -0.95656,-5.22443 -5.15845,-7.72413 5.9317,3.16187 4.55816,-4.06056 -4.92422,-5.61228 -5.63074,2.99713 -10.25292,2.29324 -5.15118,1.08743 -14.27708,-2.27533 -7.27888,-3.80474 1.36294,2.86293 3.10595,-2.71241 4.34456,-5.55888 -3.6729,5.53202 -4.83963,0.96482 -4.62174,-2.1181 3.48198,2.88621 11.53861,-4.19417 7.68599,-5.4229 -5.50387,3.12684 -8.50481,4.77303 -8.49601,-1.28829 1.32419,-4.4061 -3.35911,1.50393 0.6428,-4.93973 -1.33408,-5.92117 0.55928,-5.1113 0.0942,-8.23095 -5.49204,5.57791 -6.47854,-1.6622 -2.34127,-4 3.90304,0.64619 7.35794,-13.60387 6.50679,-12.0079 4.51642,3.13211 9.82376,-7.11571 7.95121,-10.34855 -5.49592,-2.68802 4.40039,-4.49926 4.64438,-9.60019 -4.65998,0.32837 -7.43158,1.36356 -7.88288,6.73084 -3.3897,5.83549 4.03054,4.19765 -2.99626,7.27873 1.55371,6.45523 -6.28933,2.92785 -7.54315,5.25813 -1.23856,6.10936 -14.29076,15.74521 -11.86688,8.04987 7.45432,2.988 -2.35676,-3.85561 2.97896,-6.64357 -3.06542,-4.52584 -4.88586,6.57786 -4.25379,-1.71739 -3.66659,-4.3053 7.36988,-7.18774 7.18128,-12.92687 5.56714,-4.22634 -4.38288,-2.06687 -6.88749,-0.0731 -0.81642,-6.17023 -3.75573,0.51805 -4.60893,3.5 -4.1846,4.097 9.58161,0.15903 2.24775,4.5 -2.41207,8.73614 -3.59666,-0.90938 -8.99775,0.96091 -4.4651,1.57645 -0.1997,-11.80076 -6.12443,-5.1358 -3.66403,3.52051 -1.9796,8.06694 -5.7234,12.80895 -1.51041,-1.61002 -5.49658,-5.44299 -4.49302,0.67101 -1.73064,1.7136 -4.42699,5.65608 -6.29541,9.90852 -3.29559,4.14506 -3.87,6.54855 -5.59015,4.10602 0.28233,5.40274 7.42807,4.63343 -1.39723,3.78986 -7.05383,-2.01118 6.34208,9.84258 -4.62633,2.89053 -5.80713,-4.21535 -7.95757,-3.46661 -5.67756,0 -4.39384,-4.08434 -12.24696,-1.54106 -4.54803,2.8506 -0.17787,5.91858 3.51278,2.0845 7.25138,2.95965 9.32467,3.65944 -4.51026,5.3812 -6.02582,4.05889 1.67067,4.59116 7.95935,2.94323 1,4.9505 -0.018,8.145 4.7065,-3.0549 8.00747,2.66612 -8.86386,1.22879 2.08369,10.42179 -0.0229,4.03176 1.2989,-1.27512 7.76347,9.73159 11.24255,5.10964 1.69157,2.66538 6.05286,-4.1646 4.42446,4.16468 -7.33693,3.73677 -2.22604,4.18748 1.16614,7.79813 -1.59533,3.6166 4.5932,7.95104 -0.72351,11.96221 -5.19565,1.19629 -7.08458,-7.46612 -10.98859,-1.83777 -4.37248,4.85592 -11.51728,1.60896 -17.24482,2.50434 -0.99733,1.82798 13.57118,7.00233 2.51365,5.77943 -1.58833,-5.57686 -1.85876,1.22235 -5.52371,-0.48074 z m 95.32048,-104.17243 c 0.69733,-5.26047 6.92655,-2.51218 5.0091,-5.34501 -4.10633,-0.59773 -0.34011,-3.02573 0.81964,-5.11803 1.26954,-11.67995 -8.20294,9.02096 -8,3.43325 -3.28356,-1.30162 -0.24573,5.80424 -2.34934,7.21681 0.21827,2.97801 3.3759,0.83301 4.5206,-0.18702 z M 216.67679,163.625 c 2.3211,-4.75443 -2.04408,-6.60207 -2.91435,-11.52923 -3.17739,2.80667 -2.98304,0.25657 -7.05239,0.0468 -3.61329,-1.74925 -0.86749,-8.08386 -6.38422,-5.22593 -5.36719,-2.28226 -7.47472,-7.10697 -6.60977,-8.91666 -5.54654,-4.04835 6.86171,-1.76841 0.28394,-5.29837 -4.13815,-6.67638 -9.97673,-0.042 -9.3721,5.82654 -3.8181,6.15811 1.26289,9.76359 5.02226,5.6775 5.09031,1.65359 3.21347,11.41405 -0.84207,5.14427 -1.51169,-2.47599 -4.27124,4.45813 -5.59406,-0.054 1.59876,6.026 -4.33703,4.21072 0.88551,7.32583 1.69341,7.86449 3.08899,-1.26237 5.80887,-1.62182 6.9178,0.11498 6.28267,-7.99398 10.42745,-7.26414 4.4718,2.97683 -4.93044,8.64468 -0.18195,9.07423 1.62833,0.95658 4.96037,2.83356 7.89749,7.38423 1.83856,-2.53751 8.52795,3.56135 8.62539,-0.56925 z M 86.261447,139.7325 c 2.451656,-5.04303 -5.82198,-8.8159 -7.620936,-2.4853 -5.007239,5.22756 0.974634,6.89025 5.80147,5.31932 1.623327,0.49098 1.170941,-2.02944 1.819466,-2.83402 z M 165.98653,129.5 c 1.34294,-5.758 -5.96661,-10.37016 -9.7604,-6.13454 -2.92701,4.94722 1.65926,7.56123 2.77718,8.73604 4.61099,3.80209 6.19013,4.80916 6.98322,-2.6015 z M 206,268 c -2.75629,-2.285 -2.3809,-2.85665 -5.95621,-2.5603 6.73422,-2.27846 -2.87827,-6.66951 -2.82054,-1.53471 -2.20628,0.21812 -7.86998,4.25894 -8.9407,-0.25263 1.48006,-1.71668 10.554,-1.81426 7.89018,-6.1819 6.93195,-0.017 9.66723,2.12209 10.623,10.53507 1.34251,1.44391 -1.03424,1.28698 -0.79573,-0.006 z" id="path2891"/>
      <path style="fill:#8e8e8e" d="m 108.91928,244.98311 c -3.99195,-2.12893 1.41923,-5.25633 -1.03142,-9.95625 2.68476,-0.87772 6.23826,-3.69646 0.55745,-6.52208 -3.34539,-2.49934 -7.67008,-2.64727 -11.564015,-4.04442 -5.72457,2.05292 7.101845,-5.50716 -1.289237,-7.48275 0.438305,-7.25588 3.669357,5.51099 7.040722,0.98961 4.56069,-3.57525 4.44489,5.42597 8.37361,5.31953 3.78012,-0.55947 11.65975,9.02244 4.88349,7.71325 -5.92129,4.99539 -3.78756,8.90343 3.14614,6.21497 5.9571,-7.12597 5.27605,6.32626 0.77071,5.44502 -1.45744,-5.58466 -6.91226,-1.87079 -4.38664,2.81616 0.20513,2.46875 -5.74248,1.67775 -6.50081,-0.49304 z M 88.725613,243.64155 C 84.954482,238.90723 82.395118,247.33347 79,242.12071 c -3.723694,-0.91612 -1.276448,-3.81144 -5.455977,-6.29971 -3.65421,-1.99234 -2.516696,-8.99836 -1.816096,-11.74045 4.093374,0.01 9.102944,-3.6508 4.352755,-7.04848 -6.659375,-4.37078 1.615885,-7.09927 3.919318,-1.00902 3.702504,3.14283 5.285613,-1.86153 0.36753,-1.7671 2.02948,-5.82552 -4.731765,-3.22802 -8.180891,-3.80411 -3.016192,-2.88044 -13.601076,-7.57637 -8.046272,-0.45441 0.775557,3.27482 -3.585707,5.61793 -2.013476,1.06874 -4.934212,-1.82793 -4.007522,1.86171 -5.807407,3.32394 1.213489,3.79092 -5.39011,6.15477 0.734481,9.32693 -5.993241,6.2551 -3.865554,-7.38655 -8.03407,-10.19594 -5.668764,-6.46268 -3.380192,4.57958 -2.122056,6.91431 -4.197531,1.0035 -8.41743,-4.31869 -10.51694,-7.91105 -6.011986,-1.77189 -4.291191,-5.24533 -6.054047,-7.72748 -5.024603,0.6944 -3.233021,-7.54403 -8.353457,-5.79688 3.708468,-3.36581 -9.39119,-9.78545 -2.480074,-11.66444 C 15.749268,181.61483 10.344272,175.80697 9,169.5 7.6230327,166.03318 2.2810296,162.40025 4,155.50448 0.77608418,153.14546 3.4060224,147.7521 2.8757056,143.99215 c 2.6121017,-4.06724 0.5961049,-9.01654 2.83953,-13.71904 3.0202531,-7.56476 -0.5105742,-5.3923 -2.8476424,-10.06756 2.5191169,-9.39837 4.9118933,-18.90607 9.4824528,-27.541258 5.665487,-4.50042 -2.068027,-5.215623 3.649954,-5.919778 0.07846,5.381368 2.680452,0.852576 3.856007,5.284528 1.228722,-6.458196 4.319262,-11.113161 9.493765,-14.155418 C 33.044853,81.677087 27.246491,85.459959 29,90.080113 27.314159,97.317366 31.083959,98.591198 37,94 c -1.525159,7.32983 4.144997,-2.080331 3.51408,-3.68226 -1.354733,-0.766797 2.288834,-4.833888 2.656266,-8.093174 7.492326,-4.739739 -1.602238,-6.430951 3.636381,-14.079904 2.301332,-2.3645 6.44782,-6.451342 9.997605,-5.717634 5.89296,1.976818 5.05201,-11.12085 11.643715,-6.350858 9.94363,-5.941476 -7.107466,1.064808 0.557288,-5.033801 3.658857,-4.96044 9.236499,-3.61195 14.417066,-3.161949 C 87.350889,43.68912 93.857228,46.253057 99,45.244605 c -1.122678,4.874798 14.15241,9.492048 2.52681,8.354591 0.003,2.47443 -3.381068,6.868517 -3.180322,10.0163 9.380492,1.217304 -0.964207,6.574553 6.005762,6.083214 6.23062,-1.572402 3.37788,1.146418 1.95854,4.828848 -2.49649,-0.281908 -8.042927,1.217743 -7.31539,5.722442 1.62438,4.490196 -8.696472,6.976276 -4.415611,10.220229 2.849633,3.563808 7.695601,4.737429 11.926951,4.328968 3.66885,-3.80762 5.71125,1.677749 4.53807,4.519805 -0.16128,5.027708 -4.69981,6.667228 -6.04475,9.587868 -2.15623,7.34084 -7.616525,0.61882 -6.572971,-2.67629 -5.022188,2.21027 2.290811,6.66042 -1.534679,10.21337 -1.296344,-5.95977 -6.922002,5.13858 -6.283707,-3.15193 -2.49005,0.8107 -5.248301,6.42058 -5.353217,-0.29202 -2.419045,0.26559 0.393255,10.71149 -4.613104,8.04238 -3.616504,-3.40096 -3.926139,7.68741 -9.642382,3.79095 1.363983,-6.50143 -10.250486,-1.13245 -7.435201,4.1544 -6.661256,-1.92302 -9.338613,2.12383 -4.657807,2.52603 -8.906605,5.57223 6.950476,3.37372 -1.905827,8.73016 2.713501,3.07121 9.046982,6.9564 1.761864,7.77929 2.176295,4.84051 4.70953,-1.98407 8.736971,0.13459 -6.939822,4.11367 -4.440847,5.90336 1.499446,1.69948 7.388663,1.55806 -2.798463,2.77763 -3.648147,5.9008 -2.001881,-1.46892 -7.594621,4.99941 -7.095813,-0.75808 -6.390655,1.63236 -2.760342,-10.20083 -9.557021,-10.30475 -2.991758,-2.65207 -3.149784,-9.59616 -9.780261,-8.75388 1.384105,-3.15849 -3.863009,-8.03031 -7.475645,-8.93568 -0.440704,-2.0072 8.446587,-3.22747 5.221671,-7.95132 0.469359,-7.32802 -2.617565,-8.01449 -4.162935,-3.24455 -2.216547,0.40663 -4.255322,5.95865 -2.7155,-1.05172 1.873736,-1.99758 -1.593815,-7.29139 -0.252959,-8.57845 -6.214353,6.39227 -3.47539,-9.786495 -6.592348,-1.52766 5.568598,6.64853 -2.64194,6.92027 2.059512,13.15154 -5.904702,0.10442 -2.76604,11.07908 -5.13498,15.29388 -3.205804,4.77192 8.259281,4.28808 7.492072,1.52314 -0.114437,-3.29263 7.980512,-1.58466 9.145596,1.55385 4.118117,2.46592 1.286522,9.30704 7.432954,5.80358 -1.097818,6.82764 -5.727557,-0.17058 -4.6678,4.29056 -0.06187,5.7588 4.564914,-2.64122 4.58212,3.20616 -5.025527,0.95651 3.902428,7.44646 -2.456963,7.53877 -3.377799,-0.27646 3.629897,2.83041 -2.892999,3.92568 9.882914,-1.53147 -5.590123,8.13306 4.323176,4.26811 3.134744,1.27134 7.596817,3.87475 10.676824,4.03725 3.210814,9.94504 4.565847,-3.25384 3.455352,-7.83562 1.887909,-1.82176 5.239276,-1.15407 8.406807,-2.11798 4.257687,3.04374 12.596306,-2.54546 8.452588,6.82902 -7.931316,3.16917 -4.99156,3.81177 0.500527,3.53808 0.357438,1.98909 9.289815,5.7856 8.684726,1.59748 -2.226907,-1.32958 -3.391873,-3.81991 -7.599778,-4.37186 0.624874,-5.72206 3.554509,-0.51098 6.537008,-0.88363 -2.447881,-8.48096 1.326101,4.83367 5.31277,1.33136 6.924118,-0.48755 -2.108772,-11.13677 7.662041,-3.03203 5.534399,3.94032 2.334592,10.13067 -2.468978,8.7928 -0.650031,2.38875 5.181788,13.04388 3.495748,6.99985 0.573822,-6.79667 3.409318,-4.31579 3.754157,0.34112 4.691262,-0.14935 7.106802,6.33106 9.430552,3.04942 0.84176,0.93876 5.17303,4.49629 7.27383,7.06283 2.39792,6.17866 4.71755,-3.47006 3.11107,-5.22802 -0.69174,-4.26803 -6.49847,-5.72016 -7.44089,-9.05092 1.79576,-4.22668 -6.49456,-5.31657 -3.83348,-11.19157 -4.78208,-6.60017 5.46995,-3.28029 1.86963,1.23834 4.2678,6.99227 -1.85552,-2.8476 3.32338,-1.28189 5.3393,1.78294 5.6256,8.89846 11.81022,6.56045 5.75253,0.92848 -1.17895,6.86977 3.79875,9.0005 3.56021,5.61376 6.48464,-3.72026 8.13149,-1.74991 5.15336,3.93543 1.43647,10.49211 1.11333,15.77237 -0.76594,4.07245 4.93456,5.16917 1.56186,10.3778 5.64335,-4.18942 8.98304,1.1363 8.33949,3.66946 3.23372,2.55558 1.04013,9.78282 -3.66031,6.83804 2.42751,5.31564 -9.37427,0.77694 -3.95957,5.92193 6.49896,4.40647 -7.3235,6.27998 -4.6691,2.14406 1.57463,-6.39893 -2.80142,3.34458 -4.89322,1.24129 2.47301,5.55203 -10.17531,-1.29872 -4.40241,2.54191 1.14769,3.822 -6.28895,-1.57171 -8.56386,-2.38195 -5.55968,-3.13364 -8.96798,-9.7478 -14.96979,-11.96724 -0.0557,-5.78707 1.64299,-12.34281 -3.163565,-16.83237 -2.746822,3.19572 -7.965205,5.00367 -5.935331,7.85397 -0.492272,3.74877 5.097095,9.15026 -3.49905,10.15078 -4.137169,3.71019 -1.59512,7.00414 1.663288,10.25345 2.938804,3.60707 13.170578,3.58543 13.574678,7.64587 -7.803843,0.006 -9.171642,0.2964 -5.2751,5.40424 0.84265,2.9503 -0.15395,11.84428 -1.748205,4.86802 -6.795487,-3.96615 -0.376581,4.71555 -1.786412,3.60117 -3.142025,0.23275 -5.607435,-0.4222 -8.16863,-2.30358 z m -3.473348,-54.37694 c 0.961356,-6.34945 -3.224769,-4.34405 -1.019002,-9.26461 -3.143463,1.19526 -4.224359,2.52564 -7.22537,2.98723 -0.656862,3.67353 -2.407336,13.77041 3.783393,12.01277 4.646865,3.32722 5.553326,-0.0618 4.484395,-5.43776 l -0.02341,-0.29763 -2e-6,0 z m 177.001355,41.89214 c -1.91402,-2.88949 1.12095,-8.87452 3.48171,-11.87394 7.09369,-3.56289 3.49371,-9.49789 7.8279,-12.68392 -0.17853,-4.64732 -8.73208,-13.41113 0.40217,-10.06668 5.06304,-0.38469 -3.94246,-4.82495 2.26341,-4.05559 4.98614,-1.81711 0.27364,-8.6926 1.88922,-2.47662 -4.12298,0.88979 -1.50504,-7.41758 0.71541,-8.96874 5.63652,-1.23955 0.43213,-7.91479 3.10895,-9.03126 1.00297,2.6454 -0.0538,6.1854 2.66581,0.1649 -1.09216,-3.57288 -1.97378,-10.03726 -1.64413,-8.91559 5.18874,2.49765 0.33231,-4.20262 1.57685,-6.41501 -1.57701,-0.62233 -3.8507,5.49286 -3.54092,-1.82333 -4.76168,-0.40744 -2.45979,-7.61328 -5.81143,-11.02642 -1.97456,-3.99199 -7.74678,2.2068 -8.17453,-1.74199 -0.38606,3.91625 1.99264,9.24511 -0.0813,12.29899 -3.50029,-4.43308 -0.25918,5.4997 -5.65493,1.07196 C 261.23124,152.39975 253.91453,147.11189 256,145 c 0.3603,-3.90822 3.71446,-3.28245 6.73787,-6.39746 0.4531,-7.12992 -2.56933,-2.51742 -4.87607,-5.63516 -2.62176,1.98353 -7.83908,-3.72741 -6.8618,3.20311 -3.05626,-3.42372 -7.25709,-0.13354 -8.02541,-6.32036 5.15634,-5.47767 3.09613,1.52911 4.78449,0.84325 3.97079,-5.69717 -7.45844,-5.51394 -9.75908,-1.44849 1.46311,-5.77283 2.38064,-3.58175 -4.35482,-8.17242 0.30755,-2.73767 11.65725,-2.1551 1.65262,-5.45032 -6.01534,1.07223 -2.84901,-5.15475 -3.13873,-9.32783 -2.43457,2.47043 -5.30779,1.56361 -9.61162,2.69002 -4.08021,2.76963 -5.72422,-2.20038 -10.32746,-0.81956 -1.96746,2.32842 -0.31897,8.38819 -0.90572,12.14138 -1.30728,5.88656 1.16309,7.11197 3.16561,10.60259 1.29042,3.66199 -2.7921,6.12118 2.2213,6.89057 4.84548,-6.92361 -1.50105,2.9554 5.02868,-0.24442 6.96885,-3.39978 9.83691,1.08851 14.96704,1.03098 1.7564,1.92822 0.0927,7.81868 3.00182,10.67721 0.64837,6.77282 8.29254,4.85519 7.30128,12.45086 -1.54906,3.42675 -4.03549,8.07667 -1.83979,9.8792 -7.21904,0.60016 1.98649,-11.24356 -3.3027,-11.92873 -5.36115,-0.45381 -5.72665,5.18558 -9.66658,1.41448 -2.00705,-0.90754 3.89065,5.6158 -2.21544,7.34814 -3.96635,0.57197 -2.00295,-6.11901 -1.33995,-8.12488 -3.06708,2.15666 -5.7984,0.65898 -8.42521,-3.36729 -1.32308,-4.28737 -1.37634,-7.34638 0.78962,-9.95091 -0.005,-1.9064 8.07867,-6.46921 1.75251,-5.33559 -5.05941,-3.20965 -6.1526,-1.38176 -8.18507,2.35163 -2.10738,-0.80424 -5.64115,-9.22584 -8.91461,-4.55156 -2.41122,5.42419 -4.58896,-7.87296 -7.65278,-5.07492 5.07016,-3.18129 3.54703,-10.1516 -1.65649,-10.75883 -3.67322,2.79686 -7.96973,-1.06779 -11.22631,1.38895 -5.27802,4.91703 -3.68196,-3.30441 -3.14539,-6.50364 -1.04097,7.60608 -2.7592,2.23246 -5.94634,-0.5 -6.00627,-2.12331 0.40801,8.45425 -3.91899,1.29444 3.17521,-2.93739 4.50184,-4.67737 -1.66986,-6.99952 1.59883,-4.09319 -5.31118,-10.84354 -6.32492,-13.681324 C 165.18028,94.560359 167.43848,94.828666 168,91 c -5.89891,-2.367809 6.22837,1.029731 3,-4.372396 -3.59249,1.692464 -10.67689,3.049202 -16.45087,3.437062 -0.80947,4.047668 6.96425,3.533659 8.45087,4.916282 -2.18321,1.137641 -12.83988,6.596782 -4.32043,5.928032 7.45824,4.71397 -9.05889,2.96618 -3.24162,8.11871 -3.04438,1.63149 4.76164,6.99752 -1.74697,6.98591 -8.59057,0.35303 -7.14773,2.58111 -1.8696,4.50636 -0.84635,3.50577 -8.87112,2.98955 -7.82138,-1.12842 -0.86261,-6.94943 -2.26748,4.1147 -6.66889,1.29817 -5.87743,-0.32906 0.46875,-3.91468 -4.93544,-3.52882 -6.30664,0.029 -9.19753,6.78957 -13.78337,10.20983 3.68737,1.04489 2.24986,6.62808 6.39237,8.78354 1.19102,2.59654 8.80398,-4.2048 5.87686,1.84569 2.84048,-3.3057 12.50861,-4.51676 10.66901,1.9679 C 140.74905,149.6043 137.30228,149.99043 129,148 c -0.77048,-7.74562 -0.70326,-0.75019 -3.21963,-1.51899 -8.58747,-3.08239 -6.23187,14.44948 -12.48724,14.01105 -6.05865,-3.8275 -10.53199,0.47761 -8.12415,4.50794 -3.11849,-4.8725 -10.630367,-13.46063 -13.320372,-14.36604 -5.134683,-1.16777 -4.30877,-10.35705 -2.475026,-5.62435 -3.931214,-1.20931 4.982649,6.43813 6.123273,2.82688 -6.898857,-2.16671 0.383504,-4.88479 -1.266725,-8.27314 0.488895,-3.88747 9.10648,-4.6391 5.83264,0.43666 2.41642,-3.52443 7.54871,-1.02538 6.69912,-6.5813 -1.30422,-1.34677 -8.875547,0.0782 -0.99515,-2.41871 4.29259,-6.1642 -5.12705,-1.96378 -4.19008,-6.24185 9.2585,-4.25235 -7.167223,-5.83935 0.0137,-9.03496 4.11787,-3.8479 7.9968,-3.02028 11.40961,-1.47908 3.86433,-4.90897 9.3931,-0.19063 8.78909,-7.43957 -1.45294,-7.081571 -0.14404,0.40851 2.98351,-4.10577 0.47481,-2.68914 -0.80754,-9.396327 3.1325,-3.503678 4.74808,3.682888 5.48364,-3.895708 -0.1217,-4.38138 4.91707,-1.615171 5.02556,-1.545682 3.0166,-6.533408 1.78437,-3.056487 -4.8742,-7.538461 -0.16668,-6.38889 -0.82182,-1.484351 -0.56474,-9.087375 -3.86154,-9.045434 -9.29976,3.834766 -5.35967,-3.87711 -7.27258,-6.84598 -5.16789,7.910529 -7.68974,-10.035034 -12.08203,-2.511904 -3.73628,3.690919 -3.75334,-5.436677 1.20527,-3.488096 2.96952,1.29507 4.63564,-9.806442 3.55771,-2.305882 2.86156,2.693066 -0.65707,6.610792 3.68678,1.105606 2.97071,3.558016 1.00868,3.260602 4.94915,1.200276 -0.72341,2.434593 0.38226,8.586957 4.17625,7.504741 4.88274,-4.071958 2.8498,-7.261385 4.0246,-15.21378 2.92184,-5.804784 10.92628,-4.011027 16.42433,-4.809228 4.39856,-0.356757 3.13554,4.044301 8.55874,-2.538437 -2.60617,-1.491226 -8.68037,-0.333413 -7.69509,-4.890541 -4.41259,2.922458 -1.94162,-5.443964 1.17694,-5.878264 6.02783,4.099436 5.35071,0.277963 10.1008,-0.174491 -0.20109,1.808139 6.94797,9.070418 4.8509,3.96623 2.57455,-1.25985 6.62913,-3.749731 1.63472,-4.672703 2.06782,-3.238467 10.87301,-5.448043 11.006,1.164888 4.47926,0.723158 12.55658,4.145102 3.43423,3.68139 -7.41294,0.465689 3.90995,1.6266 -1.49398,3.355586 -7.46555,2.63426 6.64694,2.643772 0.083,3.371053 -2.59567,-0.659495 -10.11165,-0.979067 -9.17751,-4.525537 -6.94898,-2.575183 1.53594,7.435402 -3.01715,7.837148 2.38328,5.214802 9.14702,0.635107 11.65742,6.320009 8.2716,2.759277 0.34871,4.180848 3.64729,6.873663 0.91985,2.854419 5.57592,-3.089741 2.73055,4.010921 2.32246,3.290607 2.58459,5.453436 5.69022,7.812468 3.60039,2.445193 3.25496,-2.596139 6.58211,0.261102 -1.58265,-3.6706 -2.19427,-7.035648 2.47581,-7.066024 -6.4519,-4.83525 0.50285,-9.337073 2.99597,-3.366788 0.19724,5.52598 10.10009,-0.753535 8.55755,4.69492 -0.65148,5.013049 4.17646,4.211114 4.81728,8.744004 4.06865,2.055623 9.90946,0.0819 13.9132,2.039495 4.25449,6.849706 14.86001,4.956852 19.97153,11.132977 3.40868,-0.601272 6.79854,2.964436 10.75327,-1.426399 3.23528,-3.295153 7.94383,8.736409 5.37684,0.04008 0.098,-9.751561 -12.18846,-6.942236 -10.90965,-16.202163 0.80956,-6.047097 2.42695,3.710771 5.70556,5.024089 3.75905,1.094199 1.9128,-5.694768 -2.29029,-1.801551 5.02499,-4.2943 5.0167,-9.593971 1.75588,-14.813806 -1.10869,-5.071664 -5.31218,-8.207318 -8.53723,-11.955053 3.50924,3.066695 1.48449,7.491348 4.28204,8.207006 -0.41662,4.701954 5.69394,7.384128 5.15883,10.556881 -2.8483,6.542614 -1.05257,-4.512576 -5.23706,-3.008401 -6.33547,-5.639509 1.57035,2.71101 -1.3607,5.22338 -1.40599,3.521908 -6.10201,6.326814 -9.81574,4.982381 -5.77887,-2.511032 -13.18859,-4.410133 -13.9113,-10.981626 -2.88671,-3.346645 -8.42919,-5.545582 -6.91226,-10.795277 -0.0725,-3.46053 2.91221,-1.706226 4.18402,-5.684344 -0.12213,-4.021403 0.8607,-2.120437 3.98816,-5.08761 -6.17446,-6.581668 5.96717,4.033577 3.21902,-6.321659 -2.41441,-8.852916 -3.12197,-2.826027 -7.92092,-7.689919 C 221.95116,25.099515 221.05396,28.286294 216.06596,25 211.32031,26.384599 210.8736,18.334599 206,20 c -1.79889,-7.836878 7.51647,3.564763 6.80967,-1.524694 -5.58325,-6.315294 9.50874,4.108398 12.45169,5.424764 7.36319,1.509169 -2.03415,5.951262 4.93786,3.08625 11.79517,9.282315 22.95965,19.68517 32.3666,31.342174 8.05205,11.447257 15.11596,23.531648 19.83928,36.768031 5.95897,16.072285 9.19405,33.286925 9.69721,50.376625 -0.37884,11.79867 -1.33666,23.55194 -4.7217,34.9291 -4.2312,18.63024 -12.7185,36.08506 -23.95643,51.47794 l -0.63332,-0.39141 -0.53724,-0.33203 0,0 z m 11.70075,-110.45443 c 1.18365,-3.66173 1.29803,-9.91818 -4.00843,-9.24415 -4.46061,0.56841 -2.85507,6.86991 -3.35955,10.25644 2.83411,2.89897 6.62601,7.38654 7.36798,-1.01229 z M 114.25,86.337719 c -0.60071,-4.692259 -5.67004,-1.684316 -8.09083,-5.850863 2.38871,-4.44147 3.72337,0.52984 8.78504,-1.293617 7.47384,-2.091614 8.32502,1.681823 3.13009,6.949791 -0.47985,1.922651 -2.86705,-0.07731 -3.8243,0.194689 z m 4.25435,-59.330687 C 115.63914,26.391077 111.00307,24.326105 116,23.255486 c 2.77612,-3.201501 -0.25851,5.896451 4,-1.244889 -2.85701,-4.193177 8.70172,-6.32343 5.1836,-3.105965 -3.23701,2.389217 4.68918,1.171214 2.31391,-2.10954 5.4203,-3.496401 14.97863,-4.298148 20.01277,-2.50064 1.27215,6.447201 2.66195,8.90734 -2.92845,4.938958 -5.36397,0.815753 -3.63921,6.464807 -9.48245,4.76659 -1.72307,-6.432842 -9.35485,-0.0094 -13.09834,1.529302 -1.17709,0.479177 -2.81711,4.336226 -3.49669,1.47773 z" id="path2889"/>
      <path style="fill:#7e7e7e" d="m 88.635693,242.49384 c -6.96365,-2.53701 -5.241768,-0.0876 -3.635693,-4.77959 -3.400293,-1.59181 -8.058933,0.10147 -10.547247,-3.14707 -3.415665,-1.69931 -1.551435,-8.33513 0.394827,-6.95424 -7.560903,-1.50671 -0.530055,-3.31535 3.122501,-5.05406 4.215215,-2.30403 -7.286206,-11.15734 0.290992,-7.93958 0.28197,4.31865 6.772926,4.64377 6.949639,0.24856 -7.089541,0.56366 -1.547807,-5.62675 -3.519729,-4.78887 -0.970181,-3.16399 -6.573864,0.57857 -9.978115,-0.96604 -2.027782,-1.20538 8.202553,-1.82628 0.722947,-4.79572 -4.869021,-4.8391 0.610819,7.03835 -3.900942,2.12327 -5.246688,-3.36236 4.269542,-9.71639 -1.704449,-5.67093 -1.353549,-2.58944 -7.842614,-1.18389 -7.389602,1.13468 4.071552,0.27004 6.148069,1.15467 1.559178,2.79817 1.63797,6.85141 -2.282281,3.09213 -4.728079,6.47564 -2.619705,-0.85122 -11.414083,-6.74315 -6.298658,-1.27976 4.561744,3.16315 1.523139,6.5592 -1.255763,1.8517 -2.012806,-4.05407 -6.337334,2.12881 -8.541624,-2.3587 -4.763529,1.62157 -6.487036,-6.02121 -11.502416,-6.00358 -4.991437,-2.19321 1.993097,-5.70918 0.32654,-9.43487 -1.160149,-6.67568 -4.863046,0.66256 -2.35016,2.04009 -4.077951,-2.89439 -2.434902,-6.86117 -6.098505,-10.61411 -8.071947,-10.46594 9.536126,-0.48431 5.767379,-5.51172 -10.152941,-2.56957 4.413565,-3.80263 4.995639,3.51264 -0.0761,6.77358 7.171628,3.40829 2.743309,-0.69519 -2.560892,-2.61198 7.430359,-6.24668 1.379832,-9.48547 -3.399043,5.37593 -5.709243,-0.61374 -5.674303,-0.75651 -5.279677,0.75555 3.978383,-1.81699 5.564033,-1.16302 1.377721,-1.75867 -2.071357,-0.19117 -2.01576,-3.39061 C 26.952188,170.55653 25.72071,169.74063 23.09362,167 17.649847,165.65357 25.867208,162.05202 27,160.92193 c 3.054474,0.0845 1.915585,-3.74115 -0.734592,-2.54235 -0.736436,-5.46966 -6.572359,6.00226 -7.857172,7.33057 -4.919448,-1.04657 3.248796,-5.18145 -3.123079,-4.8789 -7.5490802,-7.83419 1.304394,-2.27292 1.214843,-3.59654 -5.71869,-7.44503 5.656045,-1.44895 7.003869,-6.4937 4.499169,-7.10936 -0.83262,3.8217 3.496131,0.84338 -1.320122,5.94956 5.15701,0.23496 3.116677,7.49528 1.024751,-2.13766 10.731767,-5.63692 7.637249,0.30926 -3.106807,2.73049 2.641074,5.92801 -3.174399,8.73317 3.200005,3.26041 7.152435,-1.10893 3.905854,3.02157 1.76099,4.46677 3.71495,-2.93051 7.153699,2.11203 1.282889,5.19523 7.374799,7.35509 6.36092,12.57763 -3.105603,8.62173 10.140328,2.99839 2.780827,0.52907 0.919281,-1.89133 -4.931085,-5.65669 -2.079007,-8.12188 6.771915,-1.14176 7.961133,-2.05061 10.208028,3.71719 6.240521,2.02718 -1.765699,10.0712 3.409532,10.79139 6.780168,0.35808 -3.597177,8.96286 5.239637,3.2509 0.315995,2.47423 5.905841,2.51517 4.665896,2.49306 -7.244448,0.8386 -1.9462,5.56445 1.362558,2.09101 3.891129,-5.7387 2.318675,-2.3971 5.339013,1.34241 1.904917,4.01571 8.3335,0.17353 8.870694,5.32352 2.728783,3.59424 4.579003,5.48773 -1.759074,4.75 -0.656295,4.55666 -7.354487,9.74907 0.127009,10.73205 2.102106,4.86291 5.021247,4.70012 8.817368,5.96823 6.551599,2.75798 -8.994196,3.50406 -1.553262,6.60369 5.691201,2.51696 -3.446016,5.75505 -6.184219,3.52684 0.03044,2.47958 2.995358,7.64254 -2.609307,3.66303 z M 265,226.10699 c 2.90384,-1.99474 6.63138,-6.3603 5.13982,-10.18502 2.35599,-1.07976 2.7683,-4.85805 4.86018,-5.62439 1.09216,-3.20917 3.97578,-6.60723 3.13268,-12.14446 -3.88371,-5.94772 8.60327,-3.12173 2.90828,-7.24584 2.56774,-5.44182 5.50103,-11.47768 2.89829,-17.40728 4.29103,7.50236 0.82916,-9.23597 2.25395,-11.70177 -0.68156,-4.83002 -1.22316,-8.33973 2.22561,-11.3614 -6.94417,3.034 -1.39913,-5.38194 -0.62121,-5.37997 -5.86125,1.40497 -7.21135,-2.96383 -0.73582,-1.18786 -0.2927,1.65833 0.206,-10.04779 -1.09978,-5.70114 -2.3699,6.35027 -6.04036,-8.5835 -1.18935,-8.25874 0.93307,8.53088 5.52657,2.46278 2.22733,0.59087 0.12123,-0.83614 -6.41362,-5.24939 -1.99998,-5.20241 1.9214,-4.38111 -3.3594,-8.42505 0.0657,-10.08761 2.0498,-3.83201 -8.55636,-7.60509 -6.68866,-12.57629 1.94445,-3.946189 -4.80789,-5.426765 -3.20887,-9.834123 -0.68276,-3.887621 -5.08088,-5.735006 -3.77523,-10.73857 -0.48114,-8.490134 -4.60303,-3.224114 -2.85805,2.319104 C 263.00746,77.915737 265.12,81.239452 265.23513,84 c -3.69863,-1.101824 -3.97142,-6.591921 -3.87829,-10.153915 0.76906,-2.950516 0.42498,-6.688499 3.65557,-3.016905 -4.71435,2.33566 1.76225,3.901897 0.47493,0.230989 5.4074,7.365991 0.41018,-6.229677 -4.66671,-4.919823 2.82383,-6.968041 -7.58588,-11.951749 -10.4291,-18.060391 -2.79486,-6.545065 -7.00454,-6.656328 -11.08599,-11.736736 -9.28532,-10.649817 6.16706,3.556569 9.6489,7.161094 8.3338,7.125279 14.45337,16.383315 20.71989,25.252798 5.32546,11.901181 13.01724,22.888354 15.8745,35.742889 3.39314,12.96134 6.75563,26.14657 5.83332,39.64347 0.0225,9.29783 0.67277,18.66025 -2.13029,27.66733 -3.47172,19.70494 -11.72873,38.34096 -22.39667,55.1892 -0.66241,0.0305 -1.8417,0.11061 -1.85524,-0.89301 z M 125.15946,223.425 c -3.59788,-1.44652 -3.46969,-3.46857 -4.80689,-5.9014 -0.91696,-2.56015 -1.34508,-7.75878 3.36628,-3.31694 3.5557,0.91009 7.92612,-4.55707 1.07204,-4.54242 -5.8761,-0.28261 -4.0034,-5.02688 -3.26442,-9.11837 5.79777,-4.66696 8.48028,-1.78489 11.63536,2.06976 3.34993,-0.0617 1.5339,-8.79939 -2.55262,-6.61559 -1.75435,-4.26796 -8.09939,-0.7096 -7.49056,-6.3366 4.27998,-4.88114 -7.65493,-4.03637 -0.71815,-5.94727 5.31682,-1.79273 -4.48376,-6.0694 -3.05407,-4.9083 -0.37276,5.10062 -6.62066,-2.03361 -4.55943,-4.81013 0.006,-9.30231 7.61366,5.66323 7.6469,0.69072 -1.53005,-4.05892 5.49881,1.7874 3.50988,4.54887 6.38939,5.38174 -5.95503,-0.39078 2.15783,5.55672 -0.0812,1.17068 -2.3042,8.08666 2.74594,5.08815 3.36695,-0.91943 9.14047,-0.45084 6.33104,4.40457 0.32332,4.04694 1.76391,7.35025 2.25138,11.30987 2.70379,2.16003 4.09788,3.05299 7.0452,5.4034 3.46094,1.3158 -7.19012,6.19147 -8.72009,9 -4.62681,-1.77092 -6.77276,3.47303 -9.94265,4.5405 -0.88429,-0.37185 -1.7688,-0.74365 -2.65297,-1.11554 z M 91.48462,200.82052 C 88.527288,198.27408 85.62625,197.07799 87,191.78395 c 4.047113,-1.08946 2.912561,-2.80267 -0.598093,-3.47523 -1.171248,-9.79044 9.133714,-6.60208 4.760408,-2.2483 6.381084,-2.98852 -1.944783,1.99087 3.889082,4.13383 3.427137,-3.90382 8.377503,5.47683 4.274964,3.45723 -2.516716,3.36786 -5.02791,6.58047 -7.230272,1.09767 -8.512224,2.90529 5.232145,2.00459 0.942396,6.22282 -1.085761,1.68614 -0.792814,1.98309 -1.553865,-0.15145 z m 143.02546,-39.80421 c -3.29786,-1.06925 -7.16843,-2.31679 -9.69876,-5.95749 -2.09984,-1.08368 9.76568,-2.32402 0.83556,-3.2133 -7.00569,-1.91269 3.31157,-2.82174 -0.83517,-4.95922 -1.45186,-6.21297 6.79652,-3.12801 2.36784,-5.88633 -7.42369,1.07989 0.80226,-6.88987 2.50131,-0.48835 8.3269,4.20286 -3.62035,-0.47648 2.28805,5.7906 -6.83221,2.41868 2.06284,4.66381 4.5989,2.64147 2.28868,-2.57223 7.80399,11.23107 2.68219,9.31807 -3.78411,-2.66872 -1.45629,6.41494 -4.73992,2.75455 z M 114.82143,145.67859 c -3.96491,-2.07463 -6.57707,-2.13743 -6.52385,-6.67859 -3.83601,-1.74246 4.62392,-5.42536 0.80863,-6.9954 -3.53843,-7.08042 6.4146,-6.08944 3.19209,-10.03628 -7.75349,-0.044 8.25485,-1.48063 0.48768,-3.71864 0.0186,-5.78797 4.05552,-2.56822 6.37192,-4.75182 5.50599,0.42312 2.67772,5.97053 4.18982,6.58316 -5.95987,-0.10096 -3.33835,9.08034 -9.18124,5.99493 -6.39352,3.7395 7.13866,3.56379 4.32498,9.34605 -3.52316,2.1667 1.92999,8.452 3.64953,3.08993 5.04892,-3.08489 7.01291,7.52024 1.68885,5.72609 -3.01129,-1.6784 -7.8516,-1.30718 -7.32991,3.11917 -0.55943,-0.5595 -1.11928,-1.11918 -1.6785,-1.6786 z M 251,130 c -0.77123,-7.51454 -8.22337,-2.87301 -10.31765,-5.41744 -1.96317,-2.91362 2.47895,-8.8439 -2.99176,-8.58256 -3.68745,-1.53885 -6.05325,-5.28645 -4.21203,-9.36608 0.3898,-4.09517 0.58629,-17.33129 3.56302,-8.001244 5.55526,5.572744 0.0964,-1.234047 1.42148,-4.698145 2.63972,-3.669136 -5.07061,-8.226153 2.28694,-6.38984 7.41523,2.848606 13.40345,4.188115 19.60802,4.680343 1.21348,4.600347 -3.25718,0.103194 1.46686,5.643775 4.38221,-0.08453 2.58999,3.300051 6.13025,5.198611 -1.60292,2.36701 3.97007,6.21348 -0.87036,9.07196 -2.9585,7.40532 -6.72836,-8.5723 -2.08477,-4.02135 -1.64418,-5.67078 -5.96572,-5.68204 -2.04431,-1.79969 -6.48307,2.30227 2.93361,9.593 0.0645,12.68166 -7.04673,1.35789 -0.37944,6.84232 -3.27296,10.03307 C 259.45437,131.9917 251.27827,131.64247 251,130 z m -49,-5.12099 c -7.98925,-1.79757 4.57891,-2.54688 -2.10085,-3.72345 -4.8337,0.83537 -15.13212,5.05143 -14.08861,-1.71733 -5.21009,-5.01992 -8.11703,-1.49 -10.71386,-1.93491 5.0712,-4.03902 -1.6422,-7.43735 -4.04273,-10.51709 1.29386,-4.49076 -2.17043,-5.82838 -5.84685,-7.062192 0.18257,-5.716063 6.57428,-2.518143 4.31542,-8.123556 4.49858,-1.276873 3.54431,-11.320679 -1.4011,-5.795096 -3.5043,-3.022548 -4.31389,4.82527 -9.04288,2.351582 -3.72458,-0.408736 -8.48045,0.959278 -11.58703,-0.514197 -5.3248,-9.226889 -1.32737,8.246275 -7.82401,0.256598 -5.74981,1.030522 -7.47309,-3.308114 -7.82212,-9.711368 2.11685,-4.309988 -4.89448,-8.627429 -3.95616,-9.388001 0.92501,-3.291396 3.92177,-5.109156 1.41486,-9.037359 -2.3314,-5.157646 4.38054,-7.767648 4.59705,-10.469172 2.82255,-0.0823 11.32266,-2.089103 7.80654,2.906576 -1.28319,5.56475 -8.08907,-1.466126 -9.46614,3.526481 -3.60158,3.591386 6.039,2.444241 5.45472,0.356632 3.97752,0.827239 7.91957,1.525069 10.66655,-2.137704 0.34383,-4.354446 5.2005,-3.639565 5.73508,1.672659 0.7174,8.276537 0.0228,16.892485 1.61081,24.959742 0.20976,3.884198 6.36952,7.496368 2.71388,3.462444 -0.23786,-7.162639 3.17762,-0.1484 7.07743,-3.383144 -4.71662,-1.239468 -3.15657,-6.235948 -6.11882,-8.54062 -5.15504,-4.230436 9.66264,-2.520177 1.02719,-7.2509 C 153.01012,67.735548 157.19805,53.434702 158.9505,64 c 5.61831,0.06951 1.61471,-5.507217 -0.24321,-7.670899 0.28108,-4.381152 0.12155,-8.489434 -2.70729,-10.671164 -0.86709,-6.722317 10.69317,-0.326674 6.75,-0.739155 -5.41353,2.145872 2.23408,3.200302 3.69265,6.122834 3.79585,1.038881 10.42051,3.902921 12.33401,6.522565 -4.95257,3.332689 3.66959,5.489701 1.72334,9.935819 4.76057,-1.942604 3.48676,4.650806 3.62188,4.403503 -3.87145,4.519606 4.58521,1.023968 5.10384,4.270727 3.30086,-3.521633 10.1317,6.044113 9.77428,-0.49844 0.64239,-3.873412 4.98121,-4.091014 2.62716,-7.758458 5.09915,-2.015896 9.12597,-2.716329 5.95123,1.893697 2.91513,2.376373 4.5,7.598512 8.24996,8.188971 5.55653,-0.721809 16.77769,1.475139 5.56458,4.801108 2.24243,3.985015 -0.39656,3.507755 -0.39293,7.901308 0.28725,7.321388 4.63346,-6.583835 7.13721,0.687006 0.14912,4.203526 0.29824,8.407052 0.44736,12.610578 -7.22293,0.51819 3.07594,2.271 -0.26414,4.05555 -3.55538,-3.08808 -8.45557,3.6805 -10.11571,-1.34235 -4.07907,3.09971 -7.15401,-2.62869 -10.78623,0.41495 -6.01555,0.20759 -0.99061,7.81098 -0.21377,2.9984 -0.80412,-4.30732 6.11167,-2.8903 3.79528,1.50356 1.63242,4.26328 -4.3895,5.96054 -0.80051,9.70705 3.03447,3.86775 -6.0386,7.09891 -8.19949,3.54185 z m -64.54281,-7.94828 c -2.88484,-2.70078 -8.51358,1.01372 -12.0021,-1.95325 -3.11892,-6.15787 4.87004,1.78794 3.54491,-3.13624 1.72328,-1.8915 6.35585,-5.12392 3.29758,-7.84124 -1.23887,3.55299 -4.01963,5.91339 -3.79753,-0.98816 0.38873,-3.492335 6.93445,-1.90245 9.74787,-3.393346 0.59183,4.996456 11.35248,2.358256 5.50724,7.381506 5.46,0.96906 6.92395,5.71524 6.11017,-0.97455 5.2195,-4.43933 3.07637,-2.2839 3.83554,2.17665 4.73996,5.36152 -5.70383,-5.55749 -4.27272,4.68804 -3.0045,3.94287 -8.12962,3.12723 -11.97096,4.04059 z M 54.416403,92.86099 c 0.469616,-7.522117 7.379022,1.776141 8.553497,-4.36099 0.798881,-3.672612 -3.080111,-9.344395 -5.931648,-4.681109 -7.291183,5.463336 0.149825,-5.647036 -4.03727,-4.179111 -5.120684,3.173218 -4.04296,-5.034122 -1.408536,-6.001354 3.710975,-0.412408 8.809559,-3.68069 7.029659,-7.834923 1.003943,-0.564529 2.959489,-5.082651 6.53467,-5.61093 6.262121,-0.876341 8.357115,7.889969 12.252359,11.432172 0.167928,5.933967 -4.372782,0.365825 -5.600619,2.566201 -6.005424,5.868027 7.000339,9.872428 1.83497,13.097237 C 68.88356,87.196933 67.394222,90.471673 65.5,92 c -2.172421,2.420015 -7.681705,3.699339 -12.496787,4.221979 0.471063,-1.12033 0.942127,-2.240659 1.41319,-3.360989 z M 90.40079,79.397941 C 86.599979,76.045236 94.112768,78.032648 91.297584,74 c -0.715711,0.119655 -3.329829,-8.68224 -2.620133,-6.583025 5.401432,3.548492 4.285469,0.577739 10.556634,5.926168 6.017265,1.75138 -6.341497,1.673941 -2.005564,5.84274 -5.072259,-3.327673 -2.943402,2.239598 -7.314587,1.480784 l 0.25165,-0.65579 0.235206,-0.612936 0,0 z M 240.59514,72.5 C 233.51381,71.339768 231.94212,65.639908 228.76204,61.846955 226.58923,57.795624 229.31171,54.724813 223,58 c -1.15093,-4.69029 1.30693,-7.507872 2.87992,-4.189894 -2.74572,-4.660054 1.84326,-4.793196 2.12008,-8.178528 2.03255,-1.40303 12.51543,6.441375 10,-1.715172 9.42868,4.014209 2.97236,2.268281 1.19946,3.181968 2.58917,2.766004 8.08091,2.870094 10.18811,7.336767 6.80834,6.046171 3.81324,5.306712 0.68962,7.952943 4.37856,3.771842 0.96477,9.869684 -3.85639,11.361916 -1.65209,2.614595 -3.97334,-0.463436 -5.62566,-1.25 z" id="path2887"/>
    </g>
  </g>
  <g inkscape:groupmode="layer" id="layer5" inkscape:label="ShadowEdge" style="display:inline">
    <path style="fill:url(#radialGradient3869);fill-opacity:1;stroke:none;display:inline;enable-background:new" d="M 0,146 C -0.36136656,69.188405 62.17494,0 146,0 236.00011,0 292.04198,72.824863 292.54376,146 293.05956,221.21908 230.72857,288.89892 153.81582,290.65553 56.649023,292.87472 0.33742784,216.78946 0,146 z" id="path2893-0" sodipodi:nodetypes="cssss"/>
  </g>
  <g inkscape:groupmode="layer" id="layer4" inkscape:label="shadow" style="display:inline">
    <path style="opacity:0.5;fill:url(#radialGradient3815);fill-opacity:1;stroke:none;display:inline;enable-background:new" d="M 0,146 C -0.36136656,69.188405 62.179804,-0.90299103 146,0 238.82506,1 292.0424,72.174953 292,146 291.95805,219.04584 233.93336,286.29698 155.99086,290.11177 63.194744,294.65355 0.33742784,216.78946 0,146 z" id="path2893-2" sodipodi:nodetypes="cssss"/>
  </g>
  <g inkscape:groupmode="layer" id="layer3" inkscape:label="light" style="display:inline">
    <path style="opacity:0.59999999999999998;fill:url(#radialGradient3762);fill-opacity:1;stroke:none;display:inline;enable-background:new" d="M 0,146 C -1.4111077,69.200518 62.17494,0 146,0 233.82506,0 292.0424,77.174953 292,146 291.955,219.04584 233.94597,286.56399 155.99086,290.11177 56.194744,294.65355 1.3374278,218.78946 0,146 z" id="path2893-1" sodipodi:nodetypes="cssss"/>
  </g>
</svg>