<?xml version="1.0" encoding="UTF-8" standalone="no"?>
<!-- Created with Inkscape (http://www.inkscape.org/) -->

<svg
   xmlns:dc="http://purl.org/dc/elements/1.1/"
   xmlns:cc="http://creativecommons.org/ns#"
   xmlns:rdf="http://www.w3.org/1999/02/22-rdf-syntax-ns#"
   xmlns:svg="http://www.w3.org/2000/svg"
   xmlns="http://www.w3.org/2000/svg"
   xmlns:sodipodi="http://sodipodi.sourceforge.net/DTD/sodipodi-0.dtd"
   xmlns:inkscape="http://www.inkscape.org/namespaces/inkscape"
   id="svg548"
   sodipodi:version="0.32"
   width="732.78809"
   height="377.62289"
   sodipodi:docname="critter-logo-text.svg"
   inkscape:version="0.48.2 r9819"
   inkscape:output_extension="org.inkscape.output.svg.inkscape"
   version="1.1">
  <metadata
     id="metadata2421" />
  <defs
     id="defs550">
    <radialGradient
       inkscape:collect="always"
       href="#linearGradient3251"
       id="radialGradient3257"
       cx="86.541542"
       cy="76.54541"
       fx="86.541542"
       fy="76.54541"
       r="58.128677"
       gradientTransform="matrix(1,0,0,0.814962,0,14.16382)"
       gradientUnits="userSpaceOnUse" />
    <radialGradient
       inkscape:collect="always"
       href="#linearGradient3251"
       id="radialGradient3259"
       cx="112.88141"
       cy="50.105999"
       fx="112.88141"
       fy="50.105999"
       r="48.949635"
       gradientTransform="matrix(1,0,0,0.601065,0,19.98904)"
       gradientUnits="userSpaceOnUse" />
    <radialGradient
       inkscape:collect="always"
       href="#linearGradient3271"
       id="radialGradient3277"
       cx="150.22057"
       cy="111.00799"
       fx="150.22057"
       fy="111.00799"
       r="36.034592"
       gradientTransform="matrix(1,0,0,1.011728,0,-1.301861)"
       gradientUnits="userSpaceOnUse" />
    <radialGradient
       inkscape:collect="always"
       href="#linearGradient3251"
       id="radialGradient3295"
       gradientUnits="userSpaceOnUse"
       gradientTransform="matrix(1,0,0,0.814962,47.98499,66.04279)"
       cx="28.60914"
       cy="16.844707"
       fx="28.60914"
       fy="16.844707"
       r="58.128677" />
    <radialGradient
       inkscape:collect="always"
       href="#linearGradient3251"
       id="radialGradient3297"
       gradientUnits="userSpaceOnUse"
       gradientTransform="matrix(1,0,0,0.601065,47.98499,71.86801)"
       cx="81.574501"
       cy="-50.308018"
       fx="81.574501"
       fy="-50.308018"
       r="48.949635" />
    <radialGradient
       inkscape:collect="always"
       href="#linearGradient3271"
       id="radialGradient3299"
       gradientUnits="userSpaceOnUse"
       gradientTransform="matrix(1,0,0,1.011728,47.98499,50.5771)"
       cx="105.74721"
       cy="54.091572"
       fx="105.74721"
       fy="54.091572"
       r="36.034592" />
    <filter
       inkscape:collect="always"
       id="filter3239"
       color-interpolation-filters="sRGB">
      <feGaussianBlur
         inkscape:collect="always"
         stdDeviation="6.9230635"
         id="feGaussianBlur3241" />
    </filter>
  </defs>
  <sodipodi:namedview
     id="base"
     inkscape:zoom="1.545"
     inkscape:cx="452.19642"
     inkscape:cy="181.23052"
     inkscape:window-width="1005"
     inkscape:window-height="842"
     inkscape:window-x="750"
     inkscape:window-y="146"
     showgrid="false"
     inkscape:current-layer="svg548"
     fit-margin-top="0"
     fit-margin-left="0"
     fit-margin-right="0"
     fit-margin-bottom="0"
     inkscape:window-maximized="0" />
  <metadata
     id="metadata2423">
    <rdf:RDF>
      <cc:Work
         rdf:about="">
        <dc:title>Clipart by Nicu Buculei - segmented</dc:title>
        <dc:rights>
          <cc:Agent>
            <dc:title>Nicu Buculei</dc:title>
          </cc:Agent>
        </dc:rights>
        <dc:type
           rdf:resource="http://purl.org/dc/dcmitype/StillImage" />
        <cc:license
           rdf:resource="http://web.resource.org/cc/PublicDomain" />
        <dc:format>image/svg+xml</dc:format>
      </cc:Work>
      <cc:License
         rdf:about="http://web.resource.org/cc/PublicDomain">
        <cc:permits
           rdf:resource="http://web.resource.org/cc/Reproduction" />
        <cc:permits
           rdf:resource="http://web.resource.org/cc/Distribution" />
        <cc:permits
           rdf:resource="http://web.resource.org/cc/DerivativeWorks" />
      </cc:License>
    </rdf:RDF>
  </metadata>
  <g
     id="g3254"
     transform="scale(1.9997218,1.9997218)">
    <g
       inkscape:export-ydpi="90"
       inkscape:export-xdpi="90"
       inkscape:export-filename="/media/KINGSTON/inkscape/8.b/Patrik Flemmer/beruska.png"
       transform="matrix(0.7449,0,0,0.707774,-12.998156,83.557666)"
       id="g3279">
      <path
         inkscape:connector-curvature="0"
         style="fill:none;stroke:#000000;stroke-width:0.92065632px;stroke-linecap:butt;stroke-linejoin:miter;stroke-opacity:1"
         d="m 53.417158,28.624219 -8.779956,4.03547 -5.587246,7.06207 -7.183601,8.878032 -4.389978,11.097538 -0.598634,13.720594 5.188157,14.527688 3.5918,7.263842 -1.197267,2.421282 -2.594078,-1.412413 -4.190434,-2.824829 -3.5918,-2.219508 -3.591801,-0.403546 -1.795901,0 -0.798177,1.81596 2.394533,1.21064 7.183602,3.026607 3.5918,3.026601 4.988612,4.035463 3.392256,3.43015 5.78679,5.24611 5.986334,0.80709 5.587246,1.41242 9.777679,5.04433 9.37859,3.43015 8.979501,3.22838 1.197267,4.03546 -5.78679,5.04434 c 0,0 -7.183601,2.42128 -8.181323,3.22838 -0.997723,0.80709 -3.392256,6.25497 -3.392256,6.25497 l 0.798178,3.22838 2.394533,-0.20178 3.392256,-3.43015 3.392257,-4.84256 6.385423,-4.84256 9.179046,-5.44788 10.974944,-2.82483 10.37632,-3.02661 2.79362,1.61419 2.99317,2.62306 7.38314,8.27272 5.78679,9.68511 2.79363,1.81597 1.59635,-1.41242 -0.59863,-3.63192 c 0,0 -2.59408,-3.63192 -3.39226,-4.23724 -0.79818,-0.60533 -3.99089,-3.83369 -3.99089,-3.83369 l -0.99773,-1.61419 -1.59635,-2.82484 -1.39681,-3.0266 -0.19955,-1.61418 3.5918,0.60532 8.9795,1.81596 8.77997,-0.40355 9.57812,-0.20177 4.38999,1.41241 4.78907,-0.20177 3.59179,-3.83369 3.59181,-5.64966 1.7959,-5.24611 0,-5.85143 -1.19727,-5.24611 2.39453,0 4.19043,2.62305 3.19272,1.41242 1.99544,1.21064 -1.39681,-4.23724 -4.19043,-2.62305 c 0,0 -2.79363,-2.824831 -3.79135,-3.22838 -0.99772,-0.40355 -4.78907,-4.842564 -4.78907,-4.842564 L 166.55888,81.287087 161.76981,65.952305 156.3821,52.635259 148.20079,41.134173 132.03768,29.633087 105.69781,21.965697 84.546096,20.553283 69.97935,22.369243 53.417158,28.624219 z"
         id="path2553" />
      <path
         inkscape:connector-curvature="0"
         style="fill:#ffffff;fill-rule:evenodd;stroke:#000000;stroke-width:0.92065632px;stroke-linecap:butt;stroke-linejoin:miter;stroke-opacity:1"
         d="m 130.64087,110.74601 -0.39909,10.69399 3.99089,1.41241 6.18588,0 3.79134,-1.61418 -0.59863,-2.42128 -3.39225,-3.63192 -2.39454,-2.42129 -3.19271,-2.62305 -3.99089,0.60532 z"
         id="path2555" />
      <path
         inkscape:connector-curvature="0"
         style="fill:#ff0000;fill-rule:evenodd;stroke:#000000;stroke-width:0.92065632px;stroke-linecap:butt;stroke-linejoin:miter;stroke-opacity:1"
         d="m 144.20989,80.479993 -1.7959,4.035468 -12.17221,16.343649 -5.58724,10.29044 -10.37632,8.87804 -13.76857,3.43015 -17.958999,-1.61419 -15.364924,-4.64079 -12.371758,-6.45675 -14.367201,-13.922364 -7.98178,-12.106411 -3.5918,-13.317046 0.598633,-8.070938 4.389979,-11.299312 6.185878,-9.685126 9.378591,-7.869164 7.383146,-4.237242 9.977223,-0.60532 9.977223,0.807094 7.582691,1.008867 15.564469,3.631921 10.176769,5.044336 13.36948,8.676258 6.58496,6.860298 -0.39908,1.81596 -5.18816,4.439016 -0.99772,8.474484 1.59636,7.465618 6.98405,1.614186 7.78224,1.008868 4.38997,0 z"
         id="path2557" />
      <path
         inkscape:connector-curvature="0"
         style="fill:#ff0000;fill-rule:evenodd;stroke:#000000;stroke-width:0.92065632px;stroke-linecap:butt;stroke-linejoin:miter;stroke-opacity:1"
         d="m 149.19851,78.865805 7.18359,0.201774 4.78907,-1.815961 0.19955,-3.833695 -0.79818,-4.035469 -0.79818,-4.640789 c 0,0 -1.19726,-4.64079 -1.7959,-5.447882 -0.59863,-0.807094 -2.79362,-4.237243 -2.79362,-4.237243 l -4.19043,-5.246109 -3.39226,-5.044336 c 0,0 -4.78907,-3.833696 -5.18816,-4.842562 -0.39908,-1.008868 -3.99088,-4.03547 -3.99088,-4.03547 l -2.99317,-2.219508 -3.9909,0.605322 c 0,0 -0.39908,0.403546 -1.99543,1.81596 -1.59636,1.412414 -9.57814,0.201774 -9.57814,0.201774 l -6.78452,-3.833696 -4.38997,-3.833696 -1.99545,-5.044335 -0.39908,-0.605321 c 0,0 -9.977229,-2.017734 -11.374041,-1.81596 -1.396811,0.201774 -12.970391,0.807094 -12.970391,0.807094 l -10.575857,2.017734 -4.389979,2.219508 -2.594077,1.008866 5.786789,0.403548 7.782235,0.201774 8.380868,2.623054 8.580412,2.017734 8.779951,2.824828 8.9795,4.439016 10.37632,6.254976 7.78224,7.465618 1.59635,1.614187 3.99089,0.201773 7.78223,1.614188 5.18816,0.807094 3.59181,3.430148 0.39908,4.439016 -1.59636,6.053202 -2.39453,4.64079 -0.19954,2.623054 z"
         id="path2559" />
      <path
         sodipodi:type="arc"
         style="fill:#000000;fill-opacity:1"
         id="path2561"
         sodipodi:cx="86.852562"
         sodipodi:cy="57.320515"
         sodipodi:rx="16.237179"
         sodipodi:ry="13.076923"
         d="m 103.08974,57.320515 c 0,7.222185 -7.269632,13.076923 -16.237178,13.076923 -8.967546,0 -16.237179,-5.854738 -16.237179,-13.076923 0,-7.222186 7.269633,-13.076924 16.237179,-13.076924 8.967546,0 16.237178,5.854738 16.237178,13.076924 z"
         transform="matrix(0.915557,0,0,0.925784,9.118285,3.200767)" />
      <path
         sodipodi:type="arc"
         style="fill:#000000;fill-opacity:1"
         id="path2563"
         sodipodi:cx="47.839745"
         sodipodi:cy="64.730766"
         sodipodi:rx="12.967949"
         sodipodi:ry="13.948718"
         d="m 60.807693,64.730766 c 0,7.703665 -5.805948,13.948718 -12.967948,13.948718 -7.162001,0 -12.967949,-6.245053 -12.967949,-13.948718 0,-7.703664 5.805948,-13.948718 12.967949,-13.948718 7.162,0 12.967948,6.245054 12.967948,13.948718 z"
         transform="matrix(0.915557,0,0,0.925784,4.728306,1.183033)" />
      <path
         sodipodi:type="arc"
         style="fill:#000000;fill-opacity:1"
         id="path2565"
         sodipodi:cx="88.596153"
         sodipodi:cy="110.60897"
         sodipodi:rx="15.583333"
         sodipodi:ry="12.532051"
         d="m 104.17949,110.60897 c 0,6.92126 -6.9769,12.53205 -15.583337,12.53205 -8.606437,0 -15.583333,-5.61079 -15.583333,-12.53205 0,-6.92126 6.976896,-12.53205 15.583333,-12.53205 8.606437,0 15.583337,5.61079 15.583337,12.53205 z"
         transform="matrix(0.915557,0,0,0.925784,9.118285,3.200767)" />
      <path
         inkscape:connector-curvature="0"
         style="fill:#000000;fill-opacity:1"
         d="m 129.89258,57.730038 0.51134,-2.068178 -6.75644,-6.81924 -6.82699,-4.536433 -8.65822,-5.629706 -4.46778,-2.174333 -4.118575,-1.922118 -6.96209,-1.468127 -8.437734,-2.119939 -18.789104,-1.489397 -8.550979,0.35908 7.66201,-2.919738 2.872943,0.863513 10.505518,0.20775 14.983799,3.756712 14.114792,5.11473 4.13758,2.365569 9.67493,5.013843 11.37482,10.943844 4.75166,0.30266 12.23456,2.522168 3.69157,3.316651 0.64852,4.678621 -2.04533,5.939706 -2.24487,4.224632 -0.36168,3.127488 -4.05325,0.756651 -4.50221,0.05044 -8.14391,-1.008868 -6.98406,-1.399803 -1.54647,-6.898129 1.0975,-9.01675 5.18815,-4.073302 z"
         id="rect2572"
         sodipodi:nodetypes="ccccccccccccccccccccccccccccccccc" />
      <path
         inkscape:connector-curvature="0"
         style="fill:#000000;fill-opacity:1"
         d="m 144.64411,79.829787 4.55045,-1.070065 7.16079,0.356688 5.11485,-1.926117 2.85726,-2.639494 7.61936,18.47646 3.17473,3.638226 5.20303,4.119755 5.12808,3.50892 0.47179,1.29745 0.3307,1.22612 -0.65698,0.86943 -7.84864,-5.15415 -3.26293,-0.23185 1.34045,5.42166 -0.0353,6.49173 -3.06891,7.13377 -5.67924,7.06243 -4.83265,0.0713 -4.21533,-1.48027 -19.10133,0.73122 -12.37704,-2.54586 4.48113,10.04816 5.22981,4.563 2.3657,3.53056 0.0376,2.95986 -0.87959,1.17642 -2.78442,-1.53441 -2.67177,-4.56823 -3.23614,-5.56694 -1.65668,-1.7939 -5.25471,-5.71746 -6.55615,-4.82143 -1.40603,-3.18066 10.8696,-9.17302 4.94343,-9.24436 0.35772,8.59005 -0.41836,11.22956 4.52015,1.4563 6.10695,-0.26307 4.13156,-1.33312 -0.82895,-3.19236 -9.22437,-8.43568 -4.28589,0.7669 -0.47621,-9.00639 3.40402,-4.298103 9.45365,-12.698106 1.90484,-4.850964 z"
         id="rect2575"
         sodipodi:nodetypes="cccccccccccccccccccccccccccccccccccccccccccccccc" />
      <path
         inkscape:connector-curvature="0"
         style="fill:#000000;fill-opacity:1"
         d="m 110.437,23.806879 4.81401,1.33675 6.70968,1.992512 10.05205,2.925716 5.61219,3.909359 10.46362,7.511332 9.19151,12.883549 0.34531,1.295468 0.3453,1.295469 4.71035,12.317343 1.55173,5.834803 -2.82841,2.400358 0.21465,-4.106836 -1.51627,-8.9451 -1.44144,-4.581749 -6.02687,-8.336948 -2.60967,-3.897931 -3.83187,-3.87271 -5.62466,-6.486701 -5.06344,-4.029164 -4.04078,0.737734 -3.19271,2.705025 -8.13144,-0.731428 -3.31742,-1.866404 -3.44214,-1.891627 -3.26754,-2.623054 -1.14739,-1.368277 -1.14737,-3.032907 -1.22222,-2.553694 3.84124,1.179112 z"
         id="rect2578"
         sodipodi:nodetypes="cccccccccccccccccccccccccccccc" />
      <path
         inkscape:connector-curvature="0"
         style="fill:#000000;fill-opacity:1"
         d="m 36.094482,95.262251 -2.373934,-4.944128 -2.071401,-3.680228 -2.179186,-7.272349 -2.179187,-5.916934 0.09604,-3.009923 0.536973,-10.874903 4.190847,-10.877973 12.820681,-15.671741 14.22855,-6.584182 10.585643,-3.607831 14.360049,-2.252416 3.519463,0.676388 -4.55847,0.355369 -1.489561,0.03435 -0.889889,0.319699 -15.870466,4.881353 -8.065133,3.082075 -7.39491,4.152139 -9.473002,7.976701 -6.298268,10.1525 -1.118012,2.390836 -3.44615,8.615049 -0.574183,8.297099 2.212528,8.065252 1.471756,5.39009 3.534026,5.312159 3.118769,4.497372 0.39909,0.882758 0.89795,1.311533 1.109966,1.134974 6.061163,5.826211 2.419477,2.30778 1.696128,1.62679 1.396811,1.5007 1.795901,1.62679 6.135992,3.19055 6.510139,3.32926 11.957079,3.66345 3.451496,0.96473 17.768813,1.72138 14.07646,-3.45379 1.05617,1.69143 0.10835,1.23743 -22.190741,6.48355 -10.193138,6.53399 -4.605892,3.00296 -3.620835,5.74463 -3.249857,2.50808 -1.952817,0.4399 -0.955095,-2.78848 1.140122,-2.23359 2.315613,-4.09182 8.052516,-3.18384 6.219395,-5.21931 -1.512173,-4.20573 -8.072197,-3.12118 -10.516618,-3.82738 -9.328705,-4.7669 -1.746013,-0.5801 -1.621299,-0.22699 -3.34237,-0.8071 -5.113327,-0.78187 -2.494306,-2.06817 -6.305884,-6.25483 -8.677604,-7.288004 -2.998359,-1.349148 -6.543478,-2.691427 0.335111,-0.836648 0.141099,-0.676138 5.150122,0.572271 4.127154,2.503092 4.462263,2.913283 2.116489,1.183346 1.446268,-2.954246 z"
         id="rect2581"
         sodipodi:nodetypes="ccccccccccccccccccccccccccccccccccccccccccccccccccccccccccccccccccccccccccc" />
      <path
         inkscape:connector-curvature="0"
         id="path3247"
         d="m 144.20989,80.479993 -1.7959,4.035468 -12.17221,16.343649 -5.58724,10.29044 -10.37632,8.87804 -13.76857,3.43015 -17.958999,-1.61419 -15.364924,-4.64079 -12.371758,-6.45675 -14.367201,-13.922364 -7.98178,-12.106411 -3.5918,-13.317046 0.598633,-8.070938 4.389979,-11.299312 6.185878,-9.685126 9.378591,-7.869164 7.383146,-4.237242 9.977223,-0.60532 9.977223,0.807094 7.582691,1.008867 15.564469,3.631921 10.176769,5.044336 13.36948,8.676258 6.58496,6.860298 -0.39908,1.81596 -5.18816,4.439016 -0.99772,8.474484 1.59636,7.465618 6.98405,1.614186 7.78224,1.008868 4.38997,0 z"
         style="opacity:0.63551402;fill:url(#radialGradient3295);fill-opacity:1;fill-rule:evenodd;stroke:#000000;stroke-width:0.92065632px;stroke-linecap:butt;stroke-linejoin:miter;stroke-opacity:1" />
      <path
         inkscape:connector-curvature="0"
         id="path3249"
         d="m 149.19851,78.865805 7.18359,0.201774 4.78907,-1.815961 0.19955,-3.833695 -0.79818,-4.035469 -0.79818,-4.640789 c 0,0 -1.19726,-4.64079 -1.7959,-5.447882 -0.59863,-0.807094 -2.79362,-4.237243 -2.79362,-4.237243 l -4.19043,-5.246109 -3.39226,-5.044336 c 0,0 -4.78907,-3.833696 -5.18816,-4.842562 -0.39908,-1.008868 -3.99088,-4.03547 -3.99088,-4.03547 l -2.99317,-2.219508 -3.9909,0.605322 c 0,0 -0.39908,0.403546 -1.99543,1.81596 -1.59636,1.412414 -9.57814,0.201774 -9.57814,0.201774 l -6.78452,-3.833696 -4.38997,-3.833696 -1.99545,-5.044335 -0.39908,-0.605321 c 0,0 -9.977229,-2.017734 -11.374041,-1.81596 -1.396811,0.201774 -12.970391,0.807094 -12.970391,0.807094 l -10.575857,2.017734 -4.389979,2.219508 -2.594077,1.008866 5.786789,0.403548 7.782235,0.201774 8.380868,2.623054 8.580412,2.017734 8.779951,2.824828 8.9795,4.439016 10.37632,6.254976 7.78224,7.465618 1.59635,1.614187 3.99089,0.201773 7.78223,1.614188 5.18816,0.807094 3.59181,3.430148 0.39908,4.439016 -1.59636,6.053202 -2.39453,4.64079 -0.19954,2.623054 z"
         style="opacity:0.63551402;fill:url(#radialGradient3297);fill-opacity:1;fill-rule:evenodd;stroke:#000000;stroke-width:0.92065632px;stroke-linecap:butt;stroke-linejoin:miter;stroke-opacity:1" />
      <path
         inkscape:connector-curvature="0"
         sodipodi:nodetypes="cccccccccccccccccccccccccccccccccccccccccccccccc"
         id="path3269"
         d="m 144.64411,79.829787 4.55045,-1.070065 7.16079,0.356688 5.11485,-1.926117 2.85726,-2.639494 7.61936,18.47646 3.17473,3.638226 5.20303,4.119755 5.12808,3.50892 0.47179,1.29745 0.3307,1.22612 -0.65698,0.86943 -7.84864,-5.15415 -3.26293,-0.23185 1.34045,5.42166 -0.0353,6.49173 -3.06891,7.13377 -5.67924,7.06243 -4.83265,0.0713 -4.21533,-1.48027 -19.10133,0.73122 -12.37704,-2.54586 4.48113,10.04816 5.22981,4.563 2.3657,3.53056 0.0376,2.95986 -0.87959,1.17642 -2.78442,-1.53441 -2.67177,-4.56823 -3.23614,-5.56694 -1.65668,-1.7939 -5.25471,-5.71746 -6.55615,-4.82143 -1.40603,-3.18066 10.8696,-9.17302 4.94343,-9.24436 0.35772,8.59005 -0.41836,11.22956 4.52015,1.4563 6.10695,-0.26307 4.13156,-1.33312 -0.82895,-3.19236 -9.22437,-8.43568 -4.28589,0.7669 -0.47621,-9.00639 3.40402,-4.298103 9.45365,-12.698106 1.90484,-4.850964 z"
         style="opacity:0.37850467;fill:url(#radialGradient3299);fill-opacity:1" />
    </g>
    <g
       transform="matrix(1.1150055,0,0,0.59173753,-36.352211,-90.712944)"
       id="g3154">
      <g
         id="g3126"
         transform="matrix(0.51986258,0,0,0.51986258,94.040849,145.92429)">
        <path
           style="font-size:12px;fill:#000000;fill-opacity:0.49803922;fill-rule:evenodd;stroke-width:2.5;filter:url(#filter3239)"
           d="M 257.44008,30.840615 C 148.26068,32.594977 51.959695,93.437371 31.514119,179.74687 8.1572899,278.34599 92.595869,373.02219 220.01919,391.15312 c 0.0268,0.15189 -0.0183,0.37662 -0.0305,0.59375 l -0.73076,0.0312 -99.29172,92.34375 204.00323,-95.84375 -2.00958,0.0625 1.30927,-1 2.92303,-0.0937 -2.22272,1.03125 2.80124,-0.0937 0,-0.96875 0.0304,0 C 415.07407,367.77053 476.9617,315.08459 493.50531,245.24687 516.87169,146.60745 432.32807,51.885091 304.81755,33.809365 288.87873,31.549899 273.03714,30.589992 257.44008,30.840615 z"
           id="path780"
           inkscape:connector-curvature="0" />
        <path
           style="font-size:12px;fill:#ffffff;fill-rule:evenodd;stroke:#000000;stroke-width:10;stroke-linejoin:round;stroke-dasharray:none"
           d="M 241.67401,22.75 C 132.4946,24.504362 36.193614,85.346756 15.748037,171.65625 -7.6087911,270.25537 76.829788,364.93157 204.25312,383.0625 c 0.0268,0.15189 -0.0183,0.37663 -0.0305,0.59375 l -0.73076,0.0312 -99.29172,92.34375 204.00323,-95.84375 -2.00958,0.0625 1.30927,-1 2.92303,-0.0937 -2.22272,1.03125 2.80124,-0.0937 0,-0.96875 0.0304,0 C 399.30799,359.67991 461.19562,306.99397 477.73924,237.15625 501.10561,138.51683 416.56199,43.794476 289.05147,25.71875 273.11266,23.459284 257.27106,22.499377 241.67401,22.75 z"
           id="path779"
           inkscape:connector-curvature="0" />
      </g>
    </g>
    <text
       sodipodi:linespacing="125%"
       style="font-size:40px;font-style:normal;font-variant:normal;font-weight:normal;font-stretch:normal;text-align:start;line-height:125%;writing-mode:lr-tb;text-anchor:start;fill:#000000;stroke:#000000;font-family:SchoolHouse Cursive B;-inkscape-font-specification:SchoolHouse Cursive B"
       font-size="40"
       y="70.550163"
       x="88.673134"
       id="flowRoot3130"
       xml:space="preserve">CritiSearch</text>
  </g>
</svg>
