<?xml version="1.0" encoding="UTF-8" standalone="no"?>
<!-- Created with Inkscape (http://www.inkscape.org/) -->

<svg
   xmlns:dc="http://purl.org/dc/elements/1.1/"
   xmlns:cc="http://creativecommons.org/ns#"
   xmlns:rdf="http://www.w3.org/1999/02/22-rdf-syntax-ns#"
   xmlns:svg="http://www.w3.org/2000/svg"
   xmlns="http://www.w3.org/2000/svg"
   xmlns:sodipodi="http://sodipodi.sourceforge.net/DTD/sodipodi-0.dtd"
   xmlns:inkscape="http://www.inkscape.org/namespaces/inkscape"
   width="349.85248"
   height="422.65555"
   id="svg2"
   version="1.1"
   inkscape:version="0.47 r22583"
   sodipodi:docname="Novo documento 1">
  <defs
     id="defs4">
    <inkscape:perspective
       sodipodi:type="inkscape:persp3d"
       inkscape:vp_x="0 : 526.18109 : 1"
       inkscape:vp_y="0 : 1000 : 0"
       inkscape:vp_z="744.09448 : 526.18109 : 1"
       inkscape:persp3d-origin="372.04724 : 350.78739 : 1"
       id="perspective10" />
    <inkscape:perspective
       id="perspective2824"
       inkscape:persp3d-origin="0.5 : 0.33333333 : 1"
       inkscape:vp_z="1 : 0.5 : 1"
       inkscape:vp_y="0 : 1000 : 0"
       inkscape:vp_x="0 : 0.5 : 1"
       sodipodi:type="inkscape:persp3d" />
  </defs>
  <sodipodi:namedview
     id="base"
     pagecolor="#ffffff"
     bordercolor="#666666"
     borderopacity="1.0"
     inkscape:pageopacity="0.0"
     inkscape:pageshadow="2"
     inkscape:zoom="1.4"
     inkscape:cx="158.44545"
     inkscape:cy="216.27354"
     inkscape:document-units="px"
     inkscape:current-layer="layer1"
     showgrid="false"
     inkscape:window-width="1600"
     inkscape:window-height="838"
     inkscape:window-x="-8"
     inkscape:window-y="-8"
     inkscape:window-maximized="1" />
  <metadata
     id="metadata7">
    <rdf:RDF>
      <cc:Work
         rdf:about="">
        <dc:format>image/svg+xml</dc:format>
        <dc:type
           rdf:resource="http://purl.org/dc/dcmitype/StillImage" />
        <dc:title></dc:title>
      </cc:Work>
    </rdf:RDF>
  </metadata>
  <g
     inkscape:label="Camada 1"
     inkscape:groupmode="layer"
     id="layer1"
     transform="translate(404.65535,-518.36106)">
    <path
       style="fill:#000000;fill-opacity:1;stroke:#000000;stroke-width:1.25973046px;stroke-linecap:butt;stroke-linejoin:miter;stroke-opacity:1"
       d="m -235.9125,791.54401 c 0.27836,10.07195 2.24951,30.14355 2.24951,30.14355 0.79523,10.65605 1.63229,21.31091 2.69943,31.94316 0.64834,6.45962 2.24952,19.34587 2.24952,19.34587 0.3533,3.03828 0.67076,6.15525 1.79962,8.99807 0.52214,1.31492 2.24951,3.59924 2.24951,3.59924 1.68092,2.68948 1.04995,6.2773 1.12476,9.44797 0.0745,3.15647 -0.67486,9.44798 -0.67486,9.44798 -0.12207,1.70883 -1.50218,3.09239 -2.02456,4.72399 -1.28711,4.02012 -2.52959,8.15464 -2.69943,12.37236 -0.11262,2.79735 1.12476,8.32321 1.12476,8.32321 0.17766,1.31466 1.69812,2.05417 2.69943,2.92438 0.89489,0.7777 1.8186,1.59688 2.92438,2.02456 1.05831,0.40932 2.24463,0.55708 3.37427,0.4499 0.70819,-0.0671 1.44106,-0.26798 2.02457,-0.67485 0.39384,-0.27462 0.89981,-1.12476 0.89981,-1.12476 0.56406,-0.70507 1.09846,1.45565 1.79961,2.02456 0.93889,0.76181 3.14933,1.79963 3.14933,1.79963 1.20046,0.68598 2.66699,0.8628 4.04912,0.8998 0.9119,0.0244 2.69943,-0.4499 2.69943,-0.4499 0.53846,-0.0897 1.0594,-0.26964 1.57466,-0.4499 0.92011,-0.3219 2.69943,-1.12477 2.69943,-1.12477 1.02896,-0.42873 1.37127,1.78798 2.24951,2.47447 0.87227,0.68181 2.92438,1.57466 2.92438,1.57466 1.0666,0.57432 2.39153,-0.64138 3.37427,-1.3497 1.03591,-0.74663 2.47448,-2.92438 2.47448,-2.92438 1.21185,-1.43218 -0.12869,-3.78133 0.22495,-5.6238 0.25482,-1.32755 1.41722,-2.47407 1.34971,-3.82417 0,0 0.22185,-3.06551 -0.22495,-4.49904 -0.55107,-1.76809 -1.97154,-3.13594 -2.92437,-4.72399 0,0 -2.95295,-4.3652 -4.04914,-6.74856 -1.18899,-2.58511 -2.01873,-5.33544 -2.69941,-8.09827 -0.78148,-3.1719 -1.14539,-6.4345 -1.57467,-9.67293 -0.77262,-5.82845 -1.79962,-17.54625 -1.79962,-17.54625 -0.69064,-6.73361 -1.25568,-13.48425 -1.57467,-20.24566 -0.4241,-8.98933 -0.4499,-26.99423 -0.4499,-26.99423 -0.0612,-3.67447 0.0692,-7.35096 0.22495,-11.02264 0.0988,-2.32724 0.12132,-4.66746 0.44992,-6.9735 0.29258,-2.05321 1.3497,-6.0737 1.3497,-6.0737 0.41661,-1.8748 2.33437,-3.05387 3.59924,-4.49904 1.5718,-1.79587 4.94893,-5.17389 4.94893,-5.17389 1.69225,-1.76917 3.61559,-3.3237 5.62379,-4.72399 1.48767,-1.03734 4.72399,-2.69943 4.72399,-2.69943 1.0437,-0.5964 2.40126,-0.12559 3.59924,-0.22495 2.17866,-0.18069 6.5236,-0.67486 6.5236,-0.67486 1.94497,-0.2012 4.37645,-0.83683 5.84876,0.44991 0.80839,0.7065 0.67485,3.14933 0.67485,3.14933 l 0.89981,9.89788 c 0.32762,3.60384 0.75725,7.1977 1.12475,10.79769 0.38264,3.74842 1.12476,11.24759 1.12476,11.24759 0.43589,4.35888 1.18588,8.68386 1.57467,13.04721 0.34662,3.89023 0.67485,11.6975 0.67485,11.6975 0.12963,2.24703 0.18746,4.49809 0.22496,6.74855 0.0237,1.42451 0,4.27409 0,4.27409 0,1.16407 0.47479,2.29058 0.8998,3.37428 0.52662,1.34277 2.02456,3.82417 2.02456,3.82417 0.98486,1.86029 0.20163,4.20845 0.44991,6.29866 0.26901,2.26463 -0.0294,4.78158 1.12475,6.74856 0.97189,1.65646 4.49904,3.59923 4.49904,3.59923 0.98152,0.78521 0.73239,2.40507 1.12477,3.59922 0.71804,2.18524 2.24951,6.52361 2.24951,6.52361 0.65817,1.90871 1.97072,3.5346 3.14933,5.1739 1.08727,1.51227 3.59924,4.27407 3.59924,4.27407 0.84352,1.00168 2.30456,1.37783 3.59922,1.57467 1.3426,0.20411 3.14934,-0.22495 4.04914,-0.4499 0.89981,-0.22495 3.03333,-0.81836 3.82418,-2.02457 0.53606,-0.8176 -0.65411,-2.49647 0.22495,-2.92437 0.72927,-0.35499 2.02457,1.34971 2.02457,1.34971 2.27104,1.51402 4.96429,2.42874 7.64836,2.92438 1.69596,0.31317 3.55227,0.58711 5.1739,0 1.10133,-0.39875 2.07673,-1.25748 2.69941,-2.24953 0.32872,-0.52372 0.47364,-1.18174 0.44991,-1.79961 -0.0364,-0.94779 -0.89981,-2.69943 -0.89981,-2.69943 -0.1852,-0.55559 1.0055,-0.65094 1.34971,-1.12475 0.47468,-0.65338 0.89982,-2.24952 0.89982,-2.24952 0.30633,-0.76583 0.26083,-1.69197 0,-2.47447 -0.35569,-1.06704 -2.02458,-2.69942 -2.02458,-2.69942 -2.23508,-2.9801 -5.60887,-4.90998 -8.54817,-7.19847 -2.33161,-1.81536 -7.19846,-5.17389 -7.19846,-5.17389 -1.63833,-1.17754 -3.30859,-2.42014 -4.49904,-4.04914 -1.50489,-2.05928 -3.14933,-6.9735 -3.14933,-6.9735 -1.19249,-2.64055 -1.33784,-5.66052 -1.57466,-8.54816 -0.66202,-8.07256 0.44991,-24.29481 0.44991,-24.29481 0.0918,-4.95717 0.23208,-9.93397 0.8998,-14.84682 0.48525,-3.57032 1.62336,-7.02443 2.24953,-10.57274 0,0 0.87878,-5.10272 1.34971,-7.64837 0.43069,-2.32813 1.0286,-4.62774 1.3497,-6.9735 0.37752,-2.75779 0.10255,-5.59917 0.67487,-8.32323 0.42416,-2.01901 2.02456,-5.84874 2.02456,-5.84874 1.02226,-2.95321 2.9205,-5.54605 4.72399,-8.09828 1.47382,-2.08568 4.94894,-5.84873 4.94894,-5.84873 2.00231,-2.36638 3.69612,-5.03793 4.94894,-7.87332 1.13229,-2.56262 2.24952,-8.09827 2.24952,-8.09827 1.18476,-4.2651 -0.3749,-8.8462 -0.4499,-13.27216 -0.11306,-6.67262 0,-20.02072 0,-20.02072 0,-4.86934 2.01207,-9.54959 2.47447,-14.39692 0.3561,-3.733 0.27241,-7.49794 0.22495,-11.24759 0,0 -0.63255,-11.86103 -0.22495,-17.77119 0.17219,-2.49679 0.54907,-4.98782 1.12476,-7.42342 0,0 2.03416,-8.22915 2.92438,-12.37235 0.49736,-2.31481 1.34971,-6.97351 1.34971,-6.97351 0,0 0.29215,-2.7003 0.4499,-4.04914 0.50022,-4.27703 1.14042,-8.53801 1.57466,-12.82225 0.37928,-3.742 0.55794,-7.50198 0.8998,-11.24759 0.267202,-2.92755 -0.007,-5.97669 0.899816,-8.77313 0.507685,-1.566 1.224562,-3.20273 2.474476,-4.27408 0,0 3.017945,-2.86985 4.723989,-4.04913 2.953666,-2.04169 6.299162,-3.44833 9.447978,-5.17389 2.324878,-1.27404 4.684188,-2.4873 6.973502,-3.82419 2.210107,-1.29063 4.569824,-2.39593 6.523603,-4.04913 0,0 4.249845,-2.95753 5.848752,-4.94894 1.007963,-1.2554 1.684213,-2.76662 2.249513,-4.27409 l 2.699426,-7.19846 c 0.496767,-1.32471 1.764052,-2.27033 2.249513,-3.59923 0.363868,-0.99605 0.53676,-2.09245 0.449913,-3.14932 -0.122358,-1.48903 -1.284586,-2.78146 -1.349713,-4.27409 -0.09041,-2.07198 1.349713,-6.07369 1.349713,-6.07369 0.360071,-1.62032 -0.781449,-3.26596 -1.574663,-4.72399 -0.229449,-0.42176 -0.899813,-1.12477 -0.899813,-1.12477 -1.264739,-1.58092 0.434317,-4.09626 0,-6.0737 -0.230314,-1.04861 -1.349713,-2.92437 -1.349713,-2.92437 -0.311069,-0.67398 -0.900746,-1.26346 -1.574663,-1.57467 -1.707333,-0.78842 -5.623789,-0.4499 -5.623789,-0.4499 -3.525724,-0.28205 -7.052649,0.55451 -10.572742,0.8998 -2.70306,0.26515 -8.098265,0.89982 -8.098265,0.89982 -2.921737,0.32464 -5.905953,0.25077 -8.773128,0.89981 -2.174418,0.49221 -4.10193,1.86901 -6.298655,2.24951 -0.51718,0.0896 -1.20351,0.37116 -1.57466,0 -0.79532,-0.79533 0,-3.37427 0,-3.37427 0,0 -0.14722,-2.4985 -0.67485,-3.59923 -0.89647,-1.8702 -4.04914,-4.72399 -4.04914,-4.72399 -1.14235,-1.33274 -3.20982,-1.56164 -4.94894,-1.79962 -1.93729,-0.26511 -5.84875,0.44991 -5.84875,0.44991 -1.12145,0.0863 -2.27622,0.2436 -3.37428,0 -3.63523,-0.80648 -10.12283,-4.72399 -10.12283,-4.72399 -4.70619,-2.19623 -10.32858,-1.29178 -15.52168,-1.34971 -6.98757,-0.078 -14.04132,0.12131 -20.92052,1.34971 -2.84934,0.50879 -8.32322,2.47446 -8.32322,2.47446 -1.2716,0.37805 -1.96022,1.82281 -2.69942,2.92438 -0.69162,1.03066 -0.60496,2.5995 -1.57466,3.37427 -1.37886,1.10168 -3.47945,0.63104 -5.1739,1.12477 -1.45769,0.42473 -4.27408,1.57466 -4.27408,1.57466 -1.84151,0.67845 -2.63959,2.90857 -4.04914,4.27409 -1.94555,1.88476 -6.0737,5.39884 -6.0737,5.39884 -1.91289,1.70035 -2.77859,4.81442 -4.04913,6.5236 -1.27052,1.70918 -2.66905,2.27737 -3.37429,3.82419 -0.94144,2.06494 0.10557,4.714 -0.8998,6.74855 -0.42281,0.85562 -1.58163,1.17919 -2.02456,2.02457 -0.77816,1.48518 -0.89981,4.94893 -0.89981,4.94893 -0.48289,2.65589 -0.56038,5.45766 0,8.09828 0.30662,1.44484 1.79961,4.04913 1.79961,4.04913 0.58579,1.31803 1.28616,2.58519 2.02456,3.82419 0.41524,0.69673 1.21622,1.22454 1.34972,2.02456 0.24247,1.45311 -1.12475,4.27409 -1.12475,4.27409 -1.4583,5.54159 -0.77782,11.4579 -1.79963,17.09633 -0.7459,4.11597 -3.14932,12.14741 -3.14932,12.14741 -0.74564,2.87602 -4.00844,4.49211 -6.52361,6.0737 -1.56776,0.98584 -5.17389,2.02456 -5.17389,2.02456 -1.96637,0.76946 -5.17389,0.22495 -6.29865,0.67486 -1.12476,0.4499 -5.29153,-0.15268 -7.87331,-0.67486 -2.85879,-0.5782 -5.58877,-1.68465 -8.32322,-2.69941 -2.36315,-0.87698 -6.97351,-2.92438 -6.97351,-2.92438 -3.5449,-1.48657 -7.04869,-3.19994 -10.7977,-4.04914 -3.37673,-0.76487 -6.88552,-0.8901 -10.34777,-0.8998 l -40.15391,-0.11249 c -7.16922,-0.02 -14.3582,1.10846 -21.4829,0.78733 -1.14375,-0.0515 -4.72399,-1.79961 -7.64837,-2.92438 -2.92437,-1.12476 -4.46581,-2.60994 -6.74855,-3.82417 l -10.57274,-5.62379 c 0,0 0,0 0,0 0,0 -5.96168,-2.21206 -8.99808,-3.14933 -3.04147,-0.93883 -6.29865,-2.24951 -9.22303,-2.47446 -2.92437,-0.22496 -13.81735,-1.12476 -10.34778,-1.12476 1.18193,0 -4.22286,-0.18944 -6.5236,0.22495 -1.72753,0.31114 -4.94895,1.79961 -4.94895,1.79961 -1.34631,0.48957 -2.5767,1.61123 -3.14933,2.92437 -0.50953,1.16847 -0.26986,2.57835 0,3.82418 0.19181,0.8855 0.62256,1.72035 1.12477,2.47448 0.79404,1.19236 1.71991,2.37376 2.92437,3.14932 2.19302,1.41211 4.96691,1.59759 7.42342,2.47448 3.17395,1.13299 6.14101,3.73451 9.44798,3.59922 3.37905,-0.13824 4.75086,0.54802 7.19845,2.69943 1.68762,1.4834 5.39885,4.04913 5.39885,4.04913 2.21223,1.65916 4.33636,3.45047 6.29865,5.39885 1.62182,1.61031 4.49904,5.17389 4.49904,5.17389 2.25368,2.59173 5.31813,4.41067 8.32322,6.0737 2.82645,1.56418 8.99807,3.59923 8.99807,3.59923 1.99364,0.79744 3.82592,1.97921 5.84874,2.69942 1.27643,0.45446 3.93666,1.01227 3.93666,1.01227 5.30733,1.36474 -0.94665,10.50998 -2.13704,15.85911 -1.00435,4.51314 -2.02457,13.72207 -2.02457,13.72207 -0.66986,4.54021 -1.1167,9.13272 -1.12476,13.72207 -0.006,3.83592 0.32093,7.68055 0.89981,11.47254 0.40628,2.66129 1.66459,5.18458 1.79962,7.87331 0.0606,1.20756 -0.4499,3.59923 -0.4499,3.59923 -0.35925,2.874 -2.92438,7.19847 -3.14933,8.09828 -0.22495,0.8998 -2.89182,5.52248 -3.14932,8.54816 0,0 -0.74971,7.03895 -0.89982,10.57275 -0.30548,7.19197 0,21.59537 0,21.59537 0,2.41001 -0.4499,6.29865 -0.67485,7.19846 -0.22495,0.89981 -1.57466,7.19847 -1.79961,8.09827 -0.22495,0.89981 -1.79961,8.54817 -2.02458,9.89787 -0.22495,1.34972 -2.72665,7.03819 -4.04912,10.57275 -1.45474,3.88805 -2.54843,7.92187 -4.27409,11.6975 -0.96276,2.10643 -3.37428,6.0737 -3.37428,6.0737 -1.30284,2.3451 -2.37167,4.81308 -3.59922,7.19845 -0.66,1.2825 -1.78465,2.40194 -2.02458,3.82419 -0.16406,0.97252 0.44991,2.92437 0.44991,2.92437 0.19684,1.27937 -0.17072,2.84412 0.67485,3.82419 0.3098,0.35907 1.34972,0.4499 1.34972,0.4499 0.57351,0.19116 1.05178,-1.20324 1.57466,-0.8998 0.38912,0.22581 -0.0669,0.9048 0,1.3497 0.15166,1.00855 0.47222,1.99844 0.89981,2.92437 0.40989,0.88761 0.73017,1.98186 1.57466,2.47448 0,0 1.69381,1.3028 2.69942,1.57466 0.79624,0.21526 2.1056,0.73775 2.47447,0 0,0 0.23415,-1.71767 0.8998,-1.79961 0.68614,-0.0844 0.70002,1.33841 1.34972,1.57466 0,0 1.65565,0.83771 2.47447,0.8998 0.81883,0.0621 2.02463,0.28097 2.24952,-0.4499 0,0 0.0183,-2.41159 0.89981,-2.92438 0.59758,-0.34758 1.33325,0.4499 2.02456,0.4499 0,0 0.92127,0.1373 1.34972,0 0.61426,-0.19684 1.2795,-0.5512 1.57466,-1.12475 0.48036,-0.93342 -0.893,-2.59742 0,-3.14932 0.5705,-0.3526 1.79961,0.8998 1.79961,0.8998 0.91222,0.45611 2.19487,-0.18706 2.92438,-0.8998 1.18724,-1.15996 1.25779,-3.09468 1.57466,-4.72399 0.22949,-1.17998 0.22495,-3.59924 0.22495,-3.59924 0,0 -0.40917,-11.84986 -0.22495,-17.77119 0.0936,-3.00634 0.67485,-8.99808 0.67485,-8.99808 0.50608,-6.74791 2.47319,-13.33926 4.49904,-19.79576 1.01714,-3.2417 3.82419,-9.44798 3.82419,-9.44798 1.29108,-3.18972 0.65662,-6.96531 2.02456,-10.12284 1.02569,-2.36751 4.49904,-6.29865 4.49904,-6.29865 2.26047,-3.16466 4.21238,-6.54514 6.5236,-9.67293 1.48934,-2.01552 4.72399,-5.84875 4.72399,-5.84875 1.07542,-1.33147 1.78864,-2.93091 2.47448,-4.49903 0.66512,-1.52074 0.92503,-3.19655 1.57466,-4.72399 0.69573,-1.63581 1.1388,-3.551 2.47446,-4.72398 1.14084,-1.00188 4.27409,-1.57467 4.27409,-1.57467 2.05978,-0.75886 4.47116,0.12131 6.52361,0.8998 1.76949,0.67117 4.72398,3.14933 4.72398,3.14933 1.54472,1.0298 3.32064,2.26221 3.82418,4.04914 0.39489,1.40135 -0.3725,2.91699 -0.8998,4.27407 -0.69397,1.78605 -2.92438,4.94896 -2.92438,4.94896 -1.12709,1.90739 -2.23949,3.90643 -2.69942,6.07369 -0.28019,1.32031 0,4.04913 0,4.04913 0,3.29419 1.02164,6.53515 2.02457,9.67293 0.7974,2.49475 2.25315,4.73748 3.14933,7.19847 0.90931,2.49702 2.24951,7.64836 2.24951,7.64836 0.71937,2.44586 0,6.52359 0,7.64836 0,1.12475 -0.12421,6.05035 0.4499,8.99807 0.34906,1.79231 0.47254,3.91969 1.79962,5.17391 0.79348,0.74991 3.14932,0.8998 3.14932,0.8998 0.88009,0.25145 1.3367,-1.50742 2.24953,-1.57467 0.66887,-0.0492 1.79961,0.89982 1.79961,0.89982 1.14212,0.57106 1.72535,2.03525 2.92438,2.47446 1.61939,0.59319 3.44925,0 5.17389,0 0.74984,0 2.24952,0 2.24952,0 0.87446,0 1.81868,-0.58876 2.24952,-1.34971 0.18472,-0.32626 0,-1.12475 0,-1.12475 0,-1.0199 1.79962,0.8998 2.47447,1.79961 0.67487,0.8998 3.44343,2.16037 4.94894,1.34971 l 2.92438,-1.57466 c 0.79773,-0.42956 0.29044,-2.12117 1.12475,-2.47448 1.02648,-0.43468 2.11498,1.54036 3.14932,1.12477 0.46675,-0.18754 0.48237,-0.885 0.67487,-1.34972 0.36296,-0.87628 0.8998,-2.69942 0.8998,-2.69942 0.32251,-0.96756 -0.56017,-1.9627 -0.8998,-2.92438 -0.5379,-1.52301 -1.79962,-4.49904 -1.79962,-4.49904 -0.7601,-1.90028 -4.49904,-2.92436 -5.39885,-2.92436 -0.8998,0 -4.26834,-2.44184 -6.29865,-3.82419 -1.94626,-1.32512 -4.10386,-2.47585 -5.62379,-4.27409 -1.1475,-1.35762 -2.47448,-4.72399 -2.47448,-4.72399 -0.82702,-1.57886 -1.18841,-3.39885 -1.34971,-5.17389 -0.18372,-2.02178 0.4499,-6.0737 0.4499,-6.0737 0.13759,-1.85747 2.23874,-3.002 3.59924,-4.27408 1.01881,-0.95259 3.37428,-2.47447 3.37428,-2.47447 0.7256,-0.53211 1.84254,-0.2746 2.69942,0 1.22853,0.3937 3.14933,2.24951 3.14933,2.24951 2.56344,1.83102 5.15483,3.66302 7.4234,5.84875 1.4174,1.36564 2.35377,3.19066 3.82419,4.49904 0.8079,0.71888 1.64336,1.74849 2.69941,1.79961 4.91223,0.23777 3.24891,16.28388 2.47448,24.74471 z"
       id="path2830"
       sodipodi:nodetypes="cssssssssssssssssssssssssssssssssssssssssssssscssssssssssssssssszssssssssssssssssssssssssssssssssssscssssssssssssssssssssssssssscssssssssssssssszssssssssssssssssssssszscssssssssssssssssssssssssssssssssssssssssssssssssszssssssssscsssssssssssssssssssssszsssssssssszsssssssszssssssssssssc" />
  </g>
</svg>
