<?xml version="1.0" encoding="UTF-8" standalone="no"?>
<svg
   xmlns:dc="http://purl.org/dc/elements/1.1/"
   xmlns:cc="http://creativecommons.org/ns#"
   xmlns:rdf="http://www.w3.org/1999/02/22-rdf-syntax-ns#"
   xmlns:svg="http://www.w3.org/2000/svg"
   xmlns="http://www.w3.org/2000/svg"
   xmlns:sodipodi="http://sodipodi.sourceforge.net/DTD/sodipodi-0.dtd"
   xmlns:inkscape="http://www.inkscape.org/namespaces/inkscape"
   version="1.1"
   width="94.910393"
   height="86.015503"
   viewBox="-44643 -21466 949.10389 860.15504"
   id="svg5673"
   inkscape:version="0.48.2 r9819"
   sodipodi:docname="richmond.svg">
  <metadata
     id="metadata5952">
    <rdf:RDF>
      <cc:Work
         rdf:about="">
        <dc:format>image/svg+xml</dc:format>
        <dc:type
           rdf:resource="http://purl.org/dc/dcmitype/StillImage" />
        <dc:title />
      </cc:Work>
    </rdf:RDF>
  </metadata>
  <defs
     id="defs5950" />
  <sodipodi:namedview
     pagecolor="#ffffff"
     bordercolor="#666666"
     borderopacity="1"
     objecttolerance="10"
     gridtolerance="10"
     guidetolerance="10"
     inkscape:pageopacity="0"
     inkscape:pageshadow="2"
     inkscape:window-width="2078"
     inkscape:window-height="1385"
     id="namedview5948"
     showgrid="false"
     inkscape:zoom="4.5459157"
     inkscape:cx="78.931061"
     inkscape:cy="-10.263905"
     inkscape:window-x="286"
     inkscape:window-y="42"
     inkscape:window-maximized="0"
     inkscape:current-layer="svg5673"
     fit-margin-top="0"
     fit-margin-left="0"
     fit-margin-right="0"
     fit-margin-bottom="0" />
  
  <g
     clip-path="url(#state_clip_path)"
     id="g5736"
     style="fill:#00ffff;fill-opacity:1;stroke:#000000;stroke-width:25;stroke-linejoin:round"
     transform="matrix(0.46823352,0,0,0.46823352,-49090.987,-21044.355)">
    <g
       id="Accomack"
       style="fill:#00ffff;fill-opacity:1" />
    <g
       id="Lancaster"
       style="fill:#00ffff;fill-opacity:1" />
    <g
       id="Mathews"
       style="fill:#00ffff;fill-opacity:1" />
    <g
       id="Northampton"
       style="fill:#00ffff;fill-opacity:1" />
    <g
       id="Portsmouth"
       style="fill:#00ffff;fill-opacity:1" />
    <path
       id="path5905"
       d="m 9612,-308 144,-39 169,42 129,-60 5,0 128,11 26,-95 -179,-47 125,-225 10,10 210,133 30,20 41,25 21,-30 26,-30 10,-15 51,46 51,51 26,-20 31,-25 25,-20 -15,-25 -40,-71 -5,-15 0,-35 11,-71 10,-5 72,1 180,-44 87,36 5,5 -6,146 20,20 31,21 20,15 108,-19 15,10 26,15 59,242 112,92 86,161 -53,216 -12,111 -20,-5 -158,-72 -26,-15 -32,120 -16,86 8,256 35,151 5,21 -17,105 -25,-15 -36,-26 -25,-25 -31,-30 -15,-11 -225,-72 -237,59 -61,-16 -10,-5 -138,-97 -20,-35 -30,-81 -20,-55 -25,-66 -20,-51 -10,-25 -25,-86 -19,-191 0,-70 1,-10 0,-15 -5,-6 -6,0 -36,15 -66,20 -21,5 -15,5 -6,-5 -5,-11 -5,-10 -30,-65 -5,-15 -5,-11 -15,-30 -31,5 -15,15 -11,10 -15,10 -72,39 -21,10 -15,5 -190,9 -61,-132 z"
       inkscape:connector-curvature="0"
       style="fill:#00ffff;fill-opacity:1" />
    <g
       id="Virginia_Beach"
       style="fill:#00ffff;fill-opacity:1" />
    <g
       id="Westmoreland"
       style="fill:#00ffff;fill-opacity:1" />
    <g
       id="York"
       style="fill:#00ffff;fill-opacity:1" />
  </g>
</svg>
