<svg width="450" height="483" xmlns="http://www.w3.org/2000/svg" xmlns:xlink="http://www.w3.org/1999/xlink">
 <defs>
  <linearGradient id="imagebot_35">
   <stop stop-color="#6a6a6a" id="imagebot_52" offset="0"/>
   <stop stop-color="#000000" id="imagebot_51" offset="1"/>
  </linearGradient>
  <linearGradient id="imagebot_36">
   <stop stop-color="#ffffff" id="imagebot_50" offset="0"/>
   <stop stop-color="#ffffff" offset="0.4702" id="imagebot_49"/>
   <stop stop-color="#d6d6d6" id="imagebot_48" offset="1"/>
  </linearGradient>
  <linearGradient id="imagebot_37">
   <stop stop-color="#000000" id="imagebot_47" offset="0"/>
   <stop stop-color="#000000" stop-opacity="0" id="imagebot_46" offset="1"/>
  </linearGradient>
  <linearGradient id="imagebot_38">
   <stop stop-color="#000000" id="imagebot_45" offset="0"/>
   <stop stop-color="#000000" stop-opacity="0" id="imagebot_44" offset="1"/>
  </linearGradient>
  <linearGradient id="imagebot_34">
   <stop stop-color="#333333" id="imagebot_43" offset="0"/>
   <stop stop-color="#000000" stop-opacity="0" id="imagebot_42" offset="1"/>
  </linearGradient>
  <linearGradient y2="0.14519" x2="0.13875" y1="0.42728" x1="1.01969" id="imagebot_24" xlink:href="#imagebot_38"/>
  <linearGradient y2="0.49577" x2="1.01933" y1="0.35019" x1="0.11003" id="imagebot_26" xlink:href="#imagebot_37"/>
  <radialGradient r="225.0625" fy="1062.9181" fx="311.42657" cy="1062.9181" cx="311.42657" gradientTransform="matrix(1,0,0,1.0000694,167.18189,-512.69731)" gradientUnits="userSpaceOnUse" id="imagebot_28" xlink:href="#imagebot_36"/>
  <radialGradient r="245.83293" fy="207.49344" fx="317.61365" cy="207.49344" cx="317.61365" gradientTransform="matrix(0.8383257,0,0,0.8383257,211.22283,370.35026)" gradientUnits="userSpaceOnUse" id="imagebot_30" xlink:href="#imagebot_35"/>
  <linearGradient y2="-0.47343" x2="0.37601" y1="0.35517" x1="0.23348" id="imagebot_22" xlink:href="#imagebot_34"/>
 </defs>
 <metadata id="imagebot_33"/>
 <g id="imagebot_2" label="Ebene 1">
  <path transform="translate(4.57764e-05 4.77728) matrix(1 0 0 1 -236.973 -366.478)" label="Ebene 1" fill="url(#imagebot_30)" fill-rule="evenodd" stroke-width="5.57343" marker-start="none" marker-mid="none" marker-end="none" stroke-miterlimit="4" stroke-dashoffset="0" id="imagebot_29" d="M687.14288,591.56293C687.14288,715.80981 586.30481,816.64789 462.05792,816.64789C337.811,816.64789 236.97296,715.80981 236.97296,591.56293C236.97296,467.31604 337.811,366.478 462.05792,366.478C586.30481,366.478 687.14288,467.31604 687.14288,591.56293z"/>
  <path transform="translate(4.57764e-05 4.77728) matrix(1 0 0 1 -236.973 -366.478)" label="Ebene 1" fill="url(#imagebot_28)" fill-rule="evenodd" stroke-width="5.10304" marker-start="none" marker-mid="none" marker-end="none" stroke-miterlimit="4" stroke-dashoffset="0" id="imagebot_27" d="M462.04846,366.48163C412.92041,366.48163 367.47205,382.26657 330.45471,409.01288C314.33893,428.50247 303.04846,448.01288 303.04846,448.01288L282.48596,455.88788C253.92715,493.62354 236.98598,540.63611 236.98598,591.57538C236.98598,596.3335 237.13211,601.04657 237.42348,605.73163C242.53931,614.87134 246.36098,620.70038 246.36098,620.70038L243.73598,646.38788C258.43747,705.06738 296.19128,754.63049 346.79846,784.88788C350.41431,787.2262 353.4346,788.64166 356.75266,790.51868C354.99213,788.85559 354.44986,788.41064 353.29846,787.35669C340.05118,773.65485 328.89221,757.63788 328.89221,757.63788L360.92346,728.16913C360.92349,728.16913 381.51755,743.73419 404.64221,751.79413C427.76688,759.85406 453.42346,760.41907 453.42346,760.41907L469.29846,801.16907C469.29846,801.16907 455.2706,808.36359 435.36096,811.88788C431.79578,812.51898 428.02798,813.03229 424.26721,813.45038C436.55521,815.53168 449.1705,816.63788 462.04846,816.63788C514.09106,816.63788 562.03851,798.95386 600.17346,769.26288C612.10339,753.27765 619.92346,739.54413 619.92346,739.54413L637.29846,732.73163C668.13123,694.50854 686.7345,646.01221 687.11096,593.20038C680.98688,575.04211 674.29846,564.38788 674.29846,564.38788C674.29846,564.38788 676.00568,547.80542 673.60785,529.54034C673.23157,526.67438 675.15735,527.69434 677.47516,526.13812C676.78772,523.54327 674.29016,515.83203 673.03015,512.14972C668.06989,497.65384 663.1908,490.73795 659.98596,484.32538C666.22925,487.81302 659.96143,484.30649 659.95471,484.29413C621.82434,414.13135 547.4682,366.4816 462.04846,366.48163zM489.26721,375.04413C507.9711,375.2999 527.48596,381.35663 527.48596,381.35663C527.48596,381.3566 549.65906,389.8772 565.48596,401.91913C581.31287,413.96103 590.79846,429.51288 590.79846,429.51288L550.54846,457.32538C550.54846,457.32535 528.8822,442.48288 506.23596,434.48163C483.58975,426.48038 459.95471,425.32538 459.95471,425.32538L448.54846,383.79413C448.54846,383.79413 465.81186,375.68387 485.54846,375.07538C486.78201,375.03735 488.02029,375.02707 489.26721,375.04413zM357.73596,486.23163C371.55643,486.2951 383.04846,487.95038 383.04846,487.95038L403.86096,576.38788L337.04846,640.01288C337.04846,640.01288 316.1853,626.77625 301.14221,613.82538C286.09915,600.87451 276.86096,588.20038 276.86096,588.20038C276.86099,588.20038 279.57681,562.54651 285.70471,540.48163C291.83264,518.41675 301.39221,499.95038 301.39221,499.95038C301.39224,499.95038 317.91086,490.4437 338.32971,487.45038C344.7106,486.51495 351.45395,486.20276 357.73596,486.23163zM574.26721,549.38788C574.26721,549.38788 593.10492,557.64117 608.29846,569.79413C623.492,581.94702 635.04846,598.01288 635.04846,598.01288C635.04846,598.01288 633.97076,620.01343 626.70471,642.88788C619.43866,665.76227 605.98596,689.51288 605.98596,689.51288C605.98596,689.51288 587.20844,696.40363 567.39221,698.26288C547.57599,700.12213 526.70471,696.95038 526.70471,696.95038L516.36096,653.66913L505.70471,609.16913C505.70471,609.16913 519.84637,592.11688 536.98596,577.16913C554.12555,562.22137 574.26721,549.38788 574.26721,549.38788z"/>
  <path transform="translate(4.57764e-05 4.77728) matrix(1 0 0 1 -236.973 -366.478)" label="Ebene 1" fill="none" fill-rule="evenodd" stroke="url(#imagebot_26)" stroke-width="4.87051" stroke-linejoin="round" marker-start="none" marker-mid="none" marker-end="none" stroke-miterlimit="4" stroke-dashoffset="0" d="M633.37378,598.67639C633.37378,598.67639 632.31525,620.11981 625.23743,642.40186C618.15955,664.6839 605.06238,687.80463 605.06238,687.80463C605.06238,687.80463 586.76587,694.52887 567.46283,696.33997C548.15979,698.15106 527.85034,695.04901 527.85034,695.04901L517.76196,652.89886L507.3905,609.56604C507.3905,609.56604 521.1626,592.93384 537.85828,578.37323C554.55396,563.81256 574.17334,551.32355 574.17334,551.32355C574.17334,551.32355 592.52057,559.37555 607.32068,571.21375C622.12079,583.05194 633.37378,598.67639 633.37378,598.67639z" id="imagebot_25"/>
  <path transform="translate(4.57764e-05 4.77728) matrix(1 0 0 1 -236.973 -366.478)" label="Ebene 1" fill="none" fill-rule="evenodd" stroke="url(#imagebot_24)" stroke-width="4.87402" stroke-linejoin="round" marker-start="none" marker-mid="none" marker-end="none" stroke-miterlimit="4" stroke-dashoffset="0" d="M337.1322,638.06305C337.1322,638.06305 316.7951,625.15729 302.13104,612.53271C287.46698,599.90814 278.47595,587.5647 278.47595,587.5647C278.47595,587.5647 281.1127,562.5683 287.08621,541.05939C293.05972,519.55042 302.37,501.52899 302.37,501.52899C302.37,501.52899 318.46844,492.27396 338.37283,489.35605C358.27722,486.43814 381.98761,489.85739 381.98761,489.85739L402.26691,576.06818L337.1322,638.06305z" id="imagebot_23"/>
  <path transform="translate(4.57764e-05 4.77728) matrix(1 0 0 1 -236.973 -366.478)" label="Ebene 1" fill="none" fill-rule="evenodd" stroke="url(#imagebot_22)" stroke-width="5.01581" marker-start="none" marker-mid="none" marker-end="none" stroke-miterlimit="4" stroke-dashoffset="0" d="M526.54285,385.59247C526.54285,385.59247 546.00702,393.08875 559.90857,403.66571C573.81006,414.24268 582.14893,427.90045 582.14893,427.90045L546.79205,452.33151C546.79205,452.33151 527.76056,439.27747 507.86923,432.24957C487.97797,425.22165 460.15579,422.45212 460.15579,422.45212L450.8364,385.60907C450.8364,385.60907 470.23141,378.84012 487.56699,378.30569C504.90265,377.77115 526.54285,385.59247 526.54285,385.59247z" id="imagebot_21"/>
  <path transform="translate(4.57764e-05 4.77728) matrix(1 0 0 1 -236.973 -366.478)" label="Ebene 1" fill="none" fill-rule="evenodd" stroke="#666666" stroke-width="1px" d="M382.00558,489.15387C382.00558,489.15387 418.19232,441.07327 460.44232,424.82327" id="imagebot_20"/>
  <path transform="translate(4.57764e-05 4.77728) matrix(1 0 0 1 -236.973 -366.478)" label="Ebene 1" fill="none" fill-rule="evenodd" stroke="#ececec" stroke-width="3" stroke-miterlimit="4" id="imagebot_19" d="M552.77777,456.09915C552.77777,456.09915 579.76263,499.02548 576.26263,548.02551"/>
  <path transform="translate(4.57764e-05 4.77728) matrix(1 0 0 1 -236.973 -366.478)" label="Ebene 1" fill="none" fill-rule="evenodd" stroke="#666666" stroke-width="1px" d="M550.37433,456.61356C550.37433,456.61356 577.95013,500.98965 574.45013,549.98962" id="imagebot_18"/>
  <path transform="translate(4.57764e-05 4.77728) matrix(1 0 0 1 -236.973 -366.478)" label="Ebene 1" fill="none" fill-rule="evenodd" stroke="#666666" stroke-width="1px" d="M587.79846,429.25006C587.79846,429.25006 647.58179,452.85001 673.83179,527.59998" id="imagebot_17"/>
  <path transform="translate(4.57764e-05 4.77728) matrix(1 0 0 1 -236.973 -366.478)" label="Ebene 1" fill="none" fill-rule="evenodd" stroke="#666666" stroke-width="1px" d="M635.41699,597.88855C635.41699,597.88855 656.46136,596.25378 674.84613,565.14111" id="imagebot_16"/>
  <path transform="translate(4.57764e-05 4.77728) matrix(1 0 0 1 -236.973 -366.478)" label="Ebene 1" fill="none" fill-rule="evenodd" stroke="#666666" stroke-width="1px" d="M620.39374,739.32037C620.39374,739.32037 623.31451,721.19147 605.87244,688.36743" id="imagebot_15"/>
  <path transform="translate(4.57764e-05 4.77728) matrix(1 0 0 1 -236.973 -366.478)" label="Ebene 1" fill="none" fill-rule="evenodd" stroke="#666666" stroke-width="1px" d="M453.66772,760.93427C453.66772,760.93427 486.01785,752.3606 527.03003,695.79199" id="imagebot_14"/>
  <path transform="translate(4.57764e-05 4.77728) matrix(1 0 0 1 -236.973 -366.478)" label="Ebene 1" fill="none" fill-rule="evenodd" stroke="#666666" stroke-width="1px" d="M336.81833,639.22345C336.81833,639.22345 334.87378,689.6048 359.97607,729.20282" id="imagebot_13"/>
  <path transform="translate(4.57764e-05 4.77728) matrix(1 0 0 1 -236.973 -366.478)" label="Ebene 1" fill="none" fill-rule="evenodd" stroke="#666666" stroke-width="1px" d="M328.87631,757.90466C328.87631,757.90466 321.44675,757.99701 293.33127,741.04688" id="imagebot_12"/>
  <path transform="translate(4.57764e-05 4.77728) matrix(1 0 0 1 -236.973 -366.478)" label="Ebene 1" fill="none" fill-rule="evenodd" stroke="#666666" stroke-width="1px" d="M277.33298,588.13501C277.33298,588.13501 257.18442,596.59845 246.33148,620.04626" id="imagebot_11"/>
  <path transform="translate(4.57764e-05 4.77728) matrix(1 0 0 1 -236.973 -366.478)" label="Ebene 1" fill="none" fill-rule="evenodd" stroke="#666666" stroke-width="1px" d="M302.69794,448.24799C302.69794,448.24799 295.46637,476.16031 301.75,499.61115" id="imagebot_10"/>
  <path transform="translate(4.57764e-05 4.77728) matrix(1 0 0 1 -236.973 -366.478)" label="Ebene 1" fill="none" fill-rule="evenodd" stroke="#666666" stroke-width="1px" d="M326.91885,412.59576C326.91885,412.59576 386.97302,361.70071 448.13776,384.32813" id="imagebot_9"/>
  <path transform="translate(4.57764e-05 4.77728) matrix(1 0 0 1 -236.973 -366.478)" label="Ebene 1" fill="none" fill-rule="evenodd" stroke="#666666" stroke-width="1px" d="M469.14957,801.21747C469.14957,801.21747 521.53589,814.66852 602.33691,766.98444" id="imagebot_8"/>
  <path transform="translate(4.57764e-05 4.77728) matrix(1 0 0 1 -236.973 -366.478)" label="Ebene 1" fill="none" fill-rule="evenodd" stroke="#f2f2f2" stroke-width="3" stroke-linecap="square" stroke-miterlimit="4" id="imagebot_7" d="M382.20013,485.5451C382.20013,485.5451 412.29065,444.10361 456.54065,424.22861"/>
  <path transform="translate(4.57764e-05 4.77728) matrix(1 0 0 1 -236.973 -366.478)" label="Ebene 1" fill="none" fill-rule="evenodd" stroke="#ffffff" stroke-width="3" stroke-miterlimit="4" id="imagebot_6" d="M454.4902,762.6673C454.4902,762.6673 485.31259,756.72119 526.32477,700.15259"/>
  <path transform="translate(4.57764e-05 4.77728) matrix(1 0 0 1 -236.973 -366.478)" label="Ebene 1" fill="none" fill-rule="evenodd" stroke="#ffffff" stroke-width="3" stroke-miterlimit="4" id="imagebot_5" d="M334.79245,640.34296C334.79245,640.34296 332.8479,690.73871 357.9502,730.33667"/>
  <path transform="translate(4.57764e-05 4.77728) matrix(1 0 0 1 -236.973 -366.478)" label="Ebene 1" fill="none" fill-rule="evenodd" stroke="#999999" stroke-width="1px" marker-start="none" marker-mid="none" marker-end="none" stroke-miterlimit="4" stroke-dashoffset="0" id="imagebot_4" d="M404.34702,576.55615C404.34702,576.55615 430.68674,582.74335 505.64008,609.25983"/>
  <path transform="translate(4.57764e-05 4.77728) matrix(1 0 0 1 -236.973 -366.478)" label="Ebene 1" fill="none" fill-rule="evenodd" stroke="#ececec" stroke-width="1px" marker-start="none" marker-mid="none" marker-end="none" stroke-miterlimit="4" stroke-dashoffset="0" d="M404.34702,575.28088C404.34702,575.28088 430.68674,581.46808 505.64008,607.98456" id="imagebot_3"/>
  <title>Ebene 1</title>
 </g>
</svg>