<?xml version="1.0" encoding="UTF-8" standalone="no"?>
<!-- Created with Inkscape (http://www.inkscape.org/) -->

<svg
   xmlns:dc="http://purl.org/dc/elements/1.1/"
   xmlns:cc="http://creativecommons.org/ns#"
   xmlns:rdf="http://www.w3.org/1999/02/22-rdf-syntax-ns#"
   xmlns:svg="http://www.w3.org/2000/svg"
   xmlns="http://www.w3.org/2000/svg"
   xmlns:sodipodi="http://sodipodi.sourceforge.net/DTD/sodipodi-0.dtd"
   xmlns:inkscape="http://www.inkscape.org/namespaces/inkscape"
   width="25.726089"
   height="76.632179"
   id="svg2860"
   version="1.1"
   inkscape:version="0.47 r22583"
   sodipodi:docname="punk.svg">
  <defs
     id="defs2862">
    <inkscape:perspective
       sodipodi:type="inkscape:persp3d"
       inkscape:vp_x="0 : 526.18109 : 1"
       inkscape:vp_y="0 : 1000 : 0"
       inkscape:vp_z="744.09448 : 526.18109 : 1"
       inkscape:persp3d-origin="372.04724 : 350.78739 : 1"
       id="perspective2868" />
    <inkscape:perspective
       id="perspective2878"
       inkscape:persp3d-origin="0.5 : 0.33333333 : 1"
       inkscape:vp_z="1 : 0.5 : 1"
       inkscape:vp_y="0 : 1000 : 0"
       inkscape:vp_x="0 : 0.5 : 1"
       sodipodi:type="inkscape:persp3d" />
    <inkscape:perspective
       id="perspective2921"
       inkscape:persp3d-origin="0.5 : 0.33333333 : 1"
       inkscape:vp_z="1 : 0.5 : 1"
       inkscape:vp_y="0 : 1000 : 0"
       inkscape:vp_x="0 : 0.5 : 1"
       sodipodi:type="inkscape:persp3d" />
  </defs>
  <sodipodi:namedview
     id="base"
     pagecolor="#ffffff"
     bordercolor="#666666"
     borderopacity="1.0"
     inkscape:pageopacity="0.0"
     inkscape:pageshadow="2"
     inkscape:zoom="3.959798"
     inkscape:cx="13.91721"
     inkscape:cy="47.0137"
     inkscape:document-units="px"
     inkscape:current-layer="layer1"
     showgrid="false"
     inkscape:window-width="613"
     inkscape:window-height="1095"
     inkscape:window-x="0"
     inkscape:window-y="24"
     inkscape:window-maximized="0" />
  <metadata
     id="metadata2865">
    <rdf:RDF>
      <cc:Work
         rdf:about="">
        <dc:format>image/svg+xml</dc:format>
        <dc:type
           rdf:resource="http://purl.org/dc/dcmitype/StillImage" />
        <dc:title></dc:title>
      </cc:Work>
    </rdf:RDF>
  </metadata>
  <g
     inkscape:label="Layer 1"
     inkscape:groupmode="layer"
     id="layer1"
     transform="translate(-332.0409,-443.1447)">
    <path
       d="m 333.3599,459.29747 -1.319,6.888 c 0,0 5.349,2.052 5.203,2.125 -0.146,0.073 0.586,1.904 1.539,2.418 0.953,0.513 2.272,0.585 2.565,0.66 0.293,0.073 1.172,0.292 1.172,0.292 0,0 -0.074,1.539 -0.22,1.979 -0.146,0.44 -0.293,0.732 -0.586,1.466 -0.293,0.732 -0.733,0.952 -0.659,1.612 0.073,0.659 -0.074,2.197 -0.147,2.931 -0.073,0.734 -0.073,2.271 -0.073,2.858 0,0.587 -0.074,1.758 -0.147,2.198 -0.073,0.439 -0.22,1.319 0.073,2.492 0.293,1.172 0.586,1.832 0.733,3.15 0.146,1.319 0.074,1.392 0.22,2.638 0.146,1.246 -0.073,5.349 -0.073,5.862 0,0.513 -0.22,0.878 0.439,1.905 0.66,1.026 0.733,0.806 0.66,1.686 -0.073,0.879 -0.806,4.616 -1.099,5.056 -0.293,0.44 -1.099,0.293 -1.246,0.513 -0.147,0.22 -0.88,0.44 -0.367,1.026 0.513,0.586 1.026,1.026 1.026,1.026 0,0 -0.293,2.564 -0.44,2.858 -0.146,0.293 -0.439,1.245 -0.439,1.245 0,0 -1.319,1.246 -1.759,1.393 -0.439,0.146 -1.392,0.806 -1.612,0.879 -0.22,0.073 -1.099,-0.074 -1.319,0.366 -0.22,0.44 -0.586,0.953 -0.073,1.393 0.513,0.439 1.539,0.805 2.125,1.172 0.586,0.367 1.832,0.44 2.491,0.367 0.66,-0.074 1.172,-0.22 1.539,-0.586 0.367,-0.366 0.952,-1.246 1.319,-1.172 0.367,0.073 1.393,-0.22 1.905,-0.22 0.512,0 2.491,-0.879 2.491,-0.879 0,0 -0.22,-0.807 -0.22,-1.613 0,-0.805 -0.147,-2.638 -0.22,-2.858 -0.073,-0.22 -0.073,-0.22 -0.073,-0.22 l -0.367,-0.659 c 0,0 3.078,0.439 3.371,0.439 0.293,0 0.66,-0.367 0.732,-0.66 0.073,-0.292 -0.074,-1.393 -0.146,-1.758 -0.073,-0.366 -0.44,-2.711 -0.44,-2.711 0,0 0.146,-1.612 -0.22,-1.832 -0.366,-0.22 -0.586,-1.319 -0.586,-1.759 0,-0.439 -0.293,-8.133 -0.293,-8.94 0,-0.806 -0.513,-1.54 -0.586,-2.125 -0.073,-0.586 0.367,-1.833 0.513,-2.198 0.146,-0.366 0.659,-3.81 0.806,-4.103 0.146,-0.293 0.733,-2.712 0.733,-2.712 0,0 1.026,-1.758 1.099,-1.978 0.073,-0.22 1.246,-0.366 1.539,-0.146 0.292,0.22 0.732,0.146 0.732,0.44 0,0.293 0,-0.586 0.073,-1.246 0.074,-0.659 0.22,-1.026 0.44,-1.319 0.22,-0.293 0.073,-0.733 0.586,-0.806 0.513,-0.073 1.246,-0.733 1.246,-0.733 0,0 1.905,-4.03 1.758,-5.203 -0.147,-1.172 -1.173,-3.224 -1.466,-4.103 -0.292,-0.879 -0.952,-1.758 -0.952,-1.758 0,0 0.293,-6.156 -0.439,-7.548 -0.733,-1.392 -2.125,-3.151 -2.345,-3.371 -0.22,-0.22 -1.685,-1.466 -1.685,-1.466 l -0.879,-1.612 -1.099,-0.073 c 0,0 0.073,-1.393 0.073,-1.686 0,-0.293 0.367,-2.419 0.439,-2.785 0.073,-0.366 -0.586,-3.443 -1.172,-3.81 -0.586,-0.367 -0.806,0 -1.026,-0.22 -0.22,-0.22 -1.612,-0.952 -3.444,-0.439 -1.832,0.513 -1.979,1.905 -2.198,2.271 -0.22,0.367 -0.44,0.514 -0.366,1.246 0.073,0.732 0.733,2.198 0.659,2.565 -0.073,0.366 0.293,0.879 0.293,1.319 0,0.44 -0.073,0.952 0.22,1.245 0.293,0.294 0.952,1.319 0.952,1.319 l 0.953,0.879 c 0,0 0.146,0.293 0.44,0.22 0.293,-0.073 0.073,0.513 0.073,0.513 0,0 -0.513,0.878 -1.026,1.025 -0.513,0.147 -0.732,-0.146 -0.732,0.586 0,0.732 -0.22,1.539 -0.22,2.198 0,0.66 -0.073,2.125 -0.073,2.125 l -9.379,-1.537 z"
       id="path3022"
       style="fill:#816647" />
  </g>
</svg>
