<?xml version="1.0" encoding="UTF-8" standalone="no"?>
<!-- Created with Inkscape (http://www.inkscape.org/) -->

<svg
   xmlns:dc="http://purl.org/dc/elements/1.1/"
   xmlns:cc="http://creativecommons.org/ns#"
   xmlns:rdf="http://www.w3.org/1999/02/22-rdf-syntax-ns#"
   xmlns:svg="http://www.w3.org/2000/svg"
   xmlns="http://www.w3.org/2000/svg"
   xmlns:sodipodi="http://sodipodi.sourceforge.net/DTD/sodipodi-0.dtd"
   xmlns:inkscape="http://www.inkscape.org/namespaces/inkscape"
   id="svg2"
   sodipodi:version="0.32"
   inkscape:version="0.48.3.1 r9886"
   width="2077.585"
   height="1340.7528"
   version="1.0"
   sodipodi:docname="qubodup_Xbox_360_controller_strange_perspective.svg"
   inkscape:output_extension="org.inkscape.output.svg.inkscape"
   inkscape:export-filename="/home/qubodup/xbox_360_controller_strange_perspective.png"
   inkscape:export-xdpi="15"
   inkscape:export-ydpi="15">
  <metadata
     id="metadata7">
    <rdf:RDF>
      <cc:Work
         rdf:about="">
        <dc:format>image/svg+xml</dc:format>
        <dc:type
           rdf:resource="http://purl.org/dc/dcmitype/StillImage" />
        <dc:title></dc:title>
      </cc:Work>
    </rdf:RDF>
  </metadata>
  <defs
     id="defs5">
    <inkscape:perspective
       sodipodi:type="inkscape:persp3d"
       inkscape:vp_x="0 : 526.18109 : 1"
       inkscape:vp_y="0 : 1000 : 0"
       inkscape:vp_z="744.09448 : 526.18109 : 1"
       inkscape:persp3d-origin="372.04724 : 350.78739 : 1"
       id="perspective9" />
    <inkscape:perspective
       id="perspective3263"
       inkscape:persp3d-origin="372.04724 : 350.78739 : 1"
       inkscape:vp_z="744.09448 : 526.18109 : 1"
       inkscape:vp_y="0 : 1000 : 0"
       inkscape:vp_x="0 : 526.18109 : 1"
       sodipodi:type="inkscape:persp3d" />
  </defs>
  <sodipodi:namedview
     inkscape:window-height="1179"
     inkscape:window-width="1918"
     inkscape:pageshadow="2"
     inkscape:pageopacity="0.0"
     guidetolerance="10.0"
     gridtolerance="10.0"
     objecttolerance="10.0"
     borderopacity="1.0"
     bordercolor="#666666"
     pagecolor="#ffffff"
     id="base"
     showgrid="false"
     showguides="true"
     inkscape:guide-bbox="true"
     inkscape:zoom="0.5"
     inkscape:cx="1067.0235"
     inkscape:cy="697.93833"
     inkscape:window-x="0"
     inkscape:window-y="19"
     inkscape:current-layer="svg2"
     inkscape:window-maximized="0"
     fit-margin-top="0"
     fit-margin-left="0"
     fit-margin-right="0"
     fit-margin-bottom="0">
    <inkscape:grid
       type="xygrid"
       id="grid2384"
       visible="true"
       enabled="true"
       empcolor="#888888"
       empopacity="0.25098039"
       color="#666666"
       opacity="0.1254902"
       empspacing="5"
       snapvisiblegridlinesonly="true"
       originx="-0.0042293407px"
       originy="-198.71205px" />
  </sodipodi:namedview>
  <path
     style="fill:#ffffff;fill-opacity:1;stroke:#595959;stroke-width:20;stroke-linecap:round;stroke-linejoin:bevel;stroke-miterlimit:4;stroke-opacity:1;stroke-dasharray:none"
     d="m 461.02702,10.027345 c -16.89904,0.38198 -34.28749,5.10962 -52.21875,14.4375 -19.22614,33.67852 -31.19629,67.35273 -43.375,101.031255 -82.59482,10.97094 -161.70816,47.08444 -246.625,103.96875 -9.16834,9.16833 -12.72694,29.53776 -10.6875,48.5625 -15.805776,16.14698 -26.300509,33.36558 -29.312499,51.4375 -45.825896,171.7672 -71.2646223,346.09921 -68.625,500.5625 -4.2490356,250.77615 70.415295,442.44655 261.624999,497.49995 2.30968,0.665 4.65625,1.3125 7,1.9375 0.78695,0.1967 1.5723,0.3805 2.375,0.5312 0.47231,0.089 0.95959,0.1458 1.4375,0.2188 0.51635,0.079 1.03948,0.1581 1.5625,0.2188 0.44802,0.052 0.89074,0.086 1.34375,0.125 0.27305,0.023 0.53761,0.075 0.8125,0.094 0.063,0 0.12445,0 0.1875,0 0.21678,0.014 0.43831,0.02 0.65625,0.031 0.45333,0.023 0.91663,0.052 1.375,0.062 0.13619,0 0.26961,0 0.40625,0 0.87814,0.013 1.75918,7e-4 2.65625,-0.031 0.0104,-4e-4 0.0209,4e-4 0.0312,0 0.0102,-4e-4 0.021,4e-4 0.0312,0 0.86278,-0.032 1.7442,-0.084 2.625,-0.1562 0.0311,0 0.0626,0 0.0937,0 0.13429,-0.011 0.27153,-0.019 0.40625,-0.031 0.78284,-0.071 1.57758,-0.1798 2.375,-0.2813 0.64614,-0.082 1.31283,-0.1789 1.96875,-0.2812 0.68241,-0.1064 1.36929,-0.2161 2.0625,-0.3438 0.0524,-0.01 0.10382,-0.021 0.15625,-0.031 0.5304,-0.099 1.05692,-0.2015 1.59375,-0.3125 0.21438,-0.044 0.44083,-0.079 0.65625,-0.125 0.98579,-0.212 1.99218,-0.467 3,-0.7187 0.54502,-0.1361 1.10465,-0.2588 1.65625,-0.4063 0.24895,-0.067 0.4997,-0.1498 0.75,-0.2187 0.53573,-0.1476 1.08301,-0.3108 1.625,-0.4688 0.49282,-0.1438 1.00195,-0.2852 1.5,-0.4375 0.0528,-0.016 0.10337,-0.046 0.15625,-0.062 0.70789,-0.2175 1.43764,-0.453 2.15625,-0.6875 0.28834,-0.094 0.58491,-0.1845 0.875,-0.2813 0.89362,-0.2982 1.80834,-0.614 2.71875,-0.9374 0.18198,-0.065 0.37985,-0.1219 0.5625,-0.1876 1.19145,-0.4283 2.40424,-0.8738 3.625,-1.3437 0.85492,-0.3291 1.72415,-0.6823 2.59375,-1.0313 0.1757,-0.07 0.35494,-0.1474 0.53125,-0.2187 1.05049,-0.425 2.11526,-0.8595 3.1875,-1.3125 0.10089,-0.043 0.21142,-0.082 0.3125,-0.125 1.70131,-0.7216 3.46133,-1.4921 5.21875,-2.2812 0.66575,-0.2991 1.35727,-0.6291 2.03125,-0.9376 1.21265,-0.555 2.44779,-1.1027 3.6875,-1.6874 0.0207,-0.01 0.0418,-0.022 0.0625,-0.031 2.51195,-1.1855 5.09228,-2.4482 7.71875,-3.75 2.61531,-1.2962 5.2978,-2.6586 8.03125,-4.0625 0.0208,-0.011 0.0417,-0.021 0.0625,-0.031 0.81182,-0.4171 1.6775,-0.8552 2.5,-1.2813 1.96117,-1.0162 3.94573,-2.0592 5.96875,-3.125 0.1851,-0.098 0.37688,-0.2146 0.5625,-0.3125 1.11749,-0.5895 2.26957,-1.2087 3.40625,-1.8125 1.11984,-0.5948 2.23628,-1.173 3.375,-1.7813 0.48366,-0.2583 1.0129,-0.5517 1.5,-0.8124 4.0728,-2.1803 8.46151,-4.5396 12.78125,-6.875 1.97472,-1.0678 4.09696,-2.2154 6.125,-3.3126 6.57379,-3.556 13.43547,-7.2385 20.59375,-11.0624 2.919,-1.5594 5.9169,-3.1847 8.9375,-4.7813 1.46323,-0.7734 2.94999,-1.531 4.4375,-2.3125 2.95352,-1.5517 5.94905,-3.1383 9,-4.7188 2.90451,-1.5044 5.91144,-3.0352 8.90625,-4.5624 0.96097,-0.4901 1.9671,-0.9766 2.9375,-1.4688 0.0746,-0.038 0.14406,-0.087 0.21875,-0.125 3.73706,-1.8946 7.55841,-3.7966 11.4375,-5.7188 0.45194,-0.2239 0.88985,-0.4632 1.34375,-0.6874 2.70957,-1.3387 5.50127,-2.6821 8.28125,-4.0313 1.62858,-0.7904 3.22192,-1.5816 4.875,-2.375 0.92341,-0.4432 1.88139,-0.8997 2.8125,-1.3437 3.26106,-1.5553 6.51821,-3.0926 9.875,-4.6563 2.71066,-1.2627 5.47582,-2.5461 8.25,-3.8125 1.88051,-0.8585 3.80867,-1.7342 5.71875,-2.5938 0.71892,-0.3234 1.46437,-0.6451 2.1875,-0.9687 1.57952,-0.7069 3.15023,-1.4178 4.75,-2.125 2.57213,-1.1369 5.15621,-2.2383 7.78125,-3.375 1.49277,-0.6465 2.98993,-1.3226 4.5,-1.9687 1.75815,-0.7523 3.53072,-1.4986 5.3125,-2.25 1.68939,-0.7126 3.38294,-1.4135 5.09375,-2.125 3.01092,-1.2521 6.07823,-2.5335 9.15625,-3.7813 1.88013,-0.7622 3.8133,-1.4899 5.71875,-2.25 1.77932,-0.7097 3.57342,-1.4487 5.375,-2.1563 0.86691,-0.3404 1.72166,-0.66 2.59375,-1 0.30602,-0.1192 0.59959,-0.2557 0.90625,-0.375 3.8264,-1.4876 7.69805,-2.9621 11.625,-4.4374 1.62604,-0.6109 3.29402,-1.2353 4.9375,-1.8438 2.0695,-0.7661 4.15264,-1.5506 6.25,-2.3125 0.70987,-0.2579 1.41192,-0.4926 2.125,-0.75 2.90702,-1.0492 5.85176,-2.085 8.8125,-3.125 2.56386,-0.9006 5.14543,-1.7944 7.75,-2.6875 0.92496,-0.3172 1.85112,-0.6526 2.78125,-0.9688 4.758,-1.6172 9.60531,-3.224 14.5,-4.8124 0.54039,-0.1754 1.08293,-0.3563 1.625,-0.5313 0.10406,-0.034 0.20838,-0.06 0.3125,-0.094 25.85041,12.1989 54.72414,19.0312 85.1875,19.0312 60.5342,0 114.8147,-26.9338 151.5,-69.4688 3.25841,-0.3812 6.51687,-0.7622 9.8125,-1.125 0.29994,-0.033 0.606,-0.061 0.90625,-0.094 3.09624,-0.3389 6.21449,-0.6778 9.34375,-1 0.33173,-0.034 0.6679,-0.06 1,-0.094 0.52921,-0.054 1.06359,-0.1027 1.59375,-0.1563 6.0126,-0.6083 12.11487,-1.205 18.25,-1.75 0.75644,-0.067 1.52293,-0.1213 2.28125,-0.1875 0.74726,-0.065 1.50092,-0.1232 2.25,-0.1875 2.69033,-0.2308 5.3798,-0.4692 8.09375,-0.6875 2.54194,-0.2046 5.0935,-0.4003 7.65625,-0.5938 0.66579,-0.05 1.3328,-0.075 2,-0.125 2.27434,-0.1687 4.553,-0.3401 6.84375,-0.5 1.38484,-0.097 2.76539,-0.1879 4.15625,-0.2812 2.15766,-0.1448 4.3278,-0.3007 6.5,-0.4375 3.00623,-0.1894 6.0283,-0.3573 9.0625,-0.5313 1.78557,-0.1023 3.5797,-0.2155 5.375,-0.3124 0.84952,-0.046 1.7108,-0.08 2.5625,-0.125 2.87734,-0.1509 5.75392,-0.3008 8.65625,-0.4376 3.76143,-0.1772 7.57137,-0.3467 11.375,-0.5 2.64296,-0.1064 5.3053,-0.2177 7.96875,-0.3124 0.3724,-0.013 0.7522,-0.018 1.125,-0.031 3.69732,-0.129 7.41926,-0.2378 11.15625,-0.3437 4.11379,-0.1167 8.24407,-0.2243 12.40633,-0.3126 4.1622,-0.088 8.3515,-0.1593 12.5625,-0.2187 0.4772,-0.01 0.9597,-0.025 1.4375,-0.031 2.3601,-0.031 4.7495,-0.04 7.125,-0.062 5.6238,-0.053 11.2895,-0.094 17,-0.094 3.7604,0 7.4959,0.01 11.2187,0.031 0.291,0 0.5843,0 0.875,0 7.1464,0.047 14.2099,0.1516 21.2188,0.2813 2.7597,0.051 5.5115,0.093 8.25,0.1563 0.8818,0.02 1.7766,0.041 2.6562,0.062 1.155,0.029 2.3176,0.063 3.4688,0.094 2.4415,0.065 4.8879,0.1436 7.3125,0.2188 3.5746,0.1107 7.1181,0.2431 10.6563,0.375 2.2922,0.085 4.5667,0.1558 6.8437,0.25 3.149,0.1301 6.2863,0.2908 9.4063,0.4374 0.072,0 0.1463,0 0.2187,0 3.7577,0.1772 7.5029,0.3619 11.2187,0.5626 2.6402,0.1425 5.2559,0.2832 7.875,0.4374 1.0707,0.063 2.1516,0.1226 3.2188,0.1876 3.6794,0.2241 7.3307,0.4719 10.9688,0.7187 6.8171,0.4623 13.5458,0.9601 20.2187,1.5 4.0142,0.3248 8.0062,0.648 11.9687,1 6.3481,0.564 12.6581,1.1808 18.875,1.8125 36.6969,43.9162 91.8686,71.875 153.5313,71.875 33.5555,0 65.1881,-8.2832 92.9687,-22.9062 0.8641,0.2676 1.7027,0.5437 2.5626,0.8124 1.4897,0.4655 2.9914,0.9379 4.4687,1.4063 2.3461,0.7439 4.6534,1.499 6.9686,2.25 0.041,0.013 0.084,0.018 0.125,0.031 1.5949,0.5175 3.201,1.0417 4.7814,1.5624 1.869,0.616 3.7137,1.2235 5.5625,1.8438 3.5048,1.1758 7.0048,2.3726 10.4375,3.5625 4.5215,1.5674 8.977,3.1299 13.375,4.7187 4.3979,1.5889 8.7545,3.2058 13.0313,4.8126 4.2767,1.6067 8.4674,3.2225 12.625,4.8437 4.1575,1.6212 8.2719,3.2429 12.3124,4.875 3.2993,1.3327 6.5275,2.6622 9.75,4 0.3602,0.1495 0.7346,0.2879 1.0938,0.4375 0.7248,0.3018 1.4353,0.6043 2.1562,0.9062 3.5592,1.4908 7.0965,3.0062 10.5626,4.5 0.5361,0.2312 1.091,0.4564 1.625,0.6876 2.2252,0.9633 4.4065,1.9114 6.5937,2.875 2.7706,1.2204 5.5083,2.4367 8.2186,3.6562 1.7104,0.7696 3.4384,1.575 5.125,2.3438 3.0814,1.4045 6.1218,2.7874 9.125,4.1874 0.7058,0.3291 1.4236,0.6714 2.125,1 3.4874,1.634 6.9294,3.2825 10.3126,4.9063 2.6482,1.2713 5.3206,2.5493 7.9062,3.8125 0.6936,0.3389 1.4046,0.693 2.0938,1.0312 0.3509,0.1723 0.6814,0.3592 1.0312,0.5313 6.1899,3.0445 12.2264,6.0552 18.0625,9.0313 2.8598,1.4583 5.6601,2.8748 8.4375,4.3124 2.5186,1.3038 5.0478,2.6218 7.5,3.9063 3.5767,1.8736 7.0925,3.7353 10.5312,5.5625 4.0003,2.1256 7.9307,4.2279 11.75,6.2812 1.4903,0.8013 3.0679,1.6484 4.5313,2.4376 5.316,2.8668 10.2777,5.5615 15.25,8.25 4.8605,2.6279 9.7325,5.2575 14.2813,7.6874 5.3678,2.8675 10.5411,5.5747 15.5,8.125 1.4004,0.7204 2.787,1.4635 4.1562,2.1563 0.8021,0.4057 1.6459,0.8228 2.4375,1.2187 2.7203,1.3608 5.4012,2.666 8,3.9063 0.9445,0.4508 1.8836,0.9096 2.8125,1.3437 1.3126,0.6135 2.6241,1.2021 3.9062,1.7813 0.2574,0.1163 0.5251,0.2289 0.7813,0.3437 0.042,0.019 0.083,0.044 0.125,0.063 1.7145,0.7679 3.3703,1.4842 5.0313,2.1874 0.064,0.027 0.123,0.067 0.1874,0.094 0.171,0.072 0.3297,0.1472 0.5,0.2188 0.8794,0.369 1.7604,0.7124 2.625,1.0624 0.809,0.3276 1.6413,0.6583 2.4376,0.9688 0.5212,0.2033 1.0153,0.3979 1.5312,0.5938 1.1491,0.4364 2.2833,0.8509 3.4062,1.25 1.2699,0.4512 2.5128,0.8792 3.75,1.2812 0.4027,0.1308 0.8195,0.2807 1.2188,0.4062 0.05,0.016 0.1066,0.016 0.1562,0.031 0.7963,0.2492 1.5921,0.4911 2.375,0.7187 0.4477,0.1302 0.9004,0.2521 1.3438,0.375 0.6845,0.1899 1.3568,0.3899 2.0312,0.5626 0.3123,0.08 0.6274,0.1425 0.9376,0.2187 0.1046,0.026 0.208,0.069 0.3124,0.094 0.8057,0.1951 1.6149,0.362 2.4063,0.5313 0.8589,0.1837 1.6887,0.3472 2.5313,0.5 0.6187,0.1122 1.2335,0.2173 1.8437,0.3125 0.7426,0.1158 1.4887,0.2222 2.2187,0.3125 0.3348,0.041 0.6679,0.089 1,0.125 0.3799,0.041 0.7486,0.091 1.125,0.125 0.031,0 0.063,0 0.094,0 0.8496,0.075 1.6984,0.1182 2.5312,0.1563 0.084,0 0.1667,0.028 0.25,0.031 0.1557,0.01 0.3137,-0.01 0.4688,0 0.7696,0.025 1.5256,0.039 2.2812,0.031 0.8587,-0.01 1.7214,-0.042 2.5626,-0.094 0.041,0 0.084,0 0.125,0 0.052,0 0.1041,0 0.1562,0 0.8033,-0.055 1.5873,-0.1548 2.375,-0.25 0.1232,-0.015 0.2522,-0.015 0.375,-0.031 0.3369,-0.043 0.6659,-0.1051 1,-0.1562 0.434,-0.066 0.8518,-0.1395 1.2812,-0.2188 0.847,-0.1562 1.7018,-0.3238 2.5313,-0.5312 2.3437,-0.625 4.6591,-1.2725 6.9687,-1.9375 191.4407,-55.1199 266.0701,-247.1843 261.625,-498.40625 2.5253,-154.23922 -22.8572,-328.22407 -68.5937,-499.6562 -3.0839,-18.50361 -13.5121,-36.13689 -29.1875,-52.65625 1.7604,-18.6677 -1.8409,-38.3721 -10.8125,-47.34375 -84.9168,-56.88431 -164.0302,-92.99781 -246.625,-103.96875 -12.1787,-33.678525 -24.1489,-67.352735 -43.375,-101.031255 -40.9858,-21.3208696 -79.1911,-18.5447996 -115,5 -1.6536,36.41669 2.2601,71.447295 7.1875,106.218755 -16.0466,11.23672 -27.1475,33.78055 -42.1875,33.78055 0.5237,0.81031 1.0242,1.62162 1.5313,2.4375 -81.3462,31.67255 -217.7001,77.5625 -481.5313,77.5625 -256.04109,0 -403.92468,-43.84478 -483.00003,-75.1875 0.97115,-1.61621 1.96838,-3.21644 3,-4.8125 -15.04001,0 -26.14091,-22.54383 -42.1875,-33.78125 4.92737,-34.77146 8.84106,-69.802065 7.1875,-106.218755 -20.14252,-13.24395 -41.05391,-19.9286096 -62.78125,-19.4375 z"
     id="path3307"
     inkscape:connector-curvature="0" />
  <path
     sodipodi:nodetypes="ccccc"
     id="path3271"
     d="m 1728.7958,169.46485 c -19.8123,-48.33333 -32.4079,-96.666675 -60,-145.000005 -40.9858,-21.3208696 -79.1911,-18.5447996 -115,5 -2.5069,55.21006 7.785,107.220425 15,160.000005 l 160,-20 z"
     style="fill:#ffffff;fill-opacity:1;stroke:none"
     inkscape:connector-curvature="0" />
  <path
     style="fill:#ffffff;fill-opacity:1;stroke:none"
     d="m 348.79576,169.46485 c 19.81227,-48.33333 32.40783,-96.666675 60,-145.000005 40.98574,-21.3208696 79.19107,-18.5447996 115,5 2.50691,55.21006 -7.785,107.220425 -15,160.000005 l -160,-20 z"
     id="path3269"
     sodipodi:nodetypes="ccccc"
     inkscape:connector-curvature="0" />
  <path
     style="fill:#ececec;fill-opacity:1;stroke:none"
     d="m 1998.7958,329.46485 c 120.3608,451.1431 100,919.99995 -200,999.99995 -80,20 -240,-200 -760,-200 -520.00008,0 -680.00008,220 -760.00008,200 -299.999998,-80 -320.360798,-548.85685 -199.999998,-999.99995 20,-120 369.336998,-202.68872 419.999998,-180 50.663,22.68872 200,100 540.00008,100 340,0 468.3499,-76.22865 540,-100 71.65,-23.77135 400,60 420,180 z"
     id="path2386"
     sodipodi:nodetypes="cczcczzzc"
     inkscape:connector-curvature="0" />
  <path
     sodipodi:nodetypes="cczcczzzc"
     id="path3189"
     d="m 78.795762,389.46485 c -120.36088,451.1431 -100,859.99995 199.999998,939.99995 80,20 240,-200 760.00004,-200 520,0 680,220 760,200 300,-80 320.3608,-488.85685 200,-939.99995 -40,-120 -369.337,-142.68872 -420,-120 -50.663,22.68872 -200,140 -540,140 -340.00004,0 -468.34998,-116.22865 -540.00004,-140 -71.65006,-23.77135 -334.84656,-7.34144 -419.999998,120 z"
     style="fill:#d5d5d5;fill-opacity:1;stroke:none"
     inkscape:connector-curvature="0" />
  <path
     sodipodi:type="arc"
     style="fill:#ececec;fill-opacity:1;stroke:none"
     id="path3163"
     sodipodi:cx="960"
     sodipodi:cy="1384"
     sodipodi:rx="200"
     sodipodi:ry="200"
     d="m 1160,1384 a 200,200 0 1 1 -400,0 200,200 0 1 1 400,0 z"
     transform="translate(-261.20424,-374.53515)" />
  <path
     transform="matrix(0.8,0,0,0.8,590.79576,-97.735155)"
     d="m 1160,1384 a 200,200 0 1 1 -400,0 200,200 0 1 1 400,0 z"
     sodipodi:ry="200"
     sodipodi:rx="200"
     sodipodi:cy="1384"
     sodipodi:cx="960"
     id="path3173"
     style="fill:#606060;fill-opacity:0.66976743;stroke:none"
     sodipodi:type="arc" />
  <path
     transform="translate(398.79576,-374.53515)"
     d="m 1160,1384 a 200,200 0 1 1 -400,0 200,200 0 1 1 400,0 z"
     sodipodi:ry="200"
     sodipodi:rx="200"
     sodipodi:cy="1384"
     sodipodi:cx="960"
     id="path3165"
     style="fill:#ececec;fill-opacity:1;stroke:none"
     sodipodi:type="arc" />
  <path
     sodipodi:type="arc"
     style="fill:#ececec;fill-opacity:1;stroke:none"
     id="path3167"
     sodipodi:cx="960"
     sodipodi:cy="1384"
     sodipodi:rx="200"
     sodipodi:ry="200"
     d="m 1160,1384 a 200,200 0 1 1 -400,0 200,200 0 1 1 400,0 z"
     transform="translate(-641.20424,-694.53515)" />
  <path
     transform="matrix(0.7,0,0,0.7,-353.20424,-279.33515)"
     d="m 1160,1384 a 200,200 0 1 1 -400,0 200,200 0 1 1 400,0 z"
     sodipodi:ry="200"
     sodipodi:rx="200"
     sodipodi:cy="1384"
     sodipodi:cx="960"
     id="path3169"
     style="fill:#7d7d7d;fill-opacity:1;stroke:none"
     sodipodi:type="arc" />
  <path
     sodipodi:type="arc"
     style="fill:#7d7d7d;fill-opacity:1;stroke:none"
     id="path3171"
     sodipodi:cx="960"
     sodipodi:cy="1384"
     sodipodi:rx="200"
     sodipodi:ry="200"
     d="m 1160,1384 a 200,200 0 1 1 -400,0 200,200 0 1 1 400,0 z"
     transform="matrix(0.8,0,0,0.8,-69.204238,-97.735155)" />
  <path
     sodipodi:type="arc"
     style="fill:#3fbf00;fill-opacity:1;stroke:none"
     id="path3175"
     sodipodi:cx="960"
     sodipodi:cy="1384"
     sodipodi:rx="200"
     sodipodi:ry="200"
     d="m 1160,1384 a 200,200 0 1 1 -400,0 200,200 0 1 1 400,0 z"
     transform="matrix(0.65,0,0,0.65,424.79576,-250.13515)" />
  <rect
     style="fill:#f7f7f7;fill-opacity:1;stroke:none"
     id="rect3177"
     width="120"
     height="85"
     x="728.79578"
     y="624.46484"
     ry="40"
     rx="40" />
  <rect
     rx="40"
     ry="40"
     y="624.46484"
     x="1237.6771"
     height="85"
     width="120"
     id="rect3179"
     style="fill:#f7f7f7;fill-opacity:1;stroke:none" />
  <path
     sodipodi:type="arc"
     style="fill:#003cbe;fill-opacity:1;stroke:none"
     id="path3181"
     sodipodi:cx="1820"
     sodipodi:cy="984"
     sodipodi:rx="80"
     sodipodi:ry="80"
     d="m 1900,984 a 80,80 0 1 1 -160,0 80,80 0 1 1 160,0 z"
     transform="matrix(1.0625,0,0,1.0625,-349.95424,-426.03515)" />
  <path
     transform="matrix(1.0625,0,0,1.0625,-164.95424,-581.03515)"
     d="m 1900,984 a 80,80 0 1 1 -160,0 80,80 0 1 1 160,0 z"
     sodipodi:ry="80"
     sodipodi:rx="80"
     sodipodi:cy="984"
     sodipodi:cx="1820"
     id="path3183"
     style="fill:#f2c813;fill-opacity:1;stroke:none"
     sodipodi:type="arc" />
  <path
     sodipodi:type="arc"
     style="fill:#e5340a;fill-opacity:1;stroke:none"
     id="path3185"
     sodipodi:cx="1820"
     sodipodi:cy="984"
     sodipodi:rx="80"
     sodipodi:ry="80"
     d="m 1900,984 a 80,80 0 1 1 -160,0 80,80 0 1 1 160,0 z"
     transform="matrix(1.0625,0,0,1.0625,-9.9542379,-426.03515)" />
  <path
     transform="matrix(1.0625,0,0,1.0625,-164.95424,-261.03515)"
     d="m 1900,984 a 80,80 0 1 1 -160,0 80,80 0 1 1 160,0 z"
     sodipodi:ry="80"
     sodipodi:rx="80"
     sodipodi:cy="984"
     sodipodi:cx="1820"
     id="path3187"
     style="fill:#2fa01e;fill-opacity:1;stroke:none"
     sodipodi:type="arc" />
  <path
     style="fill:#ffffff;fill-opacity:1;stroke:#595959;stroke-width:20;stroke-linecap:round;stroke-linejoin:bevel;stroke-miterlimit:4;stroke-opacity:1;stroke-dasharray:none"
     d="m 1558.7958,229.46485 c -19.4959,-17.9458 -27.0009,-39.88859 -40,-60 20,0 33.0473,-39.87674 60,-40 135,-25 250.7992,13.45064 380,100 15,15 15,60 0,80 -145,-110 -235,-95 -400,-80 z"
     id="path3191"
     sodipodi:nodetypes="cccccc"
     inkscape:connector-curvature="0" />
  <path
     sodipodi:nodetypes="cccccc"
     id="path3197"
     d="m 518.79572,229.46485 c 19.4959,-17.9458 27.0009,-39.88859 40,-60 -20,0 -33.0473,-39.87674 -60,-40 -135,-25 -250.7992,13.45064 -380,100 -15,15 -15,60 0,80 145,-110 235,-95 400,-80 z"
     style="fill:#ffffff;fill-opacity:1;stroke:#595959;stroke-width:20;stroke-linecap:round;stroke-linejoin:bevel;stroke-miterlimit:4;stroke-opacity:1;stroke-dasharray:none"
     inkscape:connector-curvature="0" />
  <path
     sodipodi:type="arc"
     style="fill:#545454;fill-opacity:1;stroke:none"
     id="path3277"
     sodipodi:cx="580"
     sodipodi:cy="924"
     sodipodi:rx="10"
     sodipodi:ry="10"
     d="m 590,924 a 10,10 0 1 1 -20,0 10,10 0 1 1 20,0 z"
     transform="translate(-261.20424,-344.53515)" />
  <path
     d="m 590,924 a 10,10 0 1 1 -20,0 10,10 0 1 1 20,0 z"
     sodipodi:ry="10"
     sodipodi:rx="10"
     sodipodi:cy="924"
     sodipodi:cx="580"
     id="path3279"
     style="fill:#545454;fill-opacity:1;stroke:none"
     sodipodi:type="arc"
     transform="translate(-261.20424,-124.53515)" />
  <path
     transform="translate(-151.20424,-234.53515)"
     sodipodi:type="arc"
     style="fill:#545454;fill-opacity:1;stroke:none"
     id="path3281"
     sodipodi:cx="580"
     sodipodi:cy="924"
     sodipodi:rx="10"
     sodipodi:ry="10"
     d="m 590,924 a 10,10 0 1 1 -20,0 10,10 0 1 1 20,0 z" />
  <path
     d="m 590,924 a 10,10 0 1 1 -20,0 10,10 0 1 1 20,0 z"
     sodipodi:ry="10"
     sodipodi:rx="10"
     sodipodi:cy="924"
     sodipodi:cx="580"
     id="path3283"
     style="fill:#545454;fill-opacity:1;stroke:none"
     sodipodi:type="arc"
     transform="translate(-371.20424,-234.53515)" />
  <path
     sodipodi:type="arc"
     style="fill:#7d7d7d;fill-opacity:1;stroke:none"
     id="path3285"
     sodipodi:cx="960"
     sodipodi:cy="1384"
     sodipodi:rx="200"
     sodipodi:ry="200"
     d="m 1160,1384 a 200,200 0 1 1 -400,0 200,200 0 1 1 400,0 z"
     transform="matrix(0.7,0,0,0.7,686.79576,40.664845)" />
  <path
     d="m 590,924 a 10,10 0 1 1 -20,0 10,10 0 1 1 20,0 z"
     sodipodi:ry="10"
     sodipodi:rx="10"
     sodipodi:cy="924"
     sodipodi:cx="580"
     id="path3287"
     style="fill:#545454;fill-opacity:1;stroke:none"
     sodipodi:type="arc"
     transform="translate(778.79576,-24.535155)" />
  <path
     transform="translate(778.79576,195.46485)"
     sodipodi:type="arc"
     style="fill:#545454;fill-opacity:1;stroke:none"
     id="path3289"
     sodipodi:cx="580"
     sodipodi:cy="924"
     sodipodi:rx="10"
     sodipodi:ry="10"
     d="m 590,924 a 10,10 0 1 1 -20,0 10,10 0 1 1 20,0 z" />
  <path
     d="m 590,924 a 10,10 0 1 1 -20,0 10,10 0 1 1 20,0 z"
     sodipodi:ry="10"
     sodipodi:rx="10"
     sodipodi:cy="924"
     sodipodi:cx="580"
     id="path3291"
     style="fill:#545454;fill-opacity:1;stroke:none"
     sodipodi:type="arc"
     transform="translate(888.79586,85.464845)" />
  <path
     transform="translate(668.79576,85.464845)"
     sodipodi:type="arc"
     style="fill:#545454;fill-opacity:1;stroke:none"
     id="path3293"
     sodipodi:cx="580"
     sodipodi:cy="924"
     sodipodi:rx="10"
     sodipodi:ry="10"
     d="m 590,924 a 10,10 0 1 1 -20,0 10,10 0 1 1 20,0 z" />
  <path
     style="fill:#ffffff;fill-opacity:1;stroke:none"
     d="m 518.79572,229.46485 c 19.4959,-17.9458 27.0009,-39.88859 40,-60 -20,0 -33.0473,-39.87674 -60,-40 -135,-25 -250.7992,13.45064 -380,100 -15,15 -15,60 0,80 145,-110 235,-95 400,-80 z"
     id="path3331"
     sodipodi:nodetypes="cccccc"
     inkscape:connector-curvature="0" />
  <path
     sodipodi:nodetypes="cccccc"
     id="path3333"
     d="m 1558.7958,229.46485 c -19.4959,-17.9458 -27.0009,-39.88859 -40,-60 20,0 33.0473,-39.87674 60,-40 135,-25 250.7992,13.45064 380,100 15,15 15,60 0,80 -145,-110 -235,-95 -400,-80 z"
     style="fill:#ffffff;fill-opacity:1;stroke:none"
     inkscape:connector-curvature="0" />
  <path
     style="fill:#d1d1d1;fill-opacity:1;stroke:none"
     d="m 803.79576,644.46485 -40,25 40,25 0,-50 z"
     id="path3335"
     inkscape:connector-curvature="0" />
  <path
     id="path3339"
     d="m 1283.7958,644.46485 40,25 -40,25 0,-50 z"
     style="fill:#d1d1d1;fill-opacity:1;stroke:none"
     inkscape:connector-curvature="0" />
  <path
     style="fill:#545454;fill-opacity:1;stroke:none"
     d="m 698.79576,849.46485 c -90,0 -45,65 -70,90 -25,25 -90,-20 -90,69.99995 0,90 65,45 90,70 25,25 -20,90 70,90 90,0 45,-65 70,-90 25,-25 90,20 90,-70 0,-89.99995 -65,-44.99995 -90,-69.99995 -25,-25 20,-90 -70,-90 z"
     id="path3353"
     inkscape:connector-curvature="0" />
  <path
     style="fill:#ffffff;fill-opacity:0.38604653;stroke:none"
     d="m 1538.7958,549.46485 30,70 -30,70 30,0 15,-35 15,35 30,0 -30,-70 30,-70 -30,0 -15,35 -15,-35 -30,0 z"
     id="path3363"
     inkscape:connector-curvature="0" />
  <path
     style="fill:#ffffff;fill-opacity:0.38604653;stroke:none"
     d="m 1758.7958,709.46485 -35,140 30,0 6.4375,-45 17.125,0 6.4375,45 30,0 -35,-140 -20,0 z m 10,35 5.7188,40 -11.4376,0 5.7188,-40 z"
     id="path3371"
     inkscape:connector-curvature="0" />
  <path
     id="path3376"
     d="m 1723.7958,394.46485 30,70 0,70 30,0 0,-70 30,-70 -30,0 -15,35 -15,-35 -30,0 z"
     style="fill:#ffffff;fill-opacity:0.38604653;stroke:none"
     sodipodi:nodetypes="cccccccccc"
     inkscape:connector-curvature="0" />
  <path
     style="fill:#ffffff;fill-opacity:0.38604653;stroke:none"
     d="m 1893.7958,549.46485 0,140 37.5,0 0,-0.0938 c 0.824,0.0542 1.6624,0.0938 2.5,0.0938 20.7,0 37.5,-16.8 37.5,-37.5 0,-13.89532 -7.5741,-26.02138 -18.8125,-32.5 11.2384,-6.47862 18.8125,-18.60468 18.8125,-32.5 0,-20.7 -16.8,-37.5 -37.5,-37.5 -0.8376,0 -1.676,0.0396 -2.5,0.0937 l 0,-0.0937 -37.5,0 z m 17.5,20 22.5,0 2.5,0 0,0.15625 c 11.25,1.24002 13.75,5.76508 13.75,17.34375 0,11.57867 -2.5,16.10373 -13.75,17.34375 l 0,0.15625 -2.5,0 -22.5,0 0,-17.5 0,-17.5 z m 0,65 22.5,0 2.5,0 0,0.15625 c 11.25,1.24002 13.75,5.76508 13.75,17.34375 0,11.57867 -2.5,16.1037 -13.75,17.3438 l 0,0.1562 -2.5,0 -22.5,0 0,-17.5 0,-17.5 z"
     id="path3378"
     sodipodi:nodetypes="ccccsscsscccccccsccccccccccscccccc"
     inkscape:connector-curvature="0" />
  <path
     transform="matrix(0.575,0,0,0.575,496.79576,-146.33515)"
     d="m 1160,1384 a 200,200 0 1 1 -400,0 200,200 0 1 1 400,0 z"
     sodipodi:ry="200"
     sodipodi:rx="200"
     sodipodi:cy="1384"
     sodipodi:cx="960"
     id="path3038"
     style="fill:#567b44;fill-opacity:1;stroke:none"
     sodipodi:type="arc" />
  <path
     style="fill:#567b44;fill-opacity:1;fill-rule:nonzero;stroke:none"
     d="m 1048.8083,519.46485 c -2.963,0 -5.899,0.0861 -8.8125,0.28125 l 0,119.71875 -120.81253,0 c -0.25118,3.30115 -0.375,6.63451 -0.375,10 0,3.36549 0.12382,6.69885 0.375,10 l 120.81253,0 0,119.7188 c 2.9135,0.1951 5.8495,0.2812 8.8125,0.2812 3.7712,0 7.4977,-0.154 11.1875,-0.4688 l 0,-119.5312 118.4062,0 c 0.2512,-3.30115 0.4063,-6.63451 0.4063,-10 0,-3.36549 -0.1551,-6.69885 -0.4063,-10 l -118.4062,0 0,-119.53125 c -3.6898,-0.3147 -7.4163,-0.46875 -11.1875,-0.46875 z"
     id="rect3808"
     inkscape:connector-curvature="0" />
</svg>
