<svg width="325.44131" height="325.44131" xmlns="http://www.w3.org/2000/svg" xmlns:xlink="http://www.w3.org/1999/xlink">
 <defs>
  <linearGradient id="linearGradient3602">
   <stop stop-color="#ffffff" id="stop3604" offset="0"/>
   <stop stop-color="#ffffff" stop-opacity="0" id="stop3606" offset="1"/>
  </linearGradient>
  <linearGradient id="linearGradient3586">
   <stop stop-color="#ffc800" id="stop3588" offset="0"/>
   <stop stop-color="#ffff00" id="stop3594" offset="0.847703"/>
   <stop stop-color="#ffff00" id="stop3590" offset="1"/>
  </linearGradient>
  <linearGradient id="linearGradient3184">
   <stop stop-color="#ffea00" id="stop3186" offset="0"/>
   <stop stop-color="#ffff00" stop-opacity="0" id="stop3188" offset="1"/>
  </linearGradient>
  <filter id="filter2797">
   <feGaussianBlur id="feGaussianBlur2799" stdDeviation="18.047757"/>
  </filter>
  <radialGradient gradientTransform="matrix(1,0,0,0.9481109,0,24.806954)" gradientUnits="userSpaceOnUse" xlink:href="#linearGradient3184" id="radialGradient3192" fy="478.07648" fx="325.71429" r="440.5" cy="478.07648" cx="325.71429"/>
  <filter id="filter3198">
   <feGaussianBlur id="feGaussianBlur3200" stdDeviation="8.581428"/>
  </filter>
  <radialGradient gradientTransform="matrix(1,0,0,0.9481109,26,10.806954)" gradientUnits="userSpaceOnUse" xlink:href="#linearGradient3184" id="radialGradient3203" fy="478.07648" fx="325.71429" r="440.5" cy="478.07648" cx="325.71429"/>
  <radialGradient gradientTransform="matrix(1,0,0,1.0128779,0,-5.9174624)" gradientUnits="userSpaceOnUse" xlink:href="#linearGradient3586" id="radialGradient3592" fy="442.58014" fx="278.57141" r="221.86427" cy="442.58014" cx="278.57141"/>
  <linearGradient xlink:href="#linearGradient3602" id="linearGradient3600" y2="1.450036" x2="0.5" y1="0" x1="0.5"/>
  <filter id="filter3672">
   <feGaussianBlur id="feGaussianBlur3674" stdDeviation="6.698786"/>
  </filter>
 </defs>
 <g>
  <title>Layer 1</title>
  <g id="layer1" transform="translate(-28 -88) scale(0.45 0.45)">
   <path fill="url(#radialGradient3203)" fill-rule="nonzero" stroke-width="1px" filter="url(#filter3198)" id="path2801" d="m-63.272858,13.150238c127.835739,223.771027 453.477844,278.832123 375.978119,-145.264236c77.226898,358.135178 415.153015,303.456512 478.517456,72.632111c-183.692139,428.550797 93.838684,382.269882 294.801086,337.525772c-339.835693,231.978943 -224.537781,357.366699 12.817383,452.882568c-473.414307,-88.008423 -380.510254,283.112854 -256.348694,474.245178c-178.67041,-261.548828 -435.733337,-400.623413 -576.784515,-12.817505c26.967041,-332.91687 -182.613892,-430.355225 -448.610229,-175.171509c192.046341,-327.861816 300.810287,-458.20929 -55.542175,-559.694672c294.454819,9.29715 428.136475,-98.640076 175.17157,-444.337708z"/>
   <path stroke="#f6c600" fill="url(#radialGradient3592)" fill-rule="evenodd" stroke-width="12.3" stroke-linejoin="round" stroke-miterlimit="4" filter="url(#filter3672)" id="path2176" d="m743.798157,553.191406c0,180.511292 -144.420349,326.844543 -322.571991,326.844543c-178.151642,0 -322.572075,-146.333252 -322.572075,-326.844543c0,-180.511169 144.420433,-326.844513 322.572075,-326.844513c178.151642,0 322.571991,146.333344 322.571991,326.844513l0,0z"/>
   <path fill="url(#linearGradient3600)" fill-rule="evenodd" stroke-width="12.3" stroke-linejoin="round" stroke-miterlimit="4" filter="url(#filter2797)" id="path3596" d="m643.164734,390.83728c0,80.100067 -102.234497,145.033997 -228.347198,145.033997c-126.112793,0 -228.347321,-64.933929 -228.347321,-145.033997c0,-80.099976 102.234528,-145.033905 228.347321,-145.033905c126.112701,0 228.347198,64.933929 228.347198,145.033905l0,0z"/>
  </g>
 </g>
</svg>