<?xml version="1.0" encoding="UTF-8" standalone="no"?>
<!-- Created with Inkscape (http://www.inkscape.org/) -->

<svg
   xmlns:dc="http://purl.org/dc/elements/1.1/"
   xmlns:cc="http://creativecommons.org/ns#"
   xmlns:rdf="http://www.w3.org/1999/02/22-rdf-syntax-ns#"
   xmlns:svg="http://www.w3.org/2000/svg"
   xmlns="http://www.w3.org/2000/svg"
   xmlns:xlink="http://www.w3.org/1999/xlink"
   version="1.1"
   width="1000"
   height="1000"
   id="svg10018"
   style="display:inline">
  <title
     id="title10187">American Football</title>
  <defs
     id="defs10020">
    <linearGradient
       id="linearGradient10874">
      <stop
         id="stop10876"
         style="stop-color:#3c1a0f;stop-opacity:1"
         offset="0" />
      <stop
         id="stop10878"
         style="stop-color:#d7bbb3;stop-opacity:1"
         offset="1" />
    </linearGradient>
    <linearGradient
       id="linearGradient10852">
      <stop
         id="stop10854"
         style="stop-color:#391b0f;stop-opacity:1"
         offset="0" />
      <stop
         id="stop10856"
         style="stop-color:#5b2318;stop-opacity:1"
         offset="0.10989064" />
      <stop
         id="stop10858"
         style="stop-color:#5b2318;stop-opacity:1"
         offset="0.2747266" />
      <stop
         id="stop10860"
         style="stop-color:#905036;stop-opacity:1"
         offset="1" />
    </linearGradient>
    <linearGradient
       id="linearGradient10752">
      <stop
         id="stop10754"
         style="stop-color:#905036;stop-opacity:1"
         offset="0" />
      <stop
         id="stop10760"
         style="stop-color:#5b2318;stop-opacity:1"
         offset="0.22499996" />
      <stop
         id="stop10762"
         style="stop-color:#5b2318;stop-opacity:1"
         offset="0.61250001" />
      <stop
         id="stop10756"
         style="stop-color:#905036;stop-opacity:1"
         offset="1" />
    </linearGradient>
    <linearGradient
       x1="498.7532"
       y1="756.47388"
       x2="498.7532"
       y2="349.53339"
       id="linearGradient10758"
       xlink:href="#linearGradient10752"
       gradientUnits="userSpaceOnUse" />
    <linearGradient
       x1="498.7532"
       y1="756.47388"
       x2="498.7532"
       y2="349.53339"
       id="linearGradient10758-3"
       xlink:href="#linearGradient10752-9"
       gradientUnits="userSpaceOnUse" />
    <linearGradient
       id="linearGradient10752-9">
      <stop
         id="stop10754-9"
         style="stop-color:#905036;stop-opacity:1"
         offset="0" />
      <stop
         id="stop10760-7"
         style="stop-color:#5b2318;stop-opacity:1"
         offset="0.22499996" />
      <stop
         id="stop10762-8"
         style="stop-color:#5b2318;stop-opacity:1"
         offset="0.61250001" />
      <stop
         id="stop10756-1"
         style="stop-color:#905036;stop-opacity:1"
         offset="1" />
    </linearGradient>
    <linearGradient
       x1="498.7532"
       y1="750.28534"
       x2="498.7532"
       y2="353.79749"
       id="linearGradient10797"
       xlink:href="#linearGradient10852"
       gradientUnits="userSpaceOnUse"
       gradientTransform="matrix(0.93679084,-0.85929128,0.85927092,0.93681304,-400.209,462.78557)" />
    <linearGradient
       x1="509.97107"
       y1="544.7467"
       x2="509.89749"
       y2="278.81351"
       id="linearGradient10872"
       xlink:href="#linearGradient10874"
       gradientUnits="userSpaceOnUse"
       gradientTransform="matrix(0.93679084,-0.85929128,0.85927092,0.93681304,-400.209,462.78557)" />
    <linearGradient
       x1="498.7532"
       y1="750.28534"
       x2="498.7532"
       y2="353.79749"
       id="linearGradient10933"
       xlink:href="#linearGradient10852"
       gradientUnits="userSpaceOnUse"
       gradientTransform="matrix(0.93679084,-0.85929128,0.85927092,0.93681304,-400.209,462.78557)" />
    <linearGradient
       x1="509.97107"
       y1="544.7467"
       x2="509.89749"
       y2="278.81351"
       id="linearGradient10935"
       xlink:href="#linearGradient10874"
       gradientUnits="userSpaceOnUse"
       gradientTransform="matrix(0.93679084,-0.85929128,0.85927092,0.93681304,-400.209,462.78557)" />
    <linearGradient
       x1="509.97107"
       y1="544.7467"
       x2="509.89749"
       y2="278.81351"
       id="linearGradient10949"
       xlink:href="#linearGradient10874"
       gradientUnits="userSpaceOnUse"
       gradientTransform="matrix(0.93679084,-0.85929128,0.85927092,0.93681304,-400.209,462.78557)" />
    <linearGradient
       x1="498.7532"
       y1="750.28534"
       x2="498.7532"
       y2="353.79749"
       id="linearGradient10954"
       xlink:href="#linearGradient10852"
       gradientUnits="userSpaceOnUse"
       gradientTransform="matrix(0.93679084,-0.85929128,0.85927092,0.93681304,-400.209,462.78557)" />
    <pattern
       id="pattern11050"
       patternTransform="translate(908.49326,821.85024)"
       height="21.849281"
       width="27.389408"
       patternUnits="userSpaceOnUse">
      <path
         style="fill:#8b4c33;fill-opacity:1;stroke:none"
         d="m 11.006939,11.766717 c 3.53863,-1.00734 3.37013,-1.51101 6.74025,0.16789 3.37013,1.6789 2.02208,2.51836 0.67402,4.02937 -1.34805,1.51101 -5.89771,4.86881 -7.58277,3.02202 -1.6850596,-1.84679 -3.7071396,-1.51101 -2.8646096,-3.3578 0.84254,-1.84679 3.0331096,-3.86148 3.0331096,-3.86148 z"
         id="path11012" />
      <path
         style="fill:#8b4c33;fill-opacity:1;stroke:none"
         d="m 19.937769,4.8832268 c -2.6961,1.6789 -4.38116,2.18258 -3.70713,3.69358 0.67402,1.5110202 2.19057,3.0220302 3.37012,3.0220302 1.17955,0 3.70714,2.01467 4.88668,0.50367 1.17954,-1.51102 3.20161,-2.1825702 2.8646,-4.1972602 -0.33701,-2.01468 0,-2.51835 -2.69609,-3.3578 -2.6961,-0.83945 -4.71818,0.33578 -4.71818,0.33578 z"
         id="path11014" />
      <path
         style="fill:#8b4c33;fill-opacity:1;stroke:none"
         d="m 21.117319,14.956637 c -1.68506,2.18257 -3.37013,2.18257 -3.20162,3.52569 0.16851,1.34313 1.17954,3.52569 3.37012,3.35781 2.19059,-0.1679 4.71818,-0.50367 4.88668,-2.51835 0.1685,-2.01469 1.85357,-4.19726 0,-4.86882 -1.85357,-0.67156 -5.05518,0.50367 -5.05518,0.50367 z"
         id="path11016" />
      <path
         style="fill:#8b4c33;fill-opacity:1;stroke:none"
         d="m 8.8163694,8.4089168 c 3.0330996,0.83945 4.0441396,0.33578 4.7181596,-0.16789 0.67403,-0.50367 1.17955,-1.17522 2.35909,-2.68624 1.17954,-1.51101 0.67403,-3.18991 -0.16851,-4.36515 -0.84252,-1.17523001 -0.84252,-1.17523001 -2.69609,-0.50367001 -1.85357,0.67156001 -3.2016196,1.00734001 -3.2016196,3.02203001 0,2.01468 -1.01103,4.70092 -1.01103,4.70092 z"
         id="path11018" />
      <path
         style="fill:#8b4c33;fill-opacity:1;stroke:none"
         d="m 7.8053294,3.2043268 c -0.33701,2.35046 0.84253,3.69358 -1.01104,5.37248 -1.85356,1.6789002 -4.38116,5.3724802 -5.05518,2.5183502 -0.67403,-2.8541302 -2.86461,-4.1972502 -1.01103996,-6.8835002 1.85355996,-2.68624 2.19057996,-4.86881001 4.21265996,-4.02936001 2.02207,0.83945001 2.8646,3.02203001 2.8646,3.02203001 z"
         id="path11020" />
      <path
         style="fill:#8b4c33;fill-opacity:1;stroke:none"
         d="m 7.4683194,10.591487 c 1.85356,-0.50366 2.52759,-1.3431202 1.01103,2.18257 -1.51655,3.5257 -3.37012,7.72295 -4.38115,7.21928 -1.01105,-0.50367 -2.5276,-3.86147 -2.19059,-5.2046 0.33701,-1.34311 2.35909,-1.17523 3.20162,-2.35045 0.84253,-1.17524 2.35909,-1.8468 2.35909,-1.8468 z"
         id="path11022" />
    </pattern>
  </defs>
  <metadata
     id="metadata10023">
    <rdf:RDF>
      <cc:Work
         rdf:about="">
        <dc:format>image/svg+xml</dc:format>
        <dc:type
           rdf:resource="http://purl.org/dc/dcmitype/StillImage" />
        <dc:title>American Football</dc:title>
        <dc:date>2010-09-26</dc:date>
        <dc:creator>
          <cc:Agent>
            <dc:title>Jason M. Simanek</dc:title>
          </cc:Agent>
        </dc:creator>
        <dc:subject>
          <rdf:Bag>
            <rdf:li>football american ball</rdf:li>
          </rdf:Bag>
        </dc:subject>
        <cc:license
           rdf:resource="http://creativecommons.org/licenses/publicdomain/" />
      </cc:Work>
      <cc:License
         rdf:about="http://creativecommons.org/licenses/publicdomain/">
        <cc:permits
           rdf:resource="http://creativecommons.org/ns#Reproduction" />
        <cc:permits
           rdf:resource="http://creativecommons.org/ns#Distribution" />
        <cc:permits
           rdf:resource="http://creativecommons.org/ns#DerivativeWorks" />
      </cc:License>
    </rdf:RDF>
  </metadata>
  <g
     id="layer6"
     style="display:inline">
    <g
       id="g11074">
      <path
         d="M 260.22998,242.48137 C 470.1658,49.913268 703.98475,47.532005 770.08568,50.385068 c 54.62038,2.357528 100.80717,8.002418 121.58694,12.396784 34.72414,7.343202 25.19502,7.326969 46.70206,33.007536 21.50704,25.680552 34.24941,26.987242 35.02154,68.387552 0.63801,34.20985 5.9807,206.32797 -60.34965,357.27939 C 846.71623,672.40774 800.01888,710.03126 739.76995,765.29586 679.52102,820.56049 542.1954,908.16837 389.20063,939.41276 309.93153,955.601 91.167989,947.06301 77.167901,929.07468 71.53281,920.81281 63.008922,911.5861 56.237943,906.56889 41.050059,890.01042 30.871477,855.35209 29.290079,826.7009 27.708705,798.04972 16.141958,636.81123 89.837646,480.57732 163.53333,324.34338 260.22998,242.48137 260.22998,242.48137 z"
         id="path10183"
         style="fill:url(#linearGradient10954);fill-opacity:1;stroke:#391b0f;stroke-width:2;stroke-miterlimit:4;stroke-opacity:1;stroke-dasharray:none" />
      <path
         d="m 81.755224,498.51796 c -17.3289,40.26708 -29.250982,80.50171 -37.386457,118.38716 4.818331,9.88876 10.691583,21.77292 12.387198,24.37738 2.656177,4.07989 9.865844,7.23 9.865844,7.23 0,0 -0.242327,5.6715 6.79062,13.33911 7.032937,7.66761 100.308981,117.63022 135.917081,158.81973 35.60808,41.1895 60.58173,66.04874 63.82771,69.58765 1.85929,2.02707 5.42593,4.42909 8.25249,6.17628 15.54338,-4.29812 40.82795,-11.57423 59.30004,-18.33097 25.78555,-9.43187 41.73328,-15.98019 51.25389,-20.16845 -0.92898,-3.52649 -2.81866,-8.44018 -6.47019,-10.99162 C 379.44487,842.71791 284.07114,742.33106 236.06895,686.44495 188.06676,630.55884 117.30146,551.02397 114.05547,547.48507 c -3.24597,-3.53891 -3.42299,-13.19377 -3.42299,-13.19377 0,0 -2.97467,3.81788 -10.49979,-5.57037 -7.525143,-9.38825 -13.347522,-19.2363 -15.954901,-24.44702 -0.629912,-1.25888 -1.480816,-3.35189 -2.422565,-5.75595 z"
         id="path10193"
         style="fill:#ffffff;fill-opacity:1;stroke:none" />
      <path
         d="m 552.32529,77.766606 c 7.63956,1.441012 16.46761,3.703628 22.29898,7.091847 10.11737,5.878554 7.2293,4.24664 15.93404,12.552883 6.15741,5.875514 3.64879,6.799974 1.64447,6.847034 3.42627,0.19543 12.98556,0.99306 15.66045,3.90933 3.24598,3.5389 82.22576,81.73805 133.76678,134.3781 51.541,52.64006 131.27214,147.86139 134.96149,154.25175 1.93948,3.35937 5.35639,5.89185 8.19194,7.57949 6.30148,-11.34514 20.92764,-38.30517 29.71813,-59.92671 6.41499,-15.77865 11.61403,-29.35213 15.13693,-38.68152 -0.26239,-4.25334 -0.85961,-8.28337 -2.19444,-9.73866 -3.24597,-3.53888 -55.74614,-68.37532 -93.71344,-107.40078 C 795.7633,149.6039 732.49669,89.955013 725.46374,82.287408 c -7.03294,-7.6676 -17.78238,-8.16213 -17.78238,-8.16213 0,0 -0.39445,-6.586318 -4.19542,-9.628207 -7.62553,-6.102593 -16.85096,-9.379951 -24.79421,-11.163956 -36.08498,3.660809 -79.18376,10.877817 -126.36644,24.433491 z"
         id="path10195"
         style="fill:#ffffff;fill-opacity:1;stroke:none" />
      <path
         d="M 289.82407,288.47182 C 153.44873,415.36486 99.956866,522.71273 62.979812,644.95321 25.41581,769.134 32.804613,835.60512 32.373579,851.8342 32.074175,863.10793 36.183118,872.29969 43.830113,885.54567 37.834902,874.50625 35.055522,867.86638 35.518324,857.14335 36.206673,841.1948 27.690146,771.61359 66.712267,649.02249 105.73438,526.43139 161.24615,418.64934 302.47704,289.10228 443.70795,159.55525 538.68,113.37364 686.09656,79.800983 825.89882,47.962402 908.84651,69.403179 921.63679,74.250316 c -1.2528,-1.158985 -2.28615,-1.964468 -2.96324,-2.3491 -5.51239,-3.131436 -87.15846,-27.85121 -236.2826,3.859766 C 533.2668,107.47192 437.61249,152.90973 296.3816,282.45677 c -2.20673,2.02418 -4.39288,4.00084 -6.55753,6.01505 z M 57.614387,909.32517 c 4.255587,4.72633 14.201974,13.91378 30.74835,18.47816 C 129.1115,939.04404 238.94544,917.804 343.3762,883.42091 447.80696,849.03785 586.2905,769.76262 672.31947,690.85072 c 86.02899,-78.9119 131.33491,-125.92511 204.77168,-257.42404 73.43676,-131.49891 82.9364,-214.75933 89.192,-261.42861 4.80064,-35.8148 -2.70914,-50.40223 -7.88548,-57.02305 4.85488,6.4989 10.54816,20.13343 3.90793,57.32934 -8.17256,45.77961 -15.72989,125.31454 -90.20896,255.67711 C 797.61757,558.34402 752.22615,605.26402 666.19718,684.17592 580.1682,763.08783 442.45895,843.20723 339.02614,878.6783 235.59335,914.1494 125.01858,934.58176 85.059921,924.20246 70.101335,920.31695 61.6113,913.44971 57.614387,909.32517 z M 958.39767,114.97502 c -0.3498,-0.44736 -0.66239,-0.87296 -0.98631,-1.25152 0.31958,0.38304 0.6541,0.80699 0.98631,1.25152 z m -4.38923,-5.13792 c 0.45698,0.53357 1.00195,1.20989 1.3109,1.54674 0.27987,0.30513 0.64798,0.70457 0.96669,1.05393 -0.38192,-0.41639 -1.62793,-1.86474 -2.27759,-2.60067 z"
         id="path10191"
         style="opacity:0.45588235;fill:url(#linearGradient10949);fill-opacity:1;stroke:none" />
      <path
         d="m 146.14492,542.94509 c -7.17967,-0.30989 -10.21239,-1.46838 -5.62277,-12.57391 4.58961,-11.10554 28.10577,-103.60232 170.40723,-234.13136 142.30145,-130.52905 251.72297,-165.88266 266.66154,-166.77929 14.93858,-0.89662 9.50037,6.06187 8.03201,16.27451 -1.46835,10.21265 6.21325,46.51027 -7.29377,61.85512 -13.50701,15.34485 -21.5758,23.73118 -21.5758,23.73118 0,0 5.25742,-14.6733 -5.04726,-25.90789 -10.30468,-11.2346 -97.69652,25.58368 -208.43487,127.16077 -110.73835,101.57712 -134.58306,142.16583 -131.0559,155.6769 3.2648,12.506 32.7328,3.46801 32.7328,3.46801 0,0 -5.34593,16.72469 -18.58733,25.9154 -23.59212,16.37502 -80.21588,25.31056 -80.21588,25.31056 z"
         id="path10232"
         style="opacity:0.34313725;fill:none;stroke:#000000;stroke-width:4.00000048;stroke-linecap:butt;stroke-linejoin:miter;stroke-miterlimit:4;stroke-opacity:1;stroke-dasharray:32.00000151, 4.00000018;stroke-dashoffset:0" />
      <path
         d="m 104.07456,479.3177 c -0.30988,7.17985 -2.61006,18.66035 6.14438,12.09547 9.61361,-7.20919 36.68572,-88.3279 178.98718,-218.85695 C 431.50758,142.02718 519.23048,108.41023 532.64027,101.76609 543.47659,96.397027 529.29395,94.412292 517.51329,96.343816 467.79031,104.49625 339.2204,176.75546 267.69624,250.17921 146.85314,369.62932 117.39498,438.21002 104.07456,479.3177 z"
         id="path10234"
         style="opacity:0.34313725;fill:none;stroke:#000000;stroke-width:4.00000048;stroke-linecap:butt;stroke-linejoin:miter;stroke-miterlimit:4;stroke-opacity:1;stroke-dasharray:32.00000151, 4.00000018;stroke-dashoffset:0" />
      <path
         d="m 142.44823,452.04543 c -4.65014,-5.11623 -5.48695,-8.09277 0.88539,-18.55629 6.37234,-10.46353 14.69792,-20.83383 21.39548,-27.85578 6.69755,-7.02195 14.23192,-11.06736 18.92968,-17.20582 4.6977,-6.1385 11.72144,-19.99699 18.46561,-27.99558 6.74413,-7.99859 19.90625,-17.15926 23.0691,-21.9027 3.16288,-4.74342 7.07035,-14.83512 19.39565,-26.97234 12.32528,-12.1372 20.37125,-16.64763 24.46416,-20.36782 4.0929,-3.72015 7.30236,-9.44026 19.16262,-22.08909 11.86026,-12.64883 19.85965,-16.18262 26.51061,-22.22791 6.65093,-6.04533 4.41908,-10.55674 20.13925,-22.04251 15.72018,-11.48578 25.62621,-13.94973 31.76555,-19.53 6.13937,-5.58024 11.48845,-15.11374 23.58073,-22.36773 12.09229,-7.25397 21.39353,-7.29959 29.48611,-12.78666 8.09259,-5.48708 13.3951,-14.0439 21.9993,-19.99598 8.60419,-5.95212 33.25378,-19.94844 39.57853,-19.15721 6.32477,0.79124 10.69627,1.48926 15.34639,6.6055 4.65013,5.11621 -4.7909,8.09178 -13.34851,13.06724 -8.55758,4.97545 -18.23161,12.83426 -22.32452,16.55445 -4.09291,3.72015 -16.37158,14.88072 -22.41771,18.50773 -6.04614,3.62699 -18.55684,9.39268 -29.11428,15.25158 -10.55747,5.8589 -15.39496,14.92735 -25.58059,23.25116 -10.18564,8.32382 -26.13781,14.41476 -30.27731,19.11159 -4.13949,4.69682 -16.55798,18.78732 -22.18569,23.90258 -5.62774,5.11525 -18.27822,13.81091 -23.39434,18.46112 -5.1161,4.65026 -16.65119,20.74064 -22.74394,25.34427 -6.09272,4.60363 -16.23176,11.9508 -23.95254,19.90281 -7.72077,7.95199 -12.18645,19.48535 -20.41884,27.90238 -8.23238,8.41702 -18.37142,15.76419 -25.11557,23.76278 -6.74415,7.99859 -8.09357,15.76518 -15.90755,25.67049 -7.81398,9.90527 -15.95316,16.36899 -23.20893,24.83262 -7.25575,8.46362 -12.51167,16.04379 -16.27936,23.20554 -3.76767,7.16176 -6.37234,10.46353 -9.1158,6.41712 -2.74349,-4.04638 -8.78863,-10.69749 -8.78863,-10.69749 z"
         id="path10214"
         style="fill:#eeeeee;fill-opacity:1;stroke:#b8b8b8;stroke-width:1.00000012;stroke-linecap:butt;stroke-linejoin:miter;stroke-miterlimit:4;stroke-opacity:1;stroke-dasharray:none" />
      <path
         d="m 134.20541,442.79762 c -2.20815,-2.94985 -5.20455,-5.67423 1.41428,-14.73071 6.61883,-9.05647 9.50155,-9.71055 11.21404,-7.30111 1.7125,2.40946 10.56753,13.69086 17.73244,22.04474 7.16488,8.3539 18.63244,19.22903 21.85431,22.74164 3.22186,3.51262 3.29084,7.92718 3.3598,12.34173 0.0691,4.41455 0.72304,7.29735 -5.20077,6.26315 -5.92383,-1.03421 -11.80294,-3.10449 -18.29141,-9.09365 -6.48846,-5.98914 -20.68221,-19.8365 -23.63389,-23.59698 -2.95168,-3.76045 -8.4488,-8.66881 -8.4488,-8.66881 z"
         id="path10216"
         style="fill:#ffffff;fill-opacity:1;stroke:#b8b8b8;stroke-width:1.00000012;stroke-linecap:butt;stroke-linejoin:miter;stroke-miterlimit:4;stroke-opacity:1;stroke-dasharray:none" />
      <path
         d="m 172.50038,391.2521 c -1.93796,-3.19768 -2.50261,-8.15264 1.07701,-12.92873 3.5796,-4.77607 5.80823,-8.31294 8.12821,-7.9533 2.31996,0.35964 3.78463,2.49889 6.24062,5.71895 2.456,3.22007 6.33195,9.61545 15.25407,19.34272 8.92209,9.72725 15.50001,13.64423 19.21755,17.69725 3.71754,4.05302 9.57428,6.64136 8.62955,10.49314 -0.94474,3.85179 -1.3938,8.244 -4.29887,9.41613 -2.90508,1.17212 -12.47747,0.49945 -19.97964,-6.05246 -7.50216,-6.55193 -19.55482,-15.89528 -24.75939,-21.56951 -5.20457,-5.67424 -9.50911,-14.16419 -9.50911,-14.16419 z"
         id="path10218"
         style="fill:#ffffff;fill-opacity:1;stroke:#b8b8b8;stroke-width:1.00000012;stroke-linecap:butt;stroke-linejoin:miter;stroke-miterlimit:4;stroke-opacity:1;stroke-dasharray:none" />
      <path
         d="m 297.59452,249.45129 c -1.29508,-2.38606 -0.64923,-6.55249 2.74737,-9.66811 3.39664,-3.11561 6.54894,-11.36815 10.71525,-10.72227 4.16634,0.64585 6.15082,8.65407 12.86713,15.00237 6.71633,6.34832 23.2244,23.37198 30.02103,27.85964 6.79663,4.48764 8.05156,7.80404 8.82127,11.56552 0.76969,3.76149 -0.32123,7.44267 -3.19246,9.18286 -2.87125,1.7402 -5.70234,2.55008 -15.69481,-3.47361 -9.9925,-6.02369 -28.88656,-21.75225 -34.2275,-27.57516 -5.34095,-5.82292 -12.05728,-12.17124 -12.05728,-12.17124 z"
         id="path10220"
         style="fill:#ffffff;fill-opacity:1;stroke:#b8b8b8;stroke-width:1.00000012;stroke-linecap:butt;stroke-linejoin:miter;stroke-miterlimit:4;stroke-opacity:1;stroke-dasharray:none" />
      <path
         d="m 358.89432,189.64873 c 3.88185,-3.56069 7.8474,1.73682 11.89327,5.17368 4.04587,3.43685 26.33993,26.76868 31.2358,32.10635 4.89586,5.33767 12.25803,7.51957 11.57203,12.61632 -0.68599,5.09676 2.02463,7.07788 -2.3023,10.15335 -4.32692,3.07548 -11.80956,3.68457 -17.59557,-2.62358 -5.78603,-6.30815 -25.85472,-27.21378 -29.90058,-30.65064 -4.04587,-3.43686 -11.32774,-7.47941 -13.55312,-9.90562 -2.2254,-2.42623 -5.90648,-3.51718 -1.05416,-7.96806 4.85231,-4.4509 9.70463,-8.9018 9.70463,-8.9018 z"
         id="path10222"
         style="fill:#ffffff;fill-opacity:1;stroke:#b8b8b8;stroke-width:1.00000012;stroke-linecap:butt;stroke-linejoin:miter;stroke-miterlimit:4;stroke-opacity:1;stroke-dasharray:none" />
      <path
         d="m 415.3486,155.73488 c 4.73185,-1.65989 8.85802,-0.0836 14.68419,5.29413 5.82616,5.37783 28.20056,26.84899 31.3161,30.24569 3.11556,3.3967 7.40572,11.97047 6.75988,16.13688 -0.64584,4.16642 -6.02354,9.99273 -11.08002,8.37638 -5.05647,-1.61634 -11.97356,-3.313 -15.77851,-12.33185 -3.80494,-9.01884 -23.14408,-25.23265 -26.70472,-29.11458 -3.56062,-3.88195 -7.92771,0.12382 -11.48833,-3.7581 -3.56063,-3.88193 -4.37048,-6.71308 0.40153,-9.30332 4.77202,-2.59023 11.88988,-5.54523 11.88988,-5.54523 z"
         id="path10224"
         style="fill:#ffffff;fill-opacity:1;stroke:#b8b8b8;stroke-width:1.00000012;stroke-linecap:butt;stroke-linejoin:miter;stroke-miterlimit:4;stroke-opacity:1;stroke-dasharray:none" />
      <path
         d="m 266.21508,274.66075 c 4.32692,-3.07546 4.53109,2.99177 8.57695,6.42863 4.04586,3.43684 25.61038,22.07687 32.24642,30.28586 6.63602,8.20896 10.68187,11.64582 8.0148,19.45326 -2.66707,7.80744 -3.5974,7.76729 -12.73988,3.64441 -9.14248,-4.12287 -17.47852,-16.13349 -25.53009,-23.93752 -8.05155,-7.80404 -15.69821,-14.19252 -20.14898,-19.04495 -4.45079,-4.85244 -2.4697,-7.56312 0.44168,-10.23365 2.9114,-2.67055 9.1391,-6.59604 9.1391,-6.59604 z"
         id="path10226"
         style="fill:#ffffff;fill-opacity:1;stroke:#b8b8b8;stroke-width:1.00000012;stroke-linecap:butt;stroke-linejoin:miter;stroke-miterlimit:4;stroke-opacity:1;stroke-dasharray:none" />
      <path
         d="m 466.02023,126.23175 c 7.11788,-2.955 11.80958,-3.68457 16.30051,0.23753 4.49094,3.92211 31.9218,27.00961 35.40212,32.75222 3.48032,5.74261 7.32542,13.83114 5.74927,17.95741 -1.57615,4.12626 0.004,10.7189 -11.3645,4.16978 -11.36787,-6.54907 -18.20466,-10.10639 -23.06038,-16.3744 -4.85571,-6.26801 -9.43035,-19.04834 -16.67206,-24.02123 -7.24171,-4.9729 -9.18264,-3.19254 -11.89328,-5.17366 -2.71062,-1.98114 1.2917,-8.33285 1.2917,-8.33285 z"
         id="path10228"
         style="fill:#ffffff;fill-opacity:1;stroke:#b8b8b8;stroke-width:1.00000012;stroke-linecap:butt;stroke-linejoin:miter;stroke-miterlimit:4;stroke-opacity:1;stroke-dasharray:none" />
      <path
         d="m 218.4616,322.93114 c 3.39663,-3.11561 2.9114,-2.67053 8.25234,3.15239 5.34095,5.82291 7.0811,8.69421 14.64744,16.94336 7.56633,8.24912 10.39742,7.43927 15.73836,13.26217 5.34094,5.82292 9.91218,7.88437 12.50236,12.65649 2.59014,4.77212 3.03523,5.25737 0.93368,10.75904 -2.10152,5.50168 -12.3751,5.99033 -23.13728,-3.79485 -10.7622,-9.78516 -31.76118,-30.73093 -35.28167,-35.54321 -3.52047,-4.81227 -1.90417,-9.86888 0.48185,-11.16399 2.386,-1.29511 5.86292,-6.2714 5.86292,-6.2714 z"
         id="path10230"
         style="fill:#ffffff;fill-opacity:1;stroke:#b8b8b8;stroke-width:1.00000012;stroke-linecap:butt;stroke-linejoin:miter;stroke-miterlimit:4;stroke-opacity:1;stroke-dasharray:none" />
    </g>
  </g>
</svg>
