<?xml version="1.0" encoding="UTF-8"?>
<!-- Generator: Adobe Illustrator 12.0.1, SVG Export Plug-In . SVG Version: 6.00 Build 51448)  -->
<!DOCTYPE svg PUBLIC "-//W3C//DTD SVG 1.1//EN" "http://www.w3.org/Graphics/SVG/1.1/DTD/svg11.dtd" [
	<!ENTITY ns_svg "http://www.w3.org/2000/svg">
	<!ENTITY ns_xlink "http://www.w3.org/1999/xlink">
]>
<svg version="1.1" id="Layer_1" xmlns="http://www.w3.org/2000/svg" xmlns:xlink="http://www.w3.org/1999/xlink" width="252.18" height="251.593" viewBox="0 0 252.18 251.593" overflow="visible" enable-background="new 0 0 252.18 251.593" xml:space="preserve">
<g>
	<path fill-rule="evenodd" clip-rule="evenodd" d="M110.247,3.961c0.065,1.666-2.432,0.769-2.4,2.4   c-0.227,1.987,2.245,1.275,3.36,1.92c-1.529,2.327-5.745,0.329-6.24-1.44C105.589,4.743,107.354,3.788,110.247,3.961z"/>
	<path fill-rule="evenodd" clip-rule="evenodd" d="M157.767,7.321c0.384,2.016,2.335,2.465,2.399,4.8   c-2.676,0.276-3.939-0.86-5.279-1.92C154.438,7.833,155.398,6.873,157.767,7.321z"/>
	<path fill-rule="evenodd" clip-rule="evenodd" d="M139.526,9.721c-0.789,1.61-3.468,1.332-4.32,2.88   c-0.34,1.78,0.82,2.06,0.48,3.84c-1.778,0.019-2.783-0.737-3.84-1.44c0-1.12,0-2.24,0-3.36   C133.59,10.494,136.752,8.24,139.526,9.721z"/>
	<path fill-rule="evenodd" clip-rule="evenodd" d="M114.086,11.641c-1.416,1.144-3.096,2.023-3.84,3.84   c0.216,1.383,1.699,1.501,1.44,3.36c-0.567,0.553-1.697,0.543-2.88,0.48C105.59,15.58,109.075,9.638,114.086,11.641z"/>
	<path fill-rule="evenodd" clip-rule="evenodd" d="M183.206,16.921c-1.343,3.531,1.168,4.096,1.921,6.72   c-3.837,0.692-10.198-4.51-7.681-8.64C179.952,15.056,181.798,15.77,183.206,16.921z"/>
	<path fill-rule="evenodd" clip-rule="evenodd" d="M90.086,15.961c-1.868,2.741-5.2,5.038-4.32,9.12   C80.916,24.833,85.02,15.132,90.086,15.961z"/>
	<path fill-rule="evenodd" clip-rule="evenodd" d="M161.606,16.921c-1.472,2.672,0.562,4.484,0.96,6.72   c-2.938,1.058-5.73-1.862-5.28-5.76C158.278,17.146,160.1,15.654,161.606,16.921z"/>
	<path fill-rule="evenodd" clip-rule="evenodd" d="M142.887,19.801c-2.406,2.447-7.032,5.166-3.36,9.6   C131.761,30.392,134.707,17.667,142.887,19.801z"/>
	<path fill-rule="evenodd" clip-rule="evenodd" d="M117.446,22.681c-0.918,2.122-4.078,2.002-4.8,4.32   c-0.76,2.84,1.684,2.476,1.44,4.8C106.745,31.316,111.161,19.156,117.446,22.681z"/>
	<path fill-rule="evenodd" clip-rule="evenodd" d="M70.887,24.601c-2.262,2.539-5.146,4.455-7.2,7.2   C61.768,28.738,66.116,24.124,70.887,24.601z"/>
	<path fill-rule="evenodd" clip-rule="evenodd" d="M198.566,26.041c-0.514,2.255-4.106-0.052-2.4-1.44   C197.165,24.882,197.718,25.609,198.566,26.041z"/>
	<path fill-rule="evenodd" clip-rule="evenodd" d="M195.687,27.481c-0.48,0-0.96,0-1.44,0c0.285-1.531-0.9-1.484,0-2.4   C195.088,25.52,195.914,25.973,195.687,27.481z"/>
	<path fill-rule="evenodd" clip-rule="evenodd" d="M192.807,27.481c-0.518,0.947-3.982,0.82-3.36-0.96   C190.667,25.357,191.787,27,192.807,27.481z"/>
	<path fill-rule="evenodd" clip-rule="evenodd" d="M188.007,29.401c1.271,2.912-0.674,4.953,0,7.2   c0.707,2.361,3.176,2.421,3.84,5.28C183.821,43.102,173.506,23.97,188.007,29.401z"/>
	<path fill-rule="evenodd" clip-rule="evenodd" d="M91.526,28.921c-1.246,3.554-4.905,4.695-4.8,9.6   C82.504,35.475,86.924,28.994,91.526,28.921z"/>
	<path fill-rule="evenodd" clip-rule="evenodd" d="M165.927,30.361c-0.116,1.964-1.35,2.811-1.92,4.32   c0.394,2.486,3.062,2.698,2.88,5.76C161.452,42.375,157.089,29.536,165.927,30.361z"/>
	<path fill-rule="evenodd" clip-rule="evenodd" d="M50.727,34.681c0.48,0,0.96,0,1.44,0c2.438,5.223-1.723,11.12-7.2,11.52   C47.088,42.515,52.941,39.798,50.727,34.681z"/>
	<path fill-rule="evenodd" clip-rule="evenodd" d="M145.767,35.641c-2.649,2.617-5.416,4.579-3.36,9.6   c-3.544,0.024-3.812-3.228-3.84-6.72C140.213,37.118,142.718,34.044,145.767,35.641z"/>
	<path fill-rule="evenodd" clip-rule="evenodd" d="M203.847,36.121c0.64,0,1.28,0,1.92,0c0.656,0.614,0.656,2.266,0,2.88   C204.63,38.537,203.408,38.159,203.847,36.121z"/>
	<path fill-rule="evenodd" clip-rule="evenodd" d="M71.847,36.601c-2.279,2.841-5.294,4.946-7.2,8.16   C61.438,41.708,67.522,36.784,71.847,36.601z"/>
	<path fill-rule="evenodd" clip-rule="evenodd" d="M120.327,38.041c-2.839,2.199-4.669,7.158-3.84,11.52   C110.023,47.553,114.593,36.052,120.327,38.041z"/>
	<path fill-rule="evenodd" clip-rule="evenodd" d="M193.767,42.841c0.075,1.575-1.96,2.303-2.88,1.44   C191.294,43.248,192.068,42.583,193.767,42.841z"/>
	<path fill-rule="evenodd" clip-rule="evenodd" d="M96.807,43.321c-1.095,3.988-7.263,5.048-5.76,10.08   C86.245,50.181,92.001,43.099,96.807,43.321z"/>
	<path fill-rule="evenodd" clip-rule="evenodd" d="M194.246,48.601c-3.091,2.095-6.3,5.864-4.319,11.52   c-3.747-1.304-7.213-5.924-6.24-10.08C184.708,45.675,190.799,45.87,194.246,48.601z"/>
	<path fill-rule="evenodd" clip-rule="evenodd" d="M170.727,50.041c-2.841,3.135-4.211,7.134-2.4,11.52   C160.967,61.486,162.388,46.127,170.727,50.041z"/>
	<path fill-rule="evenodd" clip-rule="evenodd" d="M127.526,51.481c-1.411,2.38-4.333,1.865-6.24,3.36   c-2.655,2.082-3.25,5.489-4.8,8.64C111.427,57.936,120.328,47.657,127.526,51.481z"/>
	<path fill-rule="evenodd" clip-rule="evenodd" d="M76.646,51.481c-3.603,1.837-6.438,4.442-9.12,7.2   C67.545,53.535,71.997,50.411,76.646,51.481z"/>
	<path fill-rule="evenodd" clip-rule="evenodd" d="M33.447,51.961c0.775-0.135,0.826,0.454,1.44,0.48   c0.445,4.285-1.8,5.88-3.36,8.16C30.125,59.399,33.469,54.952,33.447,51.961z"/>
	<path fill-rule="evenodd" clip-rule="evenodd" d="M53.606,54.361c-4.846-2.046-5.463,4.079-8.64,5.28   C43.476,55.978,51.626,48.576,53.606,54.361z"/>
	<path fill-rule="evenodd" clip-rule="evenodd" d="M151.047,53.401c-3.453,2.467-7.582,4.258-7.2,10.56   C136.68,60.394,145.041,50.242,151.047,53.401z"/>
	<path fill-rule="evenodd" clip-rule="evenodd" d="M104.006,57.721c-6.564,0.476-8.989,5.091-11.04,10.08   C88.703,62.883,98.417,52.809,104.006,57.721z"/>
	<path fill-rule="evenodd" clip-rule="evenodd" fill="#FFFFFF" d="M205.767,60.601c-1.375,0.094-2.62,0.06-2.4-1.44   C204.078,58.442,205.848,59.116,205.767,60.601z"/>
	<path fill-rule="evenodd" clip-rule="evenodd" d="M83.367,63.001c-4.96,1.28-7.798,4.682-11.52,7.2   C71.333,63.899,78.296,60.59,83.367,63.001z"/>
	<path fill-rule="evenodd" clip-rule="evenodd" fill="#FFFFFF" d="M202.406,63.481c1.026-1.149,3.418,0.395,3.36,1.92   C204.014,65.394,203.611,64.037,202.406,63.481z"/>
	<path fill-rule="evenodd" clip-rule="evenodd" d="M113.606,74.041c0.194,2.045-0.465,4.945,0.48,6.24   c4.693-2.292,1.196-14.728,4.8-15.36c1.355,1.579,0.331,7.628-0.48,10.08c2.4-0.48,2.198-3.562,5.28-3.36   c0.167,2.407-2.125,2.355-2.4,4.32c-0.108,1.708,0.324,2.876,1.44,3.36c1.799-3.151,2.127-13.27,7.2-7.68   c-0.641,0.799-2.72,0.16-3.36,0.96c-0.22,1.5,1.025,1.534,2.4,1.44c0.158,2.078-2.658,1.182-2.4,3.36   c4.479,1.272,5.076-5.48,5.76-9.6c1.797,1.018,2.522,1.246,4.32,1.44c-0.047,1.936-1.93,3.842-0.48,5.76   c1.087-0.514,2.111-1.089,2.881-1.92c1.971,3.242-2.21,5.444-4.801,4.32c-0.979-1.834-0.098-3.67,0-5.76   c-2.47,6.061-5.943,9.433-13.439,9.6c0.025-1.465-1.729-1.151-1.44-2.88c-1.498,0.263-0.736,2.784-1.44,3.84   c-1.255,0.135-2.065-0.176-1.92-1.44c-2.694,1.552-4.985,3.877-9.12,2.88C104.843,78.238,108.316,72.136,113.606,74.041z    M109.287,81.721c1.661-0.739,3.065-3.753,1.92-5.76C108.326,75.344,107.274,80.505,109.287,81.721z"/>
	<path fill-rule="evenodd" clip-rule="evenodd" d="M40.167,68.281c-1.055,1.062-1.595-0.841-2.88-0.96   c-3.709,1.411-6.091,4.149-7.2,8.16C26.954,71.014,37.295,60.857,40.167,68.281z"/>
	<path fill-rule="evenodd" clip-rule="evenodd" d="M190.406,65.401c0.654,2.154-1.933,2.331-2.88,1.44   C187.699,65.574,188.68,65.114,190.406,65.401z"/>
	<path fill-rule="evenodd" clip-rule="evenodd" fill="#FFFFFF" d="M196.166,65.401c1.73,0.19,3.059,0.782,3.36,2.4   C197.604,67.803,195.938,67.549,196.166,65.401z"/>
	<path fill-rule="evenodd" clip-rule="evenodd" fill="#FFFFFF" d="M201.927,66.361c1.303-1.271,3.115,1.021,3.359,2.4   C203.22,68.907,203.409,66.798,201.927,66.361z"/>
	<path fill-rule="evenodd" clip-rule="evenodd" d="M106.407,85.081c-0.558-0.078-0.854,0.106-0.96,0.48   c-2.958-1.202-2.336-5.984-2.4-10.08c-2.124,2.196-1.397,7.243-2.88,10.08c-1.87-0.05-1.755-2.084-1.92-3.84   c-1.428,1.916-0.836,7.481-6.24,6.72c-1.161-1.264-1.867-2.83-0.48-4.32c1.266-0.146,1.238,1.002,1.44,1.92   c5.096-1.913,1.755-11.877,5.76-15.84c2.223,0.817-0.033,6.112,1.44,7.68c2.004-3.275,1.79-8.771,5.76-10.08   C104.812,72.516,105.336,79.853,106.407,85.081z"/>
	<path fill-rule="evenodd" clip-rule="evenodd" d="M194.727,70.681c-1.35,1.208-2.76-0.433-4.32-0.48c0-0.48,0-0.96,0-1.44   C191.571,68.066,194.797,68.628,194.727,70.681z"/>
	<path fill-rule="evenodd" clip-rule="evenodd" d="M187.047,68.761c0.96,0,1.92,0,2.88,0c-0.063,1.537-1.089,2.112-2.88,1.92   C187.047,70.041,187.047,69.401,187.047,68.761z"/>
	<path fill-rule="evenodd" clip-rule="evenodd" fill="#FFFFFF" d="M230.246,69.241c-2.824,3.035-0.227,7.859,1.44,10.56   C228.727,78.701,225.737,70.709,230.246,69.241z"/>
	<path fill-rule="evenodd" clip-rule="evenodd" d="M61.287,70.681c-4.089,1.67-7.299,4.221-10.08,7.2   C50.125,73.162,56.915,68.496,61.287,70.681z"/>
	<path fill-rule="evenodd" clip-rule="evenodd" fill="#FFFFFF" d="M217.767,69.721c-2.018,0.873-4.009,4.299-2.4,7.2   C212.714,77.39,213.891,68.703,217.767,69.721z"/>
	<path fill-rule="evenodd" clip-rule="evenodd" d="M184.646,73.561c-5.641,1.08-8.288,5.152-8.16,12   c-2.474-0.829-4.438-3.852-4.8-5.76C170.142,71.672,180.534,65.936,184.646,73.561z"/>
	<path fill-rule="evenodd" clip-rule="evenodd" d="M24.327,71.161c2.818,2.559,0.608,8.114-1.44,10.08   c-1.385-1.658,1.161-7.27-1.44-9.6C22.014,71.088,23.143,71.098,24.327,71.161z"/>
	<path fill-rule="evenodd" clip-rule="evenodd" d="M162.087,76.441c-7.645-0.476-10.886,5.578-10.08,12   C140.339,83.905,155.648,66.765,162.087,76.441z"/>
	<path fill-rule="evenodd" clip-rule="evenodd" fill="#FFFFFF" d="M199.526,74.041c-1.157,1.882-5.948,0.131-7.68,1.44   C191.276,73.217,197.371,74.038,199.526,74.041z"/>
	<path fill-rule="evenodd" clip-rule="evenodd" fill="#FFFFFF" d="M111.207,75.961c1.146,2.007-0.259,5.021-1.92,5.76   C107.274,80.505,108.326,75.344,111.207,75.961z"/>
	<path fill-rule="evenodd" clip-rule="evenodd" d="M85.287,83.641c-1.385,1.378-2.849-1.641-3.84,0.48   c-0.455,1.734,1.891,0.669,2.88,0.96c-0.25,2.15-2.717,2.083-3.36,3.84c0.17,0.63,0.845,0.755,0.96,1.44   c2.745,0.185,2.763-2.357,4.8-2.88c0.463,4.633-5.24,6.269-7.68,3.84c-1.312,2.123-4.45,4.525-7.2,2.4   c-3.024,2.715-6.684,1.902-10.08,4.32c-4.626-2.805-0.181-11.478,6.24-10.56c0.987,1.624-1.162,4.558,0,6.24   c4.046-0.897,2.177-10.15,7.2-9.6c1.301,0.143,4.108,2.592,0.96,4.32c-0.712-0.408-1.032-1.208-0.96-2.4   c-2.67,0.107-2.946,4.169-1.44,5.76c5.456,0.521,5.857-3.862,5.28-8.16C80.479,82.125,84.923,79.582,85.287,83.641z M63.207,95.161   c2.487-0.084,3.349-4.315,2.4-6.24C63.975,89.982,61.792,92.604,63.207,95.161z"/>
	<path fill-rule="evenodd" clip-rule="evenodd" d="M62.727,84.601c-0.207,3.633-1.257,6.423-5.28,6.24   c-0.172-2.252,2.521-1.64,2.4-3.84c-0.313-4.4-5.687-2.568-7.68-0.96c-0.878,1.042,0.091,3.931-0.96,4.8   c-6.629-2.375,2.464-9.545,7.2-9.12C60.408,81.901,61.612,83.425,62.727,84.601z"/>
	<path fill-rule="evenodd" clip-rule="evenodd" d="M92.006,82.201c-0.025,1.958-2.918,2.852-4.32,1.92   C87.239,81.69,90.679,81.343,92.006,82.201z"/>
	<path fill-rule="evenodd" clip-rule="evenodd" d="M42.086,85.081c-5.14-0.98-5.109,3.211-8.16,4.32   C33.461,84.996,40.87,79.016,42.086,85.081z"/>
	<path fill-rule="evenodd" clip-rule="evenodd" d="M137.606,84.121c-3.143,3.897-8.317,5.763-8.64,12.48   C123.412,90.985,131.104,82.19,137.606,84.121z"/>
	<path fill-rule="evenodd" clip-rule="evenodd" d="M56.486,85.561c0.763,3.68-0.021,11.003-2.4,14.88   c-5.134,3.332-9.329-5.257-2.88-5.28c0.071,1.475-1.689,2.158-0.48,3.36C55.088,96.643,53.487,88.801,56.486,85.561z"/>
	<path fill-rule="evenodd" clip-rule="evenodd" fill="#FFFFFF" d="M233.606,86.521c0.427,0.373,1.084,0.516,1.92,0.48   c-0.254,0.386-0.501,0.779-0.479,1.44c-0.558-0.403-1.287-0.633-2.4-0.48C232.958,87.473,233.75,87.465,233.606,86.521z"/>
	<path fill-rule="evenodd" clip-rule="evenodd" fill="#FFFFFF" d="M188.486,88.441c2.657,1.964,5.884-0.166,8.641,0   c-1.641,3.012-3.66,0.113-6.721,1.92c0.007,0.954,1.31,0.61,0.96,1.92C190.065,91.342,188.748,90.419,188.486,88.441z"/>
	<path fill-rule="evenodd" clip-rule="evenodd" d="M31.046,92.281c-2.004,0.084-2.352-1.488-3.84-1.92   c-1.509,0.571-2.54,1.621-4.32,1.92C22.13,87.81,31.933,87.465,31.046,92.281z"/>
	<path fill-rule="evenodd" clip-rule="evenodd" fill="#FFFFFF" d="M65.606,88.921c0.949,1.925,0.087,6.156-2.4,6.24   C61.792,92.604,63.975,89.982,65.606,88.921z"/>
	<path fill-rule="evenodd" clip-rule="evenodd" d="M114.086,91.801c-5.38,0.7-8.065,4.095-11.04,7.2   c-0.235,1.515,0.865,1.695,0.48,3.36C97.339,97.001,109.355,86.123,114.086,91.801z"/>
	<path fill-rule="evenodd" clip-rule="evenodd" fill="#FFFFFF" d="M184.166,89.881c1.115,0.166,2.25,0.311,1.921,1.92   C184.865,91.742,184.225,91.103,184.166,89.881z"/>
	<path fill-rule="evenodd" clip-rule="evenodd" fill="#FFFFFF" d="M222.566,90.361c-1.672,2.877-3.781,10.475-1.439,13.92   C218.206,101.707,216.896,90.879,222.566,90.361z"/>
	<path fill-rule="evenodd" clip-rule="evenodd" fill="#FFFFFF" d="M237.927,96.121c-1.36-0.5-2.001-0.5-3.36,0   c-0.348,4.188,1.098,6.582,1.92,9.6c-2.793-3.01-5.575-13.739,0.48-14.88C238.132,91.964,238.94,94.184,237.927,96.121z"/>
	<path fill-rule="evenodd" clip-rule="evenodd" fill="#FFFFFF" d="M212.007,94.681c3.509,4.064,2.799,12.33-1.92,13.44   C212.59,104.609,213.346,99.744,212.007,94.681z"/>
	<path fill-rule="evenodd" clip-rule="evenodd" fill="#FFFFFF" d="M190.887,95.641c9.645,4.28,1.29,21.518-7.681,14.4   c-0.087-1.047,0.394-1.527,1.44-1.44c-0.032-1.408-1.098-1.783-1.92-2.4c1.211-1.308,3.281,2.505,5.28,0.48   c0.135-1.255-0.176-2.065-1.44-1.92c0.123-1.123,2.109-0.276,2.4,0c0.985-0.134,0.958-1.282,1.439-1.92   c-0.146-1.774-2.04-1.8-2.88-2.88c0.723-1.302,2.071,0.764,2.88,0.96C191.086,98.832,189.562,98.257,190.887,95.641z"/>
	<path fill-rule="evenodd" clip-rule="evenodd" d="M17.126,103.321c-2.542-1.043-1.709-7.256-6.24-4.8   C10.996,93.589,19.489,97.153,17.126,103.321z"/>
	<path fill-rule="evenodd" clip-rule="evenodd" d="M87.687,98.041c-3.359,2.561-8.049,3.791-9.6,8.16   C75.731,100.432,84.535,93.771,87.687,98.041z"/>
	<path fill-rule="evenodd" clip-rule="evenodd" d="M168.326,98.521c-5.028,1.483-12.207,6.212-10.56,14.4   C146.446,107.706,159.336,89.097,168.326,98.521z"/>
	<path fill-rule="evenodd" clip-rule="evenodd" d="M96.807,111.001c1.728,0.911,4.194-1.553,6.72-1.44   c1.292,4.683-5.646,4.343-9.12,5.76c-3.146-5.536,2.5-8.896,3.36-13.44c-0.091-0.389-0.481-0.479-0.48-0.96   c-4.208-1.168-2.158,3.922-6.24,2.88c-1.443-7.67,9.967-8.939,10.08-1.44C101.189,106.541,97.349,106.533,96.807,111.001z"/>
	<path fill-rule="evenodd" clip-rule="evenodd" d="M146.246,104.281c-6.907-2.936-13.725,3.321-14.399,11.04   C122.004,107.101,141.686,93.937,146.246,104.281z"/>
	<path fill-rule="evenodd" clip-rule="evenodd" d="M66.566,103.321c-3.586,3.454-8.484,5.596-9.6,11.52   C53.905,108.842,60.961,102.252,66.566,103.321z"/>
	<path fill-rule="evenodd" clip-rule="evenodd" d="M5.126,104.281c0.63,0.17,0.755,0.845,1.44,0.96   c-0.368,2.992,0.41,7.13-1.92,8.16C5.733,110.199,5.163,106.509,5.126,104.281z"/>
	<path fill-rule="evenodd" clip-rule="evenodd" d="M44.966,106.201c-4.007,1.592-7.042,4.158-8.16,8.64   C33.737,110.417,40.276,102.924,44.966,106.201z"/>
	<path fill-rule="evenodd" clip-rule="evenodd" d="M231.206,106.201c1.662-0.337,1.722,1.683,0.96,2.4   C231.19,108.251,230.206,107.157,231.206,106.201z"/>
	<path fill-rule="evenodd" clip-rule="evenodd" d="M118.406,108.601c-2.092,2.227-6.522,2.117-8.64,4.32   c-1.412,1.948-1.532,5.188-2.88,7.2C100.678,113.889,110.73,104.018,118.406,108.601z"/>
	<path fill-rule="evenodd" clip-rule="evenodd" d="M172.166,108.601c1.753,0.007,2.156,1.364,3.36,1.92   c-0.091,1.517-3.546,1.113-4.32,0.48C171.133,109.807,171.961,109.515,172.166,108.601z"/>
	<path fill-rule="evenodd" clip-rule="evenodd" d="M30.086,115.801c-4.983-0.67-8.093,2.985-9.12,7.68   C16.335,117.052,27.077,107.582,30.086,115.801z"/>
	<path fill-rule="evenodd" clip-rule="evenodd" d="M93.446,115.321c-5.759,1.601-9.802,4.918-11.04,11.041   C77.143,119.584,87.425,111.004,93.446,115.321z"/>
	<path fill-rule="evenodd" clip-rule="evenodd" d="M235.526,128.761c4.4-2.604,5.442-10.177,4.32-14.4   c6.243,0.048,6.065,20.33,0,20.64C236.932,135.15,235.113,131.442,235.526,128.761z"/>
	<path fill-rule="evenodd" clip-rule="evenodd" fill="#FFFFFF" d="M226.406,115.321c-1.424,2.541-2.346,8.969-5.279,11.52   C219.033,122.696,221.357,113.768,226.406,115.321z"/>
	<path fill-rule="evenodd" clip-rule="evenodd" fill="#FFFFFF" d="M205.286,117.721c1.061,3.309-2.73,5.903-1.439,11.04   C198.055,127.468,202.43,119.04,205.286,117.721z"/>
	<path fill-rule="evenodd" clip-rule="evenodd" d="M16.646,122.521c-4.854-0.695-5.31,3.01-7.2,5.28   C7.652,123.841,14.707,115.577,16.646,122.521z"/>
	<path fill-rule="evenodd" clip-rule="evenodd" d="M71.367,122.041c0.321,2.081-2.228,1.292-3.84,1.44   c-3.204,1.276-3.562,5.398-6.24,7.2C58.899,123.493,67.045,117.091,71.367,122.041z"/>
	<path fill-rule="evenodd" clip-rule="evenodd" fill="#FFFFFF" d="M189.446,136.44c4.021-2.838,9.125-6.683,6.72-14.399   C200.324,128.652,196.676,136.67,189.446,136.44z"/>
	<path fill-rule="evenodd" clip-rule="evenodd" fill="#FFFFFF" d="M173.606,123.961c0.64,0,1.28,0,1.92,0   c4.887,7.299-0.427,19.602-11.04,15.84c-0.316-1.443-1.845-1.675-1.439-3.84c1.247,0.287,1.727-0.192,1.439-1.44   c1.512-0.231,1.087,1.474,2.88,0.96c1.503-0.617,0.248-0.992,0.96-2.399c0.897,0.939,1.758,0.148,2.88,0   c0.386-1.665-0.715-1.846-0.479-3.36c0.861-0.061,1.013,0.588,1.92,0.48C171.337,126.86,174.115,127.548,173.606,123.961z"/>
	<path fill-rule="evenodd" clip-rule="evenodd" d="M149.606,127.801c-6.155,0.722-11.073,5.979-12,13.44   C127.688,134.574,142.441,117.11,149.606,127.801z"/>
	<path fill-rule="evenodd" clip-rule="evenodd" d="M6.566,126.841c0.83,1.891,1.856,3.584,1.92,6.24   c-1.835-1.524-2.772-3.947-4.32-5.76C4.724,126.918,5.454,126.688,6.566,126.841z"/>
	<path fill-rule="evenodd" clip-rule="evenodd" d="M52.167,131.161c-5.017-0.861-8.19,1.719-10.56,4.8   C39.083,129.321,49.639,124.829,52.167,131.161z"/>
	<path fill-rule="evenodd" clip-rule="evenodd" fill="#FFFFFF" d="M156.807,127.801c0.775-0.135,0.826,0.454,1.439,0.48   c-0.951,0.328,0.3,2.859-1.439,2.399C157.853,129.678,156.566,129.311,156.807,127.801z"/>
	<path fill-rule="evenodd" clip-rule="evenodd" d="M126.087,134.521c-7.596-0.9-12.944,3.374-13.92,10.561   C103.557,137.508,120.136,124.578,126.087,134.521z"/>
	<path fill-rule="evenodd" clip-rule="evenodd" d="M226.887,134.521c0.34,1.78-0.82,2.061-0.48,3.841   c-1.642,0.042-0.277-2.923-1.92-2.881C224.895,134.769,225.694,134.449,226.887,134.521z"/>
	<path fill-rule="evenodd" clip-rule="evenodd" d="M34.887,138.841c-3.633,0.025-6.345,0.562-7.68,3.84   C21.486,138.013,33.909,131.552,34.887,138.841z"/>
	<path fill-rule="evenodd" clip-rule="evenodd" d="M102.086,140.281c-2.066,2.612-6.013,1.168-8.64,2.399   c-2.398,1.125-2.621,3.844-5.28,3.84C86.744,138.265,98.197,134.59,102.086,140.281z"/>
	<path fill-rule="evenodd" clip-rule="evenodd" fill="#FFFFFF" d="M217.286,137.401c0.426,2.685-4.857,8.77-2.88,15.359   C207.912,150.249,212.316,138.525,217.286,137.401z"/>
	<path fill-rule="evenodd" clip-rule="evenodd" d="M238.406,139.321c2.5,6.881,0.38,20.425-7.68,16.8   c0.803-4.942,5.79-6.974,5.28-12.48c-0.222-2.394-2.184-2.39-1.44-4.8C235.905,137.559,236.938,139.29,238.406,139.321z"/>
	<path fill-rule="evenodd" clip-rule="evenodd" fill="#FFFFFF" d="M197.127,141.721c-2.604,3.637-7.011,5.47-6.721,12   C185.938,150.118,192.389,140.702,197.127,141.721z"/>
	<path fill-rule="evenodd" clip-rule="evenodd" d="M20.006,143.641c0,0.8,0,1.601,0,2.4c-3.381-0.821-3.021,2.099-5.28,2.399   c-0.946-1.002-0.367-3.187,0-4.319C16.36,143.902,18.372,142.356,20.006,143.641z"/>
	<path fill-rule="evenodd" clip-rule="evenodd" d="M80.966,147.961c-1.117,2.385-3.227,0.271-4.8,0.479   c-3.391,0.451-4.968,3.15-8.16,3.841C66.403,143.203,80.299,142.996,80.966,147.961z"/>
	<path fill-rule="evenodd" clip-rule="evenodd" d="M140.486,147.001c0.403,0.557,0.633,1.287,0.48,2.4   c-1.184,0.062-2.312,0.072-2.88-0.48C138.177,147.57,138.922,146.876,140.486,147.001z"/>
	<path fill-rule="evenodd" clip-rule="evenodd" fill="#FFFFFF" d="M146.727,147.961c-0.153,1.127-1.485,1.074-1.92,1.92   C143.377,149.03,145.084,147.323,146.727,147.961z"/>
	<path fill-rule="evenodd" clip-rule="evenodd" d="M11.367,151.321c-1.952-0.032-2.318,1.521-4.32,1.439   C5.493,148.646,11.718,147.409,11.367,151.321z"/>
	<path fill-rule="evenodd" clip-rule="evenodd" fill="#FFFFFF" d="M180.807,149.881c4.51,2.26-0.388,12.056-6.72,11.04   C177.964,159.025,183.472,155.335,180.807,149.881z"/>
	<path fill-rule="evenodd" clip-rule="evenodd" d="M59.847,155.161c-3.761-1.263-6.534,1.431-9.6,3.359   C47.16,152.029,58.974,148.411,59.847,155.161z"/>
	<path fill-rule="evenodd" clip-rule="evenodd" d="M133.286,152.761c0.614-0.656,2.267-0.656,2.88,0   C136.257,155.112,133.364,154.944,133.286,152.761z"/>
	<path fill-rule="evenodd" clip-rule="evenodd" d="M139.047,153.721c0.691,2.222-3.642,2.864-3.36,0.48   C136.305,153.54,137.771,153.726,139.047,153.721z"/>
	<path fill-rule="evenodd" clip-rule="evenodd" fill="#FFFFFF" d="M206.727,153.721c0.453,0.827,1.774,0.786,1.439,2.4   c-1.195-1.433-2.354-0.405-3.84-0.96C204.243,153.797,207.467,155.741,206.727,153.721z"/>
	<path fill-rule="evenodd" clip-rule="evenodd" d="M130.406,156.601c-0.114-1.614,1.783-2.479,2.88-1.439   C133.565,156.88,131.866,156.62,130.406,156.601z"/>
	<path fill-rule="evenodd" clip-rule="evenodd" d="M137.606,156.121c0.522,1.877,1.259,3.541,1.44,5.76   C136.135,161.095,137.541,157.5,137.606,156.121z"/>
	<path fill-rule="evenodd" clip-rule="evenodd" d="M136.166,156.601c-0.85,2.278,0.299,2.522,0.48,4.801   c-1.113,0.152-1.843-0.077-2.4-0.48c0.202-1.762,0.884-2.463-0.96-2.88C133.693,157.008,134.469,156.343,136.166,156.601z"/>
	<path fill-rule="evenodd" clip-rule="evenodd" d="M44.486,161.881c-3.549-0.023-7.883-0.093-8.64,3.84   c-2.657-1.269-0.823-5.281,0.48-6.72C39.642,158.016,43.902,158.704,44.486,161.881z"/>
	<path fill-rule="evenodd" clip-rule="evenodd" d="M214.406,159.48c1.978-0.231,0.684,2.343,0,2.4   C213.283,161.758,214.13,159.772,214.406,159.48z"/>
	<path fill-rule="evenodd" clip-rule="evenodd" d="M105.927,163.801c-7.355-0.315-10.237,3.844-12,9.12   C84.067,166.686,102.164,153.48,105.927,163.801z"/>
	<path fill-rule="evenodd" clip-rule="evenodd" d="M229.767,162.361c1.624,8.195-3.816,20.153-11.521,15.84   c5.785-1.536,7.961-10.961,4.32-16.32C224.922,160.203,227.832,160.479,229.767,162.361z"/>
	<path fill-rule="evenodd" clip-rule="evenodd" d="M233.606,176.761c-0.377-4.113,3.58-7.898,4.8-12   c-0.041-2.121-0.093-4.253,1.92-4.32C242.77,165.671,239.5,175.338,233.606,176.761z"/>
	<path fill-rule="evenodd" clip-rule="evenodd" d="M135.206,161.881c2.715,0.006,3.295,2.146,3.841,4.32c-0.96,0-1.92,0-2.881,0   C135.69,164.917,135.178,163.67,135.206,161.881z"/>
	<path fill-rule="evenodd" clip-rule="evenodd" d="M212.486,162.841c0.428-0.373,1.084-0.516,1.92-0.479   c0.153,1.112-0.077,1.843-0.479,2.399C212.662,164.905,212.352,164.097,212.486,162.841z"/>
	<path fill-rule="evenodd" clip-rule="evenodd" fill="#FFFFFF" d="M203.847,163.321c-1.185,1.535-3.374,2.066-4.8,3.359   c0.417,1.396,0.718,0.54,1.92,0.48c-1.51,3.771-4.31,6.251-4.801,11.04C191.549,173.006,197.121,164.258,203.847,163.321z"/>
	<path fill-rule="evenodd" clip-rule="evenodd" d="M30.086,169.561c-3.17-0.554-4.398-1.214-6.72,0.48   C18.791,163.979,32.479,164.091,30.086,169.561z"/>
	<path fill-rule="evenodd" clip-rule="evenodd" fill="#FFFFFF" d="M182.727,166.681c-3.938-1.266-7.72,2.21-10.08,5.28   C170.333,168.69,180.341,162.402,182.727,166.681z"/>
	<path fill-rule="evenodd" clip-rule="evenodd" d="M85.287,176.761c-1.57-0.35-2.115-1.725-2.88-2.88   c-5.333-0.532-8.933,0.668-10.56,3.84C63.966,167.635,87.919,165.498,85.287,176.761z"/>
	<path fill-rule="evenodd" clip-rule="evenodd" fill="#FFFFFF" d="M136.166,168.601c1.163,0.277,1.068,1.812,1.44,2.88   C136.122,171.525,136.176,170.031,136.166,168.601z"/>
	<path fill-rule="evenodd" clip-rule="evenodd" d="M21.447,175.321c-1.6,0-3.2,0-4.8,0C13.099,169.253,21.225,170.41,21.447,175.321   z"/>
	<path fill-rule="evenodd" clip-rule="evenodd" d="M106.887,174.841c-0.19-1.798,2.183-2.476,3.36-1.439   C110.133,175.303,108.278,175.462,106.887,174.841z"/>
	<path fill-rule="evenodd" clip-rule="evenodd" fill="#FFFFFF" d="M158.246,173.401c-3.438,0.833-8.262,1.994-9.6,6.239   C147.322,174.954,154.056,172.701,158.246,173.401z"/>
	<path fill-rule="evenodd" clip-rule="evenodd" d="M111.207,173.401c0.64,0,1.28,0,1.92,0c0.882,0.558-0.252,3.132,1.92,2.399   c-0.972,2.397-1.845-0.587-3.84,0C111.207,175.001,111.207,174.201,111.207,173.401z"/>
	<path fill-rule="evenodd" clip-rule="evenodd" fill="#FFFFFF" d="M118.406,174.361c1.609,0.15,0.484,3.035,1.92,3.359   C119.151,179.02,118.525,175.71,118.406,174.361z"/>
	<path fill-rule="evenodd" clip-rule="evenodd" d="M106.887,175.321c0.115,1.614-1.783,2.479-2.88,1.439   C103.892,175.146,105.79,174.28,106.887,175.321z"/>
	<path fill-rule="evenodd" clip-rule="evenodd" d="M66.086,184.921c-2.723-2.152-5.396-5.505-10.08-4.8   c-1.606,0.241-2.327,1.166-3.84,1.92C46.419,171.044,68.184,174.773,66.086,184.921z"/>
	<path fill-rule="evenodd" clip-rule="evenodd" d="M108.807,175.321c0.427,0.372,1.084,0.516,1.92,0.479   c0.44,2.04-1.15,2.05-2.88,1.92C107.435,176.189,108.602,176.236,108.807,175.321z"/>
	<path fill-rule="evenodd" clip-rule="evenodd" d="M103.526,177.721c0.807,2.278-2.762,2.646-2.4,0.48   C101.684,177.798,102.414,177.567,103.526,177.721z"/>
	<path fill-rule="evenodd" clip-rule="evenodd" d="M107.367,179.641c-1.459,0.02-3.159,0.279-2.88-1.439   C105.342,177.402,108.315,177.193,107.367,179.641z"/>
	<path fill-rule="evenodd" clip-rule="evenodd" d="M231.206,179.641c1.033,7.979-4.02,16.385-10.56,16.8   c1.989-4.73,6.757-6.683,5.76-14.399C227.831,181.208,229.137,178.298,231.206,179.641z"/>
	<path fill-rule="evenodd" clip-rule="evenodd" d="M202.887,181.561c-0.062,1.38-0.601,2.28-2.4,1.92c0-0.479,0-0.96,0-1.439   C201.044,181.638,201.773,181.408,202.887,181.561z"/>
	<path fill-rule="evenodd" clip-rule="evenodd" d="M92.006,182.041c1.184-0.063,2.313-0.073,2.88,0.479   c-0.407,1.033-1.183,1.698-2.88,1.44C92.006,183.321,92.006,182.681,92.006,182.041z"/>
	<path fill-rule="evenodd" clip-rule="evenodd" d="M213.446,182.521c4.652,8.204-4.557,20.727-12.479,16.32   c4.57-0.854,10.744-9.117,5.279-12.479C207.258,183.691,209.284,182.039,213.446,182.521z"/>
	<path fill-rule="evenodd" clip-rule="evenodd" d="M50.727,193.081c-3.822-2.724-7.104-5.679-12.48-3.36   C34.897,178.975,51.858,186.062,50.727,193.081z"/>
	<path fill-rule="evenodd" clip-rule="evenodd" d="M92.006,184.44c-0.046,2.21-1.624,1.984,0.48,2.881   c0.412,1.814-2.148,1.698-2.88,0.96c-0.35-1.31,0.954-0.967,0.96-1.92c-0.558,0.077-0.854-0.106-0.96-0.48   c-0.888,0.072-0.294,1.625-0.96,1.92c-0.8,0-1.6,0-2.4,0C87.003,185.717,89.763,183.484,92.006,184.44z"/>
	<path fill-rule="evenodd" clip-rule="evenodd" fill="#FFFFFF" d="M138.087,183.961c6.721,5.365-3.531,14.995-11.04,10.56   c-0.175-1.614,2.08-0.8,2.88-1.439c0.011-1.131-0.827-1.413-0.48-2.88c1.403,0.356,0.929,2.591,2.88,2.399   c1.219-1.108,0.689-2.14,0.48-3.84c0.846,0.435,0.793,1.768,1.92,1.92c2.274-0.921-0.812-2.416,0-4.8   c0.8,0.641,0.745,2.135,1.439,2.88C137.8,188.154,137.915,186.029,138.087,183.961z"/>
	<path fill-rule="evenodd" clip-rule="evenodd" fill="#FFFFFF" d="M186.566,184.921c-6.529,0.351-7.544,6.216-11.52,9.12   C173.641,188.146,182.238,182.069,186.566,184.921z"/>
	<path fill-rule="evenodd" clip-rule="evenodd" fill="#FFFFFF" d="M99.687,196.44c-0.383-2.463,1.011-3.148,0.96-5.279   c0.941,1.948,3.316-0.093,2.88-2.4c1.262-0.142,0.378,1.862,1.92,1.44c1.824-0.438,0.352-1.93,0.48-3.36   c0.843,0.437,0.878,1.682,1.44,2.4c2.47-0.41,1.97-3.791,5.76-2.88C121.953,195.166,105.695,203.244,99.687,196.44z"/>
	<path fill-rule="evenodd" clip-rule="evenodd" d="M194.246,187.321c0.77-0.595,1.794-0.434,2.881,0c0,0.479,0,0.96,0,1.439   c-0.559-0.078-0.854,0.106-0.961,0.48C194.933,189.194,195.48,187.367,194.246,187.321z"/>
	<path fill-rule="evenodd" clip-rule="evenodd" d="M38.247,199.801c-3.059-1.581-3.249-6.031-9.12-4.8   c-0.409-1.352-1.55-1.97-1.44-3.84C32.407,187.316,38.697,195.415,38.247,199.801z"/>
	<path fill-rule="evenodd" clip-rule="evenodd" d="M78.566,191.641c-1.183,0.063-2.312,0.073-2.88-0.479   c0.407-1.033,1.182-1.698,2.88-1.44C78.566,190.361,78.566,191.001,78.566,191.641z"/>
	<path fill-rule="evenodd" clip-rule="evenodd" d="M70.887,192.601c0.654,2.154-1.933,2.331-2.88,1.44   C68.156,192.241,69.612,192.092,70.887,192.601z"/>
	<path fill-rule="evenodd" clip-rule="evenodd" fill="#FFFFFF" d="M168.326,192.121c-0.84,0.92-0.564,2.955-2.399,2.88   C166.062,193.376,166.503,192.058,168.326,192.121z"/>
	<path fill-rule="evenodd" clip-rule="evenodd" d="M66.086,195.48c-1.183,0.063-2.312,0.073-2.88-0.479   C63.189,192.764,66.786,192.45,66.086,195.48z"/>
	<path fill-rule="evenodd" clip-rule="evenodd" fill="#FFFFFF" d="M162.087,194.041c-4.482,1.598-7.874,4.286-10.561,7.68   C152.569,196.249,156.536,193.777,162.087,194.041z"/>
	<path fill-rule="evenodd" clip-rule="evenodd" d="M62.727,195.48c-1.728,2.303,2.062,0.154,1.92,2.881   c-1.156-0.197-1.043,0.876-2.4,0.479c-0.285-1.635-1.245-2.595-2.88-2.88C59.872,194.149,61.538,194.553,62.727,195.48z"/>
	<path fill-rule="evenodd" clip-rule="evenodd" d="M72.327,194.521c0.553,0.567,0.543,1.697,0.48,2.881   c-0.578-0.542-0.87-1.37-2.4-0.961C70.184,194.938,70.824,194.298,72.327,194.521z"/>
	<path fill-rule="evenodd" clip-rule="evenodd" d="M56.486,196.44c-0.332,0.948-1.28,1.28-2.4,1.44   C51.818,196.376,55.255,194.446,56.486,196.44z"/>
	<path fill-rule="evenodd" clip-rule="evenodd" d="M68.966,195.961c0.357,2.372-2.411,1.617-0.96,3.84c-0.48,0-0.96,0-1.44,0   c-0.333-1.654,0.459-1.166-0.48-3.36C66.654,195.889,67.783,195.897,68.966,195.961z"/>
	<path fill-rule="evenodd" clip-rule="evenodd" d="M59.367,197.401c-0.071,1.78-2.254,3.155-3.84,1.92   C55.598,197.54,57.781,196.165,59.367,197.401z"/>
	<path fill-rule="evenodd" clip-rule="evenodd" fill="#FFFFFF" d="M83.847,196.921c0.41,1.298,2.642,2.174,2.88,0   c4.151,1.039,7.088,2.255,6.72,6.24c-0.636,6.893-13.827,5.954-15.84,0c-0.011-1.131,0.827-1.413,0.48-2.88   c1.461,0.694,2.454,0.082,2.4-1.92C81.758,200.09,83.613,198.833,83.847,196.921z"/>
	<path fill-rule="evenodd" clip-rule="evenodd" d="M45.927,200.281c-0.897,0.939-1.758,0.147-2.88,0   C42.704,198.182,46.542,197.405,45.927,200.281z"/>
	<path fill-rule="evenodd" clip-rule="evenodd" d="M217.286,199.321c-0.745,8.23-7.03,13.427-14.399,13.439   c2.511-2.932,8.262-5.173,6.72-10.56C211.099,200.17,214.725,197.364,217.286,199.321z"/>
	<path fill-rule="evenodd" clip-rule="evenodd" d="M54.086,199.321c0.46,2.38-1.44,2.399-2.88,2.88   C49.878,200.522,51.657,198.743,54.086,199.321z"/>
	<path fill-rule="evenodd" clip-rule="evenodd" fill="#FFFFFF" d="M99.687,199.321c0.59,2.19-3.245-0.045-3.36,1.439   C95.262,199.09,98.734,199.744,99.687,199.321z"/>
	<path fill-rule="evenodd" clip-rule="evenodd" d="M46.887,199.801c1.255-0.135,2.064,0.176,1.92,1.44   C47.551,201.376,46.742,201.065,46.887,199.801z"/>
	<path fill-rule="evenodd" clip-rule="evenodd" fill="#FFFFFF" d="M140.007,201.721c-4.663-1.434-9.903,0.199-11.521,3.36   C126.324,202.112,137.449,197.104,140.007,201.721z"/>
	<path fill-rule="evenodd" clip-rule="evenodd" d="M44.966,201.241c1.503-0.223,2.143,0.417,1.92,1.92   C45.459,204.129,43.66,202.784,44.966,201.241z"/>
	<path fill-rule="evenodd" clip-rule="evenodd" d="M196.166,202.681c-0.929,1.606,0.199,3.519-0.96,5.76   c-2.421,4.686-14.316,10.483-16.8,3.36c1.067-1.111,1.872,0.163,3.36,0C188.96,211.633,188.36,197.627,196.166,202.681z"/>
	<path fill-rule="evenodd" clip-rule="evenodd" d="M176.486,202.201c0.641,0,1.28,0,1.92,0   C178.967,203.867,175.725,204.433,176.486,202.201z"/>
	<path fill-rule="evenodd" clip-rule="evenodd" d="M51.687,203.161c0,0.8,0,1.6,0,2.399c-0.567,0.553-1.697,0.544-2.88,0.48   c-0.666-0.295-0.072-1.848-0.96-1.92C49.146,203.405,50.02,202.266,51.687,203.161z"/>
	<path fill-rule="evenodd" clip-rule="evenodd" d="M174.087,204.601c-0.48,0-0.96,0-1.44,0c0-0.64,0-1.279,0-1.92   C174.249,202.199,174.221,203.347,174.087,204.601z"/>
	<path fill-rule="evenodd" clip-rule="evenodd" fill="#FFFFFF" d="M73.767,203.641c0.32,0,0.64,0,0.96,0   c-0.078,0.559,0.106,0.854,0.48,0.96c-0.417,1.396-0.719,0.54-1.92,0.48C73.151,204.306,73.74,204.255,73.767,203.641z"/>
	<path fill-rule="evenodd" clip-rule="evenodd" d="M56.006,213.721c-1.614,0.411-5.99-3.283-8.64-0.479   c-1.887-1.306-5.44-3.16-4.8-5.761C43.78,202.553,54.889,209.973,56.006,213.721z"/>
	<path fill-rule="evenodd" clip-rule="evenodd" d="M171.206,207.001c0.224,1.503-0.417,2.143-1.92,1.92   C169.063,207.418,169.704,206.778,171.206,207.001z"/>
	<path fill-rule="evenodd" clip-rule="evenodd" d="M150.566,208.44c-0.879,1.201-0.384,3.776-2.88,3.36   c-1.292-1.433,0.122-3.07,0.479-4.32C149.645,207.123,149.089,208.799,150.566,208.44z"/>
	<path fill-rule="evenodd" clip-rule="evenodd" fill="#FFFFFF" d="M117.927,209.401c3.59,2.112-1.724,4.058-1.92,6.72   c-1.344-0.552-2.495-0.552-3.84,0c1.463,3.177,6.083,3.196,8.64,5.28c-2.887-0.662-9.139-2.078-12.96,0   c0.626-1.934,3.282-1.838,5.28-2.4c-0.626-2.254-2.775-2.985-5.28-3.36c0.077-0.562,0.875-0.404,1.44-0.479   c1.041,0.081,0.217-1.703,0.48-2.4c0.853,0.998,2.419,2.99,4.32,1.44c-0.674-0.934-2.527-2.133-1.44-3.36   c0.651,0.148,0.398,1.202,0.48,1.92c1.183,0.063,2.313,0.073,2.88-0.479c0.197-1.157-0.876-1.044-0.48-2.4   c1.291-0.331,0.928,0.992,1.44,1.44C117.854,211.249,117.261,209.695,117.927,209.401z"/>
	<path fill-rule="evenodd" clip-rule="evenodd" d="M142.887,209.401c1.388,0.211,2.188,1.012,2.399,2.399   c-0.448,0.352-0.727,0.873-0.96,1.44c-1.356,0.396-1.243-0.677-2.399-0.48C141.61,211.005,142.965,210.92,142.887,209.401z"/>
	<path fill-rule="evenodd" clip-rule="evenodd" d="M151.526,209.881c1.156-0.196,1.044,0.877,2.4,0.48   c-0.855,2.901,0.985,3.135,0,5.279c-1.086-1.154-2.597-1.883-3.84-2.88C150.546,211.78,151.067,210.861,151.526,209.881z"/>
	<path fill-rule="evenodd" clip-rule="evenodd" d="M146.246,211.801c1.462-0.021,1.867,1.014,2.881,1.44   c-0.495,1.858,0.25,1.977-0.48,3.359c-2.089,0.489-2.207-0.992-3.36-1.439C145.634,214.068,145.715,212.709,146.246,211.801z"/>
	<path fill-rule="evenodd" clip-rule="evenodd" d="M157.286,212.761c0,0.641,0,1.28,0,1.92c-0.64,0-1.279,0-1.92,0   C153.872,213.358,155.964,211.267,157.286,212.761z"/>
	<path fill-rule="evenodd" clip-rule="evenodd" d="M167.366,212.281c1.749-0.148,3.124,0.076,4.32,0.479   c0,2.388,0.981,3.509,0.479,5.76c-1.167,5.236-15.635,10.558-17.279,3.36c4.336-2.063,10.751-2.048,12.96-6.24   C168.055,213.536,166.376,214.064,167.366,212.281z"/>
	<path fill-rule="evenodd" clip-rule="evenodd" d="M197.606,213.721c0.574,7.643-9.266,13.582-16.8,11.521   c3.912-3.768,10.837-4.523,12-11.04c0.821,0.021,1.243-0.357,1.439-0.96C195.805,212.963,196.479,213.567,197.606,213.721z"/>
	<path fill-rule="evenodd" clip-rule="evenodd" d="M150.087,215.641c0.64,0,1.279,0,1.92,0   C152.566,217.307,149.324,217.873,150.087,215.641z"/>
	<path fill-rule="evenodd" clip-rule="evenodd" d="M149.606,217.081c-0.032,1.293-1.097,2.307-1.92,1.439   C147.542,217.256,148.352,216.945,149.606,217.081z"/>
	<path fill-rule="evenodd" clip-rule="evenodd" d="M144.807,218.041c1.89,1.31,3.548,2.852,4.8,4.8   c-1.615,7.347-10.655,8.322-18.24,6.24c-0.955-1.125-1.105-3.055-0.96-5.28c3.212,4.051,11.494,3.068,14.4-0.479   C145.173,221.229,144.213,218.875,144.807,218.041z"/>
	<path fill-rule="evenodd" clip-rule="evenodd" fill="#FFFFFF" d="M102.566,219.001c1.37,1.951-2.989,6.573-0.48,8.16   C98.462,227.736,101.989,220.037,102.566,219.001z"/>
	<path fill-rule="evenodd" clip-rule="evenodd" d="M76.646,222.841c1.562,0.039,2.586,0.614,2.88,1.92   c0.225,1.024-0.686,0.914-1.44,0.96c0.808,1.112,1.796,2.044,1.92,3.84c-4.125-1.238-9.939-7.432-13.92-2.88   c-2.719-0.801-5.1-1.939-4.8-5.76c5.108-3.794,11.329,1.073,15.36,3.84C78.084,224.445,76.188,223.735,76.646,222.841z"/>
	<path fill-rule="evenodd" clip-rule="evenodd" d="M95.847,226.681c-2.334,3.233-6.584,1.086-11.04,1.92   c-1.362-1.937-0.552-4.162-0.96-6.239C86.714,226,91.708,224.644,95.847,226.681z"/>
	<path fill-rule="evenodd" clip-rule="evenodd" fill="#FFFFFF" d="M104.966,223.801c1.892-0.164,0.075,2.915,0,3.84   C101.635,226.975,105.311,225.674,104.966,223.801z"/>
	<path fill-rule="evenodd" clip-rule="evenodd" d="M176.486,227.161c-1.278,7.681-9.486,8.433-17.76,9.12   c-0.054-1.227-0.88-1.681-1.44-2.4c4.836-2.364,12.43-1.971,13.44-8.16C173.733,225.595,175.113,225.099,176.486,227.161z"/>
	<path fill-rule="evenodd" clip-rule="evenodd" d="M83.847,230.521c3.861,2.54,9.529,5.067,15.36,2.881   c0.25,0.71,0.71,1.209,0.96,1.92C96.575,240.38,83.188,235.693,83.847,230.521z"/>
	<path fill-rule="evenodd" clip-rule="evenodd" d="M149.606,238.681c-1.789,0.726-3.888,1.956-6.24,2.4   c-4.297,0.811-11.164,0.426-12-4.32c4.313,0.857,12.703,0.747,14.4-3.84C149.35,231.472,151.779,235.681,149.606,238.681z"/>
	<path fill-rule="evenodd" clip-rule="evenodd" d="M108.807,237.721c2.213-0.449,11.996,2.393,13.44-3.84   C135.939,240.217,109.978,245.047,108.807,237.721z"/>
	<path fill-rule="evenodd" clip-rule="evenodd" d="M128.486,245.881c-3.652,4.521-14.664,3.444-18.24-0.479   c2.273-0.469,4.953,1.825,9.12,0.96C121.488,244.105,126.327,241.945,128.486,245.881z"/>
	<path fill-rule="evenodd" clip-rule="evenodd" d="M15.207,188.761c-13.351-25.518-19.425-57.936-12-89.28   c3.751-15.836,11.085-30.765,19.2-41.76c16.27-24.27,38.63-42.827,68.64-52.32c44.425-14.053,93.479,1.1,120,24.96   c21.064,18.952,38.226,46.715,40.8,82.08c2.551,35.048-9.882,66.832-26.4,87.84c-20.294,25.811-49.206,46.838-91.68,50.88   c-25.947,2.469-52.445-6.021-72-15.84c-1.17-0.588-2.09-1.67-3.36-2.4C40.46,222.603,27.411,206.131,15.207,188.761z    M43.046,217.081c-1.615-0.932,0.518,1.962,0.48,1.92c5.486,6.052,15.368,9.9,21.6,14.4c0.111-1.735-3.07-2.658-1.92-3.841   c5.523,1.838,11.853,2.867,13.92,8.16c-4.673,1.094-7.871-3.284-12-4.319c6.316,5.363,16.031,7.329,24.48,10.56   c-1.199-2.321-4.804-2.235-5.28-5.28c5.168-0.653,15.601,0.784,17.28,6.721c-4.443,1.657-8.026-1.091-11.52-1.921   c12.886,5.622,29.163,5.981,45.12,5.761c1.409-1.875-2.216-2.286-0.479-4.32c6.163,1.709,9.789-5.455,17.28-2.4   c1.056,1.944-1.013,2.21,0,3.36c1.569-1.731,5.506-2.769,7.68-2.4c0.082-0.718-0.172-1.771,0.479-1.92   c6.317-0.868,9.507-5.504,15.36-6.239c0.514-0.065,1.255,1.456,1.92,1.439c-0.08,0.002,2.107-1.086,2.88-1.439   c3.561-1.63,2.814-2.722,5.28-4.801c3.515-2.962,8.241-5.187,11.521-7.68c0.953,0.006,0.61,1.31,1.92,0.96   c2.577-2.223,5.767-3.833,6.72-7.68c17.164-12.916,30.247-29.912,36.479-53.76c1.311-2.217,3.549-6.043,2.881-8.641   c-0.122,1.638-1.027,2.493-2.881,2.4c-2.207-0.606-1.036-2.731-0.96-4.8c1.194,0.052,1.486,0.899,2.4,0   c0.99-2.21,1.016-5.385,2.4-7.2c1.553-0.594,0.366,1.553,1.92,0.96c-0.604-5.127,0.071-6.928,0.479-12.48   c-2.337-0.063-3.904-2.914-2.399-5.279c1.114,0.21,1.284,2.119,2.399,0.96c-0.131-4.132,1.923-6.078,1.44-10.561   c-1.227-0.517-1.681,2.067-2.4,0.48c0.175-3.31,2.781-4.078,1.44-7.68c-0.439-1.305-0.893,1.279-2.4,0.48   c-3.011-4.005-4.225-11.956-2.4-15.84c1.381,3.104,1.027,10.486,3.36,11.04c-0.677-1.563-1.094-3.386-1.439-5.28   c-0.184-1.783,1.944-1.255,1.439-3.36c-5.116-14.244-9.244-29.476-16.8-41.28c-8.621-10.259-16.83-20.93-27.36-29.28   c-1.405,0.431-1.475,0.431-2.88,0c-0.115-0.844-0.826-1.094-1.92-0.96c-12.019-12.76-37.576-22.405-59.52-24   c-3.419-0.249-5.724,0.04-7.2,1.92c-0.093,1.853,2.229,1.291,1.92,3.36c-2.692,0.293-3.888-0.912-4.8-2.4   c-0.079-1.519,1.275-1.604,0.96-3.36c-15.688-0.289-29.491,3.213-42.24,7.2c-1.067,2.293-4.005,2.715-4.8,5.28   c0.606,0.673,2.532,0.027,1.92,1.92c-1.467,0.347-1.75-0.491-2.88-0.48c-0.781-1.546-0.229-2.601,0-4.32   c-25.38,12.061-45.634,29.246-60.96,51.36c-0.873,8.887-8.096,11.425-10.08,19.2c0.643,1.901,2.334,7.722-0.48,8.64   c-0.294-2.334-0.294-2.466,0-4.8c-2.782,2.063-2.963,6.258-3.84,9.6c-5.712,21.765-6.051,47.88,0.48,68.16   c0.649,1.164,0.959,0.299,1.44,0.96c-0.977,4.183,2.85,7.706,3.36,12c2.431,0.929,4.284,2.436,4.8,5.279   c-1.388,0.579-2.188-2.878-2.4-0.479c3.047,5.912,6.44,11.479,10.56,16.32c3.449-1.791,7.699,3.777,9.12,7.199   c-2.746-0.454-4.05-2.35-6.24-3.359c3.146,6.294,8.471,10.409,13.92,14.399c2.415-0.659,7.061,2.193,9.12,4.8   C47.304,221.983,45.097,218.479,43.046,217.081z"/>
	<path fill-rule="evenodd" clip-rule="evenodd" fill="#FFFFFF" d="M50.727,220.44c-2.06-2.606-6.705-5.459-9.12-4.8   c-5.449-3.99-10.774-8.105-13.92-14.399c2.19,1.01,3.495,2.905,6.24,3.359c-1.421-3.422-5.671-8.99-9.12-7.199   c-4.12-4.841-7.513-10.408-10.56-16.32c0.212-2.398,1.012,1.059,2.4,0.479c-0.516-2.844-2.369-4.351-4.8-5.279   c-0.511-4.294-4.337-7.817-3.36-12c-0.48-0.661-0.791,0.204-1.44-0.96c-6.531-20.28-6.192-46.395-0.48-68.16   c0.877-3.342,1.059-7.537,3.84-9.6c-0.294,2.334-0.294,2.466,0,4.8c2.814-0.918,1.123-6.739,0.48-8.64   c1.984-7.775,9.208-10.312,10.08-19.2c15.326-22.114,35.58-39.299,60.96-51.36c-0.229,1.719-0.781,2.773,0,4.32   c1.13-0.011,1.413,0.827,2.88,0.48c0.612-1.893-1.313-1.247-1.92-1.92c0.795-2.565,3.733-2.987,4.8-5.28   c12.749-3.987,26.552-7.488,42.24-7.2c0.315,1.755-1.039,1.841-0.96,3.36c0.912,1.488,2.107,2.693,4.8,2.4   c0.31-2.069-2.013-1.507-1.92-3.36c1.477-1.88,3.781-2.168,7.2-1.92c21.943,1.595,47.501,11.24,59.52,24   c1.094-0.134,1.805,0.116,1.92,0.96c1.405,0.431,1.475,0.431,2.88,0c10.53,8.35,18.739,19.021,27.36,29.28   c7.556,11.804,11.684,27.036,16.8,41.28c0.505,2.105-1.623,1.577-1.439,3.36c0.346,1.894,0.763,3.717,1.439,5.28   c-2.333-0.554-1.979-7.936-3.36-11.04c-1.824,3.884-0.61,11.835,2.4,15.84c1.508,0.799,1.961-1.785,2.4-0.48   c1.341,3.602-1.266,4.37-1.44,7.68c0.72,1.586,1.174-0.998,2.4-0.48c0.482,4.483-1.571,6.429-1.44,10.561   c-1.115,1.159-1.285-0.75-2.399-0.96c-1.505,2.365,0.062,5.216,2.399,5.279c-0.408,5.553-1.083,7.354-0.479,12.48   c-1.554,0.593-0.367-1.554-1.92-0.96c-1.385,1.815-1.41,4.99-2.4,7.2c-0.914,0.899-1.206,0.052-2.4,0   c-0.076,2.068-1.247,4.193,0.96,4.8c1.854,0.093,2.759-0.763,2.881-2.4c0.668,2.598-1.57,6.424-2.881,8.641   c-6.232,23.848-19.315,40.844-36.479,53.76c-0.953,3.847-4.143,5.457-6.72,7.68c-1.31,0.35-0.967-0.954-1.92-0.96   c-3.279,2.493-8.006,4.718-11.521,7.68c-2.466,2.079-1.72,3.171-5.28,4.801c-0.772,0.354-2.96,1.441-2.88,1.439   c-0.665,0.017-1.406-1.505-1.92-1.439c-5.854,0.735-9.043,5.371-15.36,6.239c-0.651,0.148-0.397,1.202-0.479,1.92   c-2.174-0.368-6.11,0.669-7.68,2.4c-1.013-1.15,1.056-1.416,0-3.36c-7.491-3.055-11.117,4.109-17.28,2.4   c-1.736,2.034,1.889,2.445,0.479,4.32c-15.957,0.221-32.234-0.139-45.12-5.761c3.494,0.83,7.077,3.578,11.52,1.921   c-1.679-5.937-12.112-7.374-17.28-6.721c0.476,3.045,4.081,2.959,5.28,5.28c-8.449-3.23-18.164-5.196-24.48-10.56   c4.129,1.035,7.327,5.413,12,4.319c-2.067-5.293-8.397-6.322-13.92-8.16c-1.15,1.183,2.031,2.105,1.92,3.841   c-6.232-4.5-16.114-8.349-21.6-14.4c0.038,0.042-2.095-2.852-0.48-1.92C45.097,218.479,47.304,221.983,50.727,220.44z    M196.166,24.601c-1.706,1.388,1.887,3.695,2.4,1.44C197.718,25.609,197.165,24.882,196.166,24.601z M194.246,25.081   c-0.9,0.916,0.285,0.869,0,2.4c0.48,0,0.96,0,1.44,0C195.914,25.973,195.088,25.52,194.246,25.081z M89.126,191.161   c-1.996,0.837-3.161-0.072-5.76,0.479c-0.151-0.648-0.684-0.917-0.48-1.92c-0.8,0-1.6,0-2.4,0c-0.737,4.452-5.738,1.189-7.68,2.88   c-0.361,1.802,1.833,1.047,1.92,2.4c-2.048,1.765-0.457,6.432-1.92,7.68c0.789-1.794-0.626-3.695-0.96-5.76   c-1.732-0.328-1.302,2.546-2.88,0.96c-0.312,2.392,1.332,2.828,1.92,4.32c-1.635,1.494-2.595-0.598-2.88-1.92   c-5.365,0.035-10.658-1.01-13.44,2.399c0.832,2.368,1.766,4.635,2.88,6.721c-0.907-0.108-1.059,0.54-1.92,0.479   c-1.108-1.358-0.401-2.045-1.44-3.84c-1.379-0.1-2.438,0.121-2.88,0.96c2.873,2.567,6.287,4.594,7.2,9.12   c1.785,0.505,0.941-1.619,1.92-1.92c-0.652,2.839,2.309,2.597,3.84,1.92c-0.053,1.194-0.899,1.485,0,2.399   c1.98,0.381,2.987-0.212,3.36-1.439c1.366,2.928,7.286,5.97,9.12,5.28c-4.571-5.098-12.737-9.847-18.72-10.561c0.8,0,1.6,0,2.4,0   c-0.017-2.224-2.413-2.067-2.4-4.32c2,0.239,3.055,1.426,4.8,1.921c0.668-0.612,0.208-2.352,1.44-2.4   c0.005,1.275-0.181,2.741,0.48,3.36c1.88,0.279,1.226-1.975,2.4-2.4c0,0.8,0,1.6,0,2.4c1.453,0.66,1.715-0.229,3.84,0   c0.16-1.12,0.492-2.068,1.44-2.4c1.17,1.229,1.001,3.799,0.96,6.24c-1.408,0.032-1.783,1.097-2.4,1.92   c2.922,0.04,3.152,5.776,6.24,3.359c-0.276,2.356,0.623,3.538,2.4,3.841c2.271-2.874-1.744-2.924-3.36-4.801   c-0.229-0.266-0.056-1.688-0.48-2.399c-1.923-3.224-0.47,0.959,1.92,0c-1.207,1.676,1.217,3.04,2.4,3.84   c0.924-0.567-1.045-3.038,0.96-3.36c0.42,4.847-0.362,7.568,0,10.561c5.514-0.603-0.93-5.586,2.4-7.681   c1.158,2.042,2.461,3.939,5.76,3.841c0.521-1.229-1.458-2.289,0-2.881c0.771,0.67,0.511,2.369,1.44,2.881   c1.643,0.202,1.442-1.438,2.4-1.92c0.147,2.202,2.999,0.158,3.84,0c0.262-0.698-0.561-2.481,0.48-2.4   c0.912,1.201-0.398,1.885,0.48,3.36c-0.453,1.466-2.336,1.504-2.4,3.359c0.515,1.245,2.087,1.433,2.4,2.88   c-1.222-0.247-1.861-0.817-1.92,0.96c2.875-0.103,7.791-0.204,10.56-0.96c4.577,3.442,17.41,2.847,17.759-3.84   c-3.08-3.584-0.485-5.578,0.48-9.6c-0.642-0.479-0.942-1.298-1.92-1.44c-1.011,1.229-1.021,3.459-1.92,4.8   c-0.115-0.685-0.791-0.81-0.96-1.439c1.004-1.799,1.755-3.892,1.92-5.28c1.278,0.84,2.697,3.428,4.32,2.4   c-0.506,2.104,1.623,1.576,1.439,3.359c-0.954-0.006-0.61-1.31-1.92-0.96c-0.928,1.793-1.051,4.39-1.92,6.24   c0.817,0.942,1.121,2.399,2.4,2.88c1.087-0.86,0.607-2.946,0.96-3.359c2.253,0.58,0.74,2.072,2.88,2.399   c-0.946-1.748,0.971-2.213,0.96-4.32c-0.916-0.204-0.869-1.371-2.4-0.96c-0.829,0.292,0.037,2.277-0.96,2.4   c-0.012-2.412,0.453-4.348,1.92-5.28c-1.191,2.115,0.85,3.103,2.4,3.84c0.476-1.283,0.989-2.53,0.96-4.319   c-0.637-0.676-3.453-1.624-2.4-2.4c1.256,1.534,3.028,1.738,3.84,1.44c0.534,1.647-2.404,3.878,0,4.319   c1.407-0.406-0.286-1.545,0-2.399c1.823,0.851,2.637,1.789,5.28,0.96c-2-2.048-5.618-4.449-6.24-7.2   c1.297,0.97,2.972,4.957,4.801,2.4c-0.641,2.13,0.06,1.932,1.439,2.88c0.48-0.64,0.791-1.449,1.44-1.92   c0.347,1.467-0.491,1.749-0.48,2.88c1.772,1.877,4.315,0.174,5.76,0c-2.512-1.328-3.991-3.688-6.239-5.28   c2.56-0.134,2.876-3.791,1.439-5.28c0.942,1.758,2.399-0.123,2.88,0.48c-0.863,0.92-0.135,2.955,1.44,2.88   c2.367-0.932,0.7-4.014,2.88-4.32c-0.538,2.139,1.474,1.727,2.4,2.4c-0.331-1.291,0.992-0.928,1.439-1.44   c-1.491,1.646,1.235,4.371,2.88,2.881c-0.094,1.374-0.06,2.619,1.44,2.399c0.461-2.735,2.24,0.973,2.88-1.92   c-0.59-1.01-2.89-0.31-3.36-1.44c2.86-0.619,3.255,1.226,5.28,1.44c2.764-0.542,3.746-3.157,6.24-1.44   c0.694-1.814-1.319-0.921-0.96-2.399c2.567,0.016,2.739,1.485,4.8,0c0-1.601,0-3.2,0-4.8c-1.183-0.285-3.725-1.679-2.88-2.4   c1.492,0.428,2.236,1.604,3.84,1.92c1.146-0.773,0.57-3.27,2.4-3.359c-0.115,1.965-1.457,2.703-1.44,4.8   c8.095,0.337,16.729-3.901,20.16-11.04c-0.876-2.965-0.917-6.764-1.92-9.601c2.979,0.293,0.438,3.952,3.84,4.32   c0.115-0.685,0.79-0.81,0.96-1.44c-0.455-0.984-1.55-1.33-2.4-1.92c1.326,0.206,0.451-1.789,1.44-1.92   c0.249,1.191,1.17,1.71,1.92,2.4c-1.797,0.443-0.044,3.272,1.92,2.88c-1.506-2.991,0.948-3.098-0.479-5.28   c8.034,0.862,14.285-6.242,12.96-14.399c-0.662-4.073-4.931-6.578-3.36-9.601c2,2.343,1.229,4.663,3.36,7.2   c1.316-2.66-0.417-7.406-2.88-9.12c0.792-0.007,0.269-1.331,0.96-1.439c0.75,1.489,1.424,3.056,2.399,4.319   c2.473-0.712,2.064,1.456,4.32,0.96c0-0.64,0-1.279,0-1.92c-1.095-0.659-1.805,1.237-1.92,0c-0.026-0.613-0.615-0.664-0.48-1.439   c11.382,5.197,15.326-15.222,7.681-20.641c1.248-1.125-0.668-3.145-2.4-2.88c-1.267,1.508,0.399,3.154,1.44,3.84   c-0.641,0-1.28,0-1.921,0c-0.308-1.932-0.839-3.64-3.359-3.359c-1.488,0.942,1.65,2.398,0.479,2.88   c-0.426-1.014-1.461-1.419-1.439-2.88c0.717-0.723,2.736-0.144,2.399-1.92c-0.328-0.952-2.859,0.3-2.399-1.44   c2.713-0.398,4.305,4.457,5.279,1.44c1.275,1.125,2.768,2.032,3.36,3.84c10.809,1.744,10.226-10.573,9.601-19.2   c-0.746-1.375-2.24,1-2.881-0.48c1.498-1.569,3.577,0.403,3.841-2.4c-2.111-0.934-1.699-0.14-3.841-1.92   c-1.175,0.638,0.528,1.786-0.479,1.92c-0.011-2.229-3.712-0.769-4.8-1.92c3.016,0.115,2.887-1.363,5.76-0.48   c0.259-1.859-1.224-1.977-1.44-3.36c-1.431-0.129-2.923,1.343-3.359-0.48c1.272-0.007,2.826,0.267,2.88-0.96   c-0.75-1.33-1.658-2.502-3.36-2.88c2.398-0.264,3.992-0.849,5.76,0c-1.156-0.196-1.043,0.877-2.399,0.48   c-0.678,3.076,2.396,3.318,4.32,2.4c-1.399-2.761-1.99-6.33-5.28-7.2c2.277,0.417,1.328-1.172,1.92-1.44   c-0.147,1.107,1.387,0.533,1.439,1.44c-0.937,2.794,4.851,5.683,1.921,9.12c2.99-0.56,3.625,2.742,6.72,3.36   c7.472-6.021,0.206-13.536-1.44-20.64c-0.979-4.23-0.473-8.409-0.96-12.48c-0.688-0.752-2.502-0.378-2.399-1.92   c-0.062-0.862,0.477-1.124,1.439-0.96c-0.008-2.392-3.506-1.294-3.359-3.84c0.953,0.006,0.61,1.31,1.92,0.96   c-1.288-2.301-0.184-6.36-4.801-6.24c-0.67,1.379,1.309,2.438,0,2.88c-1.068-2.367-3.968-0.351-5.76-1.44   c0.188-0.685,0.576-0.81,0-1.44c0.893,1.225,2.974,1.212,3.36-0.48c-1.248-2.542-3.492-3.584-5.76-2.88   c2.081-0.378,2.302-1.55,2.399-2.88c0.289,0.991,0.742,1.817,2.4,1.44c-1.276,2.138,1.479,3.8,2.88,4.8   c1.718-0.903-0.301-2.222,0.479-2.88c0.98,0.94,1.006,2.834,2.881,2.88c-2.783-3.938-4.027-9.413-7.681-12.48   c0.802,2.407,3.629,5.32,2.88,7.68c-2.25-4.63-5.175-8.585-9.6-11.04c0.562-1.187,1.994,1.165,1.92-0.96   c-2.25-0.47-5.378-0.062-6.24-1.92c1.759-0.355,2.667,1.18,3.84,0c-0.673-2.047-3.799-1.642-4.8-3.36   c1.469-0.348,1.412,0.828,2.88,0.48c-3.879-5.643-8.202-15.686-16.319-13.92c0.948-1.115,0.948-1.285,0-2.4   c-3.286,0.714-7.386,0.614-9.601,2.4c1.503,5.582,8.832,4.428,13.44,2.4c4.426,1.814,7.858,4.622,9.12,9.6   c-3.323,3.4-8.121-1.816-10.08-4.32c-1.273-0.564-2.826,0.92-2.88,0c0.639-0.961,2.13-1.069,3.359-1.44   c-0.649-1.929-0.149-1.27,1.44-0.96c0.396-1.357-0.677-1.244-0.48-2.4c-2.931,0.109-4.297,1.783-7.199,1.92   c1.072,3.45,2.282,7.885,0.96,10.08c1.279,0,2.56,0,3.84,0c0.675-1.681-2.908-1.511-1.44-2.4c1.452,0.309,2.771,0.75,2.88,2.4   c-0.713,0.567-2.145,0.416-1.92,1.92c0.49,1.43,3.419,0.421,4.32,1.44c-2.506,1.128-5.763,2.122-7.2,1.92   c0.18-1.58,2.552-0.968,2.4-2.88c-2.679-0.407-8.08-3.712-9.12,0c5.644-0.043,5.369,5.83,9.12,7.68c1.1-0.18,0.64-1.92,1.439-2.4   c1.886,0.576,2.649-0.51,3.84,0.96c-2.413,0.146-3.791,1.328-5.76,1.92c5.042,12-7.732,5.795-12,8.64   c1.481,1.079,5.275-0.155,5.28,2.4c-1.433,0.107-1.632-1.772-2.88-0.48c0.851,3.469,4.732,3.907,7.2,5.76   c-4.714,1.073-6.44,1.167-11.04,0c-0.205,0.915-1.372,0.868-0.96,2.4c1.272,0.007,2.826-0.267,2.88,0.96   c-2.257,2.018,1.39,4.508,0.96,7.68c2.174,0.165,5.483-2.256,6.72,0c-2.386-0.489-2.055,0.993-2.4,1.44   c-1.67-2.611-7.151-0.018-5.279,2.4c1.901-0.979,6.305,0.545,6.72-1.92c0.143,0.977,0.961,1.278,1.44,1.92   c-1.884-0.124-3.054,0.467-3.841,1.44c-5.044-2.286-9.782,2.584-15.84,1.44c0,0.8,0,1.6,0,2.4c1.254-0.134,2.402-0.162,1.92,1.44   c-1.342-1.102-3.818-0.264-3.359,1.92c0.291,0.829,2.276-0.037,2.399,0.96c-0.989,0.13-0.114,2.125-1.439,1.92   c0.732-2.508-3.972-1.74-2.88,0.48c0.615,1.245,2.87-0.37,2.88,0.48c-0.439,0.841-0.165,2.395-0.96,2.88   c-0.645-0.316-0.895-1.026-0.96-1.92c-1.184-0.063-2.313-0.073-2.881,0.48c0.334,2.386,3.632,1.808,3.36,4.8   c-1.432-0.666-2.938-0.566-3.36,0.96c0.775,0.666,2.475,0.406,2.881,1.44c-1.485,2.145,2.322,3.103,2.88,4.8   c-1.677,0.79-2.556-0.109-4.8,0.48c-0.021,1.461,1.013,1.867,1.439,2.88c2.26,0.252,4.651-3.016,4.8,0.48   c-0.618-0.661-2.085-0.475-3.359-0.48c-1.175,1.132,0.717,0.893,0.479,2.4c-1.11-0.65-1.59-1.93-3.84-1.44   c0.832-1.182-1.187-2.722-2.4-3.36c-0.651,1.268-0.818,3.021-3.359,2.4c0.398,2.322,4.242,1.198,3.84,4.32   c-0.961-1.44-3.522-1.278-3.84-3.36c-1.127,0.153-1.802,0.758-3.36,0.48c-1.085,1.312-1.953,3.762-1.92,4.8   c-2.052-0.605-2.446-0.038-3.36,1.44c0.448,0.512,1.771,0.149,1.44,1.44c-0.907,0.053-0.333,1.587-1.44,1.44   c-0.648-0.151-0.916-0.684-1.92-0.479c-1.162,1.537-0.583,1.692,0,3.359c-1.892-0.291-2.126,1.074-2.399,2.4   c2.883-0.002,1.458,2.306,3.359,3.84c-1.479,0.358-0.585-1.655-2.399-0.96c0.021,0.661-0.227,1.054-0.48,1.439   c0.512,0.93,2.211,0.67,2.88,1.44c-1.054,3.919,4.979,8.675,5.761,13.92c-3.659-1.461-2.815-7.425-6.721-8.64   c0.926-1.166-0.406-3.147-1.92-3.36c-1.162,0.277-1.067,1.812-1.439,2.88c2.006,0.874,2.059,3.701,3.359,5.28   c-1.963-0.917-2.55-3.21-4.319-4.32c-0.072,0.888-1.626,0.295-1.92,0.96c-0.498,2.069,2.665,3.488,0.479,4.32   c-0.645-0.955-0.915-2.285-1.439-3.36c-1.963,1.128-2.537,1.24-4.801,1.44c0.322,2.331-0.99,1.563-2.88,2.399   c-0.627,2.068,1.362,1.519,1.92,2.4c-1.396,1.736-4.603-0.075-6.239-0.96c-0.106,0.374-0.402,0.559-0.961,0.48   c-0.391,3.151,4.675,2.175,5.28,2.88c-2.327,2.101-3,5.719-0.96,8.64c-3.289,2.122,1.531,6.457,0.48,9.12   c-0.78-1.141-0.933-2.908-1.44-4.32c-1.12,0-2.24,0-3.36,0c-1.798,2.779-2.04,5.015-1.92,7.681c-0.71-0.09-0.439-1.16-0.479-1.921   c-3.416,1.829-8.159,2.508-12.48,0.961c-0.171-1.429-0.765-2.436-1.44-3.36c1.705-1.663,1.011-2.381,0.48-4.8   c0.907-0.107,1.059,0.541,1.92,0.479c1.217-2.845,4.482-5.347,8.16-5.28c-0.357-1.478,1.317-0.922,0.96-2.399   c-6.625-7.809-19.345,0.793-15.84,10.08c-0.48,0-0.96,0-1.44,0c-0.508,1.788,1.011,1.549,1.44,2.399   c-0.661-0.021-1.054,0.227-1.44,0.48c-0.294-1.109-2.513-1.334-3.36-0.48c0.645,2.642,3.881,1.944,5.76,1.92   c1.458-0.855-1.774-1.88,0-2.88c1.008,0.753,1.526,1.994,2.88,2.4c-0.908,0.532-2.268,0.612-3.36,0.96   c0.371,4.85,1.135,7.819,2.88,12c1.147,0.292,3.482-0.603,3.84,0.48c-1.6,0-3.2,0-4.8,0c-1.144-2.377-2.037-5.004-2.4-8.16   c-0.8,0-1.6,0-2.4,0c-0.856,3.11,1.765,5.255,0.96,6.72c-0.889-1.831-1.94-3.5-2.4-5.76c-0.8,0-1.6,0-2.4,0   c-0.812,1.699,0.49,2.731-0.48,3.84c-0.151-0.649-0.684-0.917-0.48-1.92c-4.273,1.096-8.22,0.886-12,0.96   c-0.358,1.478,1.317,0.922,0.96,2.399c-1.096,1.719-2.831,0.938-4.32,1.44c-0.627,2.067,1.362,1.518,1.92,2.4   c-2.463,3.087,2.322,8.847,0.96,11.04c-0.286-1.634-2.141-1.7-3.36-2.4c0.836,0.036,1.493-0.107,1.92-0.48   c0.258-1.697-0.407-2.473-1.44-2.88c-0.47,0.65-1.618,0.622-1.92,1.44c0.011-1.131-0.827-1.413-0.48-2.88   c0.916,0.204,0.869,1.371,2.4,0.96c-0.898-1.455-0.378-1.349-0.96-2.88c-3.386,0.959-4.043-1.139-6.72,0c0-0.641,0-1.28,0-1.92   c-1.698-0.258-2.473,0.406-2.88,1.439C84.282,189.911,87.316,189.946,89.126,191.161z M133.286,155.161   c-1.097-1.04-2.994-0.175-2.88,1.439C131.866,156.62,133.565,156.88,133.286,155.161z M78.566,189.721   c-1.698-0.258-2.473,0.407-2.88,1.44c0.567,0.553,1.697,0.543,2.88,0.479C78.566,191.001,78.566,190.361,78.566,189.721z    M76.646,224.761c-4.031-2.767-10.251-7.634-15.36-3.84c-0.3,3.82,2.081,4.959,4.8,5.76c3.98-4.552,9.795,1.642,13.92,2.88   c-0.124-1.796-1.112-2.728-1.92-3.84c0.754-0.046,1.665,0.064,1.44-0.96c-0.294-1.306-1.318-1.881-2.88-1.92   C76.188,223.735,78.084,224.445,76.646,224.761z M83.847,222.361c0.408,2.077-0.402,4.303,0.96,6.239   c4.456-0.834,8.706,1.313,11.04-1.92C91.708,224.644,86.714,226,83.847,222.361z M148.166,207.48   c-0.357,1.25-1.771,2.888-0.479,4.32c2.496,0.416,2.001-2.159,2.88-3.36C149.089,208.799,149.645,207.123,148.166,207.48z    M169.286,208.921c1.503,0.223,2.144-0.417,1.92-1.92C169.704,206.778,169.063,207.418,169.286,208.921z M178.406,202.201   c-0.64,0-1.279,0-1.92,0C175.725,204.433,178.967,203.867,178.406,202.201z M213.927,164.761c0.402-0.557,0.633-1.287,0.479-2.399   c-0.836-0.036-1.492,0.106-1.92,0.479C212.352,164.097,212.662,164.905,213.927,164.761z M240.326,160.44   c-2.013,0.067-1.961,2.199-1.92,4.32c-1.22,4.102-5.177,7.887-4.8,12C239.5,175.338,242.77,165.671,240.326,160.44z M104.966,6.841   c0.495,1.769,4.711,3.767,6.24,1.44c-1.115-0.645-3.586,0.067-3.36-1.92c-0.032-1.631,2.465-0.734,2.4-2.4   C107.354,3.788,105.589,4.743,104.966,6.841z M154.887,10.201c1.34,1.06,2.604,2.196,5.279,1.92   c-0.064-2.335-2.016-2.784-2.399-4.8C155.398,6.873,154.438,7.833,154.887,10.201z M131.847,11.641c0,1.12,0,2.24,0,3.36   c1.057,0.703,2.062,1.458,3.84,1.44c0.34-1.78-0.82-2.06-0.48-3.84c0.853-1.548,3.531-1.27,4.32-2.88   C136.752,8.24,133.59,10.494,131.847,11.641z M108.807,19.321c1.183,0.063,2.312,0.073,2.88-0.48   c0.259-1.858-1.224-1.977-1.44-3.36c0.744-1.816,2.424-2.696,3.84-3.84C109.075,9.638,105.59,15.58,108.807,19.321z    M177.446,15.001c-2.518,4.13,3.844,9.333,7.681,8.64c-0.753-2.624-3.264-3.189-1.921-6.72   C181.798,15.77,179.952,15.056,177.446,15.001z M85.767,25.081c-0.88-4.083,2.452-6.379,4.32-9.12   C85.02,15.132,80.916,24.833,85.767,25.081z M157.286,17.881c-0.45,3.898,2.343,6.818,5.28,5.76   c-0.398-2.236-2.432-4.048-0.96-6.72C160.1,15.654,158.278,17.146,157.286,17.881z M139.526,29.401   c-3.672-4.434,0.954-7.153,3.36-9.6C134.707,17.667,131.761,30.392,139.526,29.401z M114.086,31.801c0.244-2.324-2.2-1.96-1.44-4.8   c0.722-2.318,3.882-2.198,4.8-4.32C111.161,19.156,106.745,31.316,114.086,31.801z M63.687,31.801c2.055-2.745,4.938-4.661,7.2-7.2   C66.116,24.124,61.768,28.738,63.687,31.801z M189.446,26.521c-0.622,1.78,2.843,1.907,3.36,0.96   C191.787,27,190.667,25.357,189.446,26.521z M191.847,41.881c-0.664-2.858-3.133-2.918-3.84-5.28c-0.674-2.248,1.271-4.289,0-7.2   C173.506,23.97,183.821,43.102,191.847,41.881z M86.727,38.521c-0.105-4.905,3.554-6.046,4.8-9.6   C86.924,28.994,82.504,35.475,86.727,38.521z M166.887,40.441c0.182-3.062-2.486-3.274-2.88-5.76c0.57-1.51,1.804-2.356,1.92-4.32   C157.089,29.536,161.452,42.375,166.887,40.441z M44.966,46.201c5.478-0.4,9.638-6.297,7.2-11.52c-0.48,0-0.96,0-1.44,0   C52.941,39.798,47.088,42.515,44.966,46.201z M138.566,38.521c0.027,3.493,0.296,6.745,3.84,6.72   c-2.056-5.021,0.711-6.983,3.36-9.6C142.718,34.044,140.213,37.118,138.566,38.521z M64.646,44.761   c1.906-3.213,4.921-5.318,7.2-8.16C67.522,36.784,61.438,41.708,64.646,44.761z M116.486,49.561   c-0.829-4.362,1.001-9.321,3.84-11.52C114.593,36.052,110.023,47.553,116.486,49.561z M190.887,44.281   c0.92,0.863,2.955,0.135,2.88-1.44C192.068,42.583,191.294,43.248,190.887,44.281z M91.046,53.401   c-1.503-5.032,4.665-6.092,5.76-10.08C92.001,43.099,86.245,50.181,91.046,53.401z M183.687,50.041   c-0.973,4.156,2.493,8.776,6.24,10.08c-1.98-5.656,1.229-9.425,4.319-11.52C190.799,45.87,184.708,45.675,183.687,50.041z    M168.326,61.561c-1.811-4.386-0.44-8.385,2.4-11.52C162.388,46.127,160.967,61.486,168.326,61.561z M116.486,63.481   c1.55-3.151,2.145-6.558,4.8-8.64c1.907-1.495,4.829-0.98,6.24-3.36C120.328,47.657,111.427,57.936,116.486,63.481z M67.526,58.681   c2.683-2.758,5.517-5.363,9.12-7.2C71.997,50.411,67.545,53.535,67.526,58.681z M31.526,60.601c1.56-2.28,3.805-3.875,3.36-8.16   c-0.614-0.026-0.665-0.615-1.44-0.48C33.469,54.952,30.125,59.399,31.526,60.601z M44.966,59.641   c3.177-1.202,3.794-7.326,8.64-5.28C51.626,48.576,43.476,55.978,44.966,59.641z M143.847,63.961   c-0.382-6.302,3.747-8.093,7.2-10.56C145.041,50.242,136.68,60.394,143.847,63.961z M92.966,67.801   c2.051-4.989,4.476-9.604,11.04-10.08C98.417,52.809,88.703,62.883,92.966,67.801z M71.847,70.201c3.722-2.519,6.56-5.92,11.52-7.2   C78.296,60.59,71.333,63.899,71.847,70.201z M105.927,67.801c-3.971,1.31-3.756,6.805-5.76,10.08   c-1.473-1.567,0.783-6.863-1.44-7.68c-4.005,3.963-0.664,13.927-5.76,15.84c-0.202-0.918-0.174-2.066-1.44-1.92   c-1.387,1.49-0.681,3.056,0.48,4.32c5.404,0.761,4.812-4.804,6.24-6.72c0.165,1.756,0.05,3.791,1.92,3.84   c1.482-2.837,0.756-7.884,2.88-10.08c0.064,4.096-0.558,8.878,2.4,10.08c0.106-0.374,0.402-0.558,0.96-0.48   C105.336,79.853,104.812,72.516,105.927,67.801z M106.887,83.641c4.135,0.997,6.426-1.328,9.12-2.88   c-0.145,1.265,0.665,1.576,1.92,1.44c0.704-1.057-0.058-3.578,1.44-3.84c-0.289,1.729,1.465,1.415,1.44,2.88   c7.496-0.167,10.97-3.539,13.439-9.6c-0.098,2.089-0.979,3.925,0,5.76c2.591,1.125,6.771-1.078,4.801-4.32   c-0.77,0.831-1.794,1.406-2.881,1.92c-1.449-1.918,0.434-3.824,0.48-5.76c-1.798-0.194-2.523-0.422-4.32-1.44   c-0.684,4.12-1.281,10.873-5.76,9.6c-0.258-2.178,2.559-1.282,2.4-3.36c-1.375,0.094-2.62,0.06-2.4-1.44   c0.641-0.8,2.72-0.161,3.36-0.96c-5.073-5.59-5.401,4.529-7.2,7.68c-1.116-0.483-1.548-1.652-1.44-3.36   c0.275-1.964,2.567-1.913,2.4-4.32c-3.083-0.203-2.88,2.88-5.28,3.36c0.812-2.452,1.836-8.501,0.48-10.08   c-3.604,0.632-0.107,13.068-4.8,15.36c-0.945-1.295-0.286-4.194-0.48-6.24C108.316,72.136,104.843,78.238,106.887,83.641z    M30.086,75.481c1.109-4.011,3.491-6.75,7.2-8.16c1.285,0.119,1.825,2.022,2.88,0.96C37.295,60.857,26.954,71.014,30.086,75.481z    M187.526,66.841c0.947,0.891,3.534,0.714,2.88-1.44C188.68,65.114,187.699,65.574,187.526,66.841z M190.406,68.761   c0,0.48,0,0.96,0,1.44c1.561,0.047,2.971,1.688,4.32,0.48C194.797,68.628,191.571,68.066,190.406,68.761z M187.047,70.681   c1.791,0.191,2.816-0.384,2.88-1.92c-0.96,0-1.92,0-2.88,0C187.047,69.401,187.047,70.041,187.047,70.681z M51.207,77.881   c2.781-2.979,5.991-5.529,10.08-7.2C56.915,68.496,50.125,73.162,51.207,77.881z M171.687,79.801c0.362,1.909,2.326,4.932,4.8,5.76   c-0.128-6.848,2.52-10.92,8.16-12C180.534,65.936,170.142,71.672,171.687,79.801z M21.447,71.641c2.601,2.33,0.055,7.942,1.44,9.6   c2.048-1.965,4.258-7.521,1.44-10.08C23.143,71.098,22.014,71.088,21.447,71.641z M152.007,88.441   c-0.806-6.422,2.436-12.476,10.08-12C155.648,66.765,140.339,83.905,152.007,88.441z M79.046,83.641   c0.578,4.297,0.176,8.68-5.28,8.16c-1.506-1.591-1.23-5.652,1.44-5.76c-0.072,1.192,0.248,1.992,0.96,2.4   c3.148-1.728,0.341-4.177-0.96-4.32c-5.023-0.55-3.154,8.703-7.2,9.6c-1.162-1.682,0.987-4.616,0-6.24   c-6.421-0.917-10.866,7.755-6.24,10.56c3.396-2.418,7.056-1.605,10.08-4.32c2.75,2.125,5.888-0.277,7.2-2.4   c2.44,2.429,8.143,0.793,7.68-3.84c-2.037,0.523-2.055,3.065-4.8,2.88c-0.115-0.685-0.791-0.81-0.96-1.44   c0.643-1.757,3.11-1.69,3.36-3.84c-0.99-0.291-3.335,0.774-2.88-0.96c0.992-2.121,2.456,0.898,3.84-0.48   C84.923,79.582,80.479,82.125,79.046,83.641z M58.407,81.721c-4.736-0.425-13.83,6.745-7.2,9.12c1.051-0.869,0.082-3.758,0.96-4.8   c1.994-1.608,7.367-3.44,7.68,0.96c0.12,2.2-2.573,1.587-2.4,3.84c4.023,0.183,5.073-2.607,5.28-6.24   C61.612,83.425,60.408,81.901,58.407,81.721z M87.687,84.121c1.402,0.932,4.295,0.038,4.32-1.92   C90.679,81.343,87.239,81.69,87.687,84.121z M33.927,89.401c3.051-1.109,3.02-5.3,8.16-4.32   C40.87,79.016,33.461,84.996,33.927,89.401z M128.967,96.601c0.322-6.717,5.497-8.583,8.64-12.48   C131.104,82.19,123.412,90.985,128.967,96.601z M50.727,98.521c-1.209-1.202,0.551-1.885,0.48-3.36   c-6.449,0.022-2.254,8.611,2.88,5.28c2.379-3.877,3.163-11.2,2.4-14.88C53.487,88.801,55.088,96.643,50.727,98.521z M22.887,92.281   c1.78-0.299,2.811-1.349,4.32-1.92c1.488,0.432,1.835,2.004,3.84,1.92C31.933,87.465,22.13,87.81,22.887,92.281z M103.526,102.361   c0.385-1.665-0.715-1.845-0.48-3.36c2.975-3.105,5.66-6.5,11.04-7.2C109.355,86.123,97.339,97.001,103.526,102.361z M10.887,98.521   c4.53-2.456,3.698,3.756,6.24,4.8C19.489,97.153,10.996,93.589,10.887,98.521z M78.086,106.201c1.551-4.37,6.241-5.599,9.6-8.16   C84.535,93.771,75.731,100.432,78.086,106.201z M157.767,112.921c-1.647-8.188,5.531-12.917,10.56-14.4   C159.336,89.097,146.446,107.706,157.767,112.921z M101.126,102.361c-0.113-7.499-11.523-6.23-10.08,1.44   c4.083,1.042,2.032-4.048,6.24-2.88c-0.001,0.481,0.389,0.571,0.48,0.96c-0.86,4.544-6.506,7.904-3.36,13.44   c3.474-1.417,10.412-1.077,9.12-5.76c-2.526-0.113-4.992,2.351-6.72,1.44C97.349,106.533,101.189,106.541,101.126,102.361z    M131.847,115.321c0.675-7.719,7.492-13.976,14.399-11.04C141.686,93.937,122.004,107.101,131.847,115.321z M56.966,114.841   c1.116-5.924,6.014-8.066,9.6-11.52C60.961,102.252,53.905,108.842,56.966,114.841z M4.646,113.401   c2.33-1.03,1.552-5.168,1.92-8.16c-0.685-0.115-0.81-0.79-1.44-0.96C5.163,106.509,5.733,110.199,4.646,113.401z M36.807,114.841   c1.118-4.482,4.152-7.047,8.16-8.64C40.276,102.924,33.737,110.417,36.807,114.841z M232.166,108.601   c0.762-0.717,0.702-2.737-0.96-2.4C230.206,107.157,231.19,108.251,232.166,108.601z M106.887,120.121   c1.348-2.012,1.468-5.252,2.88-7.2c2.117-2.203,6.547-2.093,8.64-4.32C110.73,104.018,100.678,113.889,106.887,120.121z    M171.206,111.001c0.774,0.633,4.229,1.037,4.32-0.48c-1.204-0.556-1.607-1.913-3.36-1.92   C171.961,109.515,171.133,109.807,171.206,111.001z M20.967,123.481c1.027-4.695,4.137-8.35,9.12-7.68   C27.077,107.582,16.335,117.052,20.967,123.481z M82.407,126.361c1.238-6.123,5.281-9.439,11.04-11.041   C87.425,111.004,77.143,119.584,82.407,126.361z M239.847,135.001c6.065-0.311,6.243-20.592,0-20.64   c1.122,4.223,0.08,11.795-4.32,14.4C235.113,131.442,236.932,135.15,239.847,135.001z M9.447,127.801   c1.89-2.27,2.345-5.975,7.2-5.28C14.707,115.577,7.652,123.841,9.447,127.801z M61.287,130.681c2.678-1.802,3.036-5.924,6.24-7.2   c1.612-0.148,4.161,0.641,3.84-1.44C67.045,117.091,58.899,123.493,61.287,130.681z M137.606,141.241   c0.927-7.461,5.845-12.719,12-13.44C142.441,117.11,127.688,134.574,137.606,141.241z M4.167,127.321   c1.547,1.812,2.485,4.235,4.32,5.76c-0.063-2.656-1.09-4.35-1.92-6.24C5.454,126.688,4.724,126.918,4.167,127.321z M41.606,135.961   c2.37-3.081,5.543-5.661,10.56-4.8C49.639,124.829,39.083,129.321,41.606,135.961z M112.167,145.081   c0.976-7.187,6.325-11.461,13.92-10.561C120.136,124.578,103.557,137.508,112.167,145.081z M224.486,135.48   c1.643-0.042,0.278,2.923,1.92,2.881c-0.34-1.78,0.82-2.061,0.48-3.841C225.694,134.449,224.895,134.769,224.486,135.48z    M27.207,142.681c1.335-3.278,4.047-3.814,7.68-3.84C33.909,131.552,21.486,138.013,27.207,142.681z M88.167,146.521   c2.659,0.004,2.881-2.715,5.28-3.84c2.627-1.231,6.574,0.213,8.64-2.399C98.197,134.59,86.744,138.265,88.167,146.521z    M234.566,138.841c-0.743,2.41,1.219,2.406,1.44,4.8c0.51,5.507-4.478,7.538-5.28,12.48c8.06,3.625,10.18-9.919,7.68-16.8   C236.938,139.29,235.905,137.559,234.566,138.841z M14.727,144.121c-0.367,1.133-0.946,3.317,0,4.319   c2.259-0.301,1.898-3.221,5.28-2.399c0-0.8,0-1.601,0-2.4C18.372,142.356,16.36,143.902,14.727,144.121z M68.006,152.281   c3.192-0.69,4.77-3.39,8.16-3.841c1.573-0.208,3.683,1.905,4.8-0.479C80.299,142.996,66.403,143.203,68.006,152.281z    M138.087,148.921c0.567,0.553,1.696,0.543,2.88,0.48c0.152-1.113-0.077-1.844-0.48-2.4   C138.922,146.876,138.177,147.57,138.087,148.921z M7.046,152.761c2.002,0.082,2.368-1.472,4.32-1.439   C11.718,147.409,5.493,148.646,7.046,152.761z M50.247,158.521c3.066-1.929,5.839-4.622,9.6-3.359   C58.974,148.411,47.16,152.029,50.247,158.521z M135.687,154.201c-0.281,2.384,4.052,1.741,3.36-0.48   C137.771,153.726,136.305,153.54,135.687,154.201z M136.166,152.761c-0.613-0.656-2.266-0.656-2.88,0   C133.364,154.944,136.257,155.112,136.166,152.761z M139.047,161.881c-0.182-2.219-0.918-3.883-1.44-5.76   C137.541,157.5,136.135,161.095,139.047,161.881z M133.286,158.041c1.844,0.417,1.162,1.118,0.96,2.88   c0.558,0.403,1.287,0.633,2.4,0.48c-0.182-2.278-1.33-2.522-0.48-4.801C134.469,156.343,133.693,157.008,133.286,158.041z    M36.327,159.001c-1.303,1.438-3.137,5.451-0.48,6.72c0.757-3.933,5.091-3.863,8.64-3.84   C43.902,158.704,39.642,158.016,36.327,159.001z M214.406,161.881c0.684-0.058,1.978-2.632,0-2.4   C214.13,159.772,213.283,161.758,214.406,161.881z M93.927,172.921c1.763-5.276,4.645-9.436,12-9.12   C102.164,153.48,84.067,166.686,93.927,172.921z M222.566,161.881c3.641,5.359,1.465,14.784-4.32,16.32   c7.704,4.313,13.145-7.645,11.521-15.84C227.832,160.479,224.922,160.203,222.566,161.881z M136.166,166.201   c0.961,0,1.921,0,2.881,0c-0.546-2.175-1.126-4.314-3.841-4.32C135.178,163.67,135.69,164.917,136.166,166.201z M23.367,170.041   c2.322-1.694,3.55-1.034,6.72-0.48C32.479,164.091,18.791,163.979,23.367,170.041z M71.847,177.721   c1.627-3.172,5.227-4.372,10.56-3.84c0.765,1.155,1.31,2.53,2.88,2.88C87.919,165.498,63.966,167.635,71.847,177.721z    M16.646,175.321c1.6,0,3.2,0,4.8,0C21.225,170.41,13.099,169.253,16.646,175.321z M107.847,177.721   c1.729,0.13,3.32,0.12,2.88-1.92c-0.836,0.036-1.493-0.107-1.92-0.479C108.602,176.236,107.435,176.189,107.847,177.721z    M110.247,173.401c-1.177-1.036-3.55-0.358-3.36,1.439C108.278,175.462,110.133,175.303,110.247,173.401z M111.207,175.801   c1.995-0.587,2.868,2.397,3.84,0c-2.172,0.732-1.038-1.842-1.92-2.399c-0.64,0-1.28,0-1.92,0   C111.207,174.201,111.207,175.001,111.207,175.801z M104.006,176.761c1.097,1.04,2.995,0.175,2.88-1.439   C105.79,174.28,103.892,175.146,104.006,176.761z M52.167,182.041c1.513-0.754,2.234-1.679,3.84-1.92   c4.684-0.705,7.357,2.647,10.08,4.8C68.184,174.773,46.419,171.044,52.167,182.041z M101.126,178.201   c-0.362,2.166,3.207,1.798,2.4-0.48C102.414,177.567,101.684,177.798,101.126,178.201z M104.486,178.201   c-0.279,1.719,1.421,1.459,2.88,1.439C108.315,177.193,105.342,177.402,104.486,178.201z M226.406,182.041   c0.997,7.717-3.771,9.669-5.76,14.399c6.54-0.415,11.593-8.821,10.56-16.8C229.137,178.298,227.831,181.208,226.406,182.041z    M200.486,182.041c0,0.479,0,0.96,0,1.439c1.8,0.36,2.339-0.54,2.4-1.92C201.773,181.408,201.044,181.638,200.486,182.041z    M92.006,183.961c1.698,0.258,2.473-0.407,2.88-1.44c-0.567-0.553-1.697-0.543-2.88-0.479   C92.006,182.681,92.006,183.321,92.006,183.961z M206.246,186.361c5.465,3.362-0.709,11.626-5.279,12.479   c7.923,4.406,17.132-8.116,12.479-16.32C209.284,182.039,207.258,183.691,206.246,186.361z M38.247,189.721   c5.376-2.318,8.658,0.637,12.48,3.36C51.858,186.062,34.897,178.975,38.247,189.721z M86.247,187.801c0.8,0,1.6,0,2.4,0   c0.666-0.295,0.072-1.848,0.96-1.92c0.106,0.374,0.402,0.558,0.96,0.48c-0.006,0.953-1.31,0.61-0.96,1.92   c0.731,0.738,3.292,0.854,2.88-0.96c-2.104-0.896-0.526-0.671-0.48-2.881C89.763,183.484,87.003,185.717,86.247,187.801z    M196.166,189.241c0.106-0.374,0.402-0.559,0.961-0.48c0-0.479,0-0.96,0-1.439c-1.087-0.434-2.111-0.595-2.881,0   C195.48,187.367,194.933,189.194,196.166,189.241z M27.687,191.161c-0.11,1.87,1.031,2.488,1.44,3.84   c5.871-1.231,6.061,3.219,9.12,4.8C38.697,195.415,32.407,187.316,27.687,191.161z M68.006,194.041   c0.947,0.891,3.534,0.714,2.88-1.44C69.612,192.092,68.156,192.241,68.006,194.041z M63.207,195.001   c0.567,0.553,1.697,0.543,2.88,0.479C66.786,192.45,63.189,192.764,63.207,195.001z M59.367,195.961   c1.635,0.285,2.595,1.245,2.88,2.88c1.356,0.396,1.244-0.677,2.4-0.479c0.143-2.727-3.647-0.578-1.92-2.881   C61.538,194.553,59.872,194.149,59.367,195.961z M70.407,196.44c1.53-0.409,1.822,0.419,2.4,0.961   c0.063-1.184,0.073-2.313-0.48-2.881C70.824,194.298,70.184,194.938,70.407,196.44z M54.086,197.881   c1.12-0.16,2.068-0.492,2.4-1.44C55.255,194.446,51.818,196.376,54.086,197.881z M66.086,196.44c0.939,2.194,0.146,1.706,0.48,3.36   c0.48,0,0.96,0,1.44,0c-1.451-2.223,1.317-1.468,0.96-3.84C67.783,195.897,66.654,195.889,66.086,196.44z M55.526,199.321   c1.586,1.235,3.769-0.14,3.84-1.92C57.781,196.165,55.598,197.54,55.526,199.321z M43.046,200.281c1.122,0.147,1.983,0.939,2.88,0   C46.542,197.405,42.704,198.182,43.046,200.281z M209.606,202.201c1.542,5.387-4.209,7.628-6.72,10.56   c7.369-0.013,13.654-5.209,14.399-13.439C214.725,197.364,211.099,200.17,209.606,202.201z M51.207,202.201   c1.439-0.48,3.34-0.5,2.88-2.88C51.657,198.743,49.878,200.522,51.207,202.201z M48.807,201.241c0.145-1.265-0.665-1.575-1.92-1.44   C46.742,201.065,47.551,201.376,48.807,201.241z M46.887,203.161c0.223-1.503-0.417-2.143-1.92-1.92   C43.66,202.784,45.459,204.129,46.887,203.161z M181.767,211.801c-1.488,0.163-2.293-1.111-3.36,0   c2.483,7.123,14.379,1.325,16.8-3.36c1.159-2.241,0.031-4.153,0.96-5.76C188.36,197.627,188.96,211.633,181.767,211.801z    M47.847,204.121c0.888,0.072,0.294,1.625,0.96,1.92c1.183,0.063,2.312,0.072,2.88-0.48c0-0.8,0-1.6,0-2.399   C50.02,202.266,49.146,203.405,47.847,204.121z M172.166,205.561c-0.135,1.256,0.176,2.065,1.44,1.92   c-0.292-2.052,1.744-1.776,2.88-2.399C175.366,201.277,174.595,206.346,172.166,205.561z M172.646,202.681c0,0.641,0,1.28,0,1.92   c0.48,0,0.96,0,1.44,0C174.221,203.347,174.249,202.199,172.646,202.681z M42.566,207.48c-0.64,2.601,2.913,4.455,4.8,5.761   c2.649-2.804,7.026,0.891,8.64,0.479C54.889,209.973,43.78,202.553,42.566,207.48z M141.927,212.761   c1.156-0.196,1.043,0.877,2.399,0.48c0.233-0.567,0.512-1.089,0.96-1.44c-0.212-1.388-1.012-2.188-2.399-2.399   C142.965,210.92,141.61,211.005,141.927,212.761z M150.087,212.761c1.243,0.997,2.754,1.726,3.84,2.88   c0.985-2.145-0.855-2.378,0-5.279c-1.356,0.396-1.244-0.677-2.4-0.48C151.067,210.861,150.546,211.78,150.087,212.761z    M145.286,215.161c1.153,0.447,1.271,1.929,3.36,1.439c0.73-1.383-0.015-1.501,0.48-3.359c-1.014-0.427-1.419-1.462-2.881-1.44   C145.715,212.709,145.634,214.068,145.286,215.161z M155.366,214.681c0.641,0,1.28,0,1.92,0c0-0.64,0-1.279,0-1.92   C155.964,211.267,153.872,213.358,155.366,214.681z M167.847,215.641c-2.209,4.192-8.624,4.177-12.96,6.24   c1.645,7.197,16.112,1.876,17.279-3.36c0.502-2.251-0.479-3.372-0.479-5.76c-1.196-0.403-2.571-0.628-4.32-0.479   C166.376,214.064,168.055,213.536,167.847,215.641z M194.246,213.241c-0.196,0.603-0.618,0.98-1.439,0.96   c-1.163,6.517-8.088,7.272-12,11.04c7.534,2.062,17.374-3.878,16.8-11.521C196.479,213.567,195.805,212.963,194.246,213.241z    M152.007,215.641c-0.641,0-1.28,0-1.92,0C149.324,217.873,152.566,217.307,152.007,215.641z M147.687,218.521   c0.823,0.867,1.888-0.146,1.92-1.439C148.352,216.945,147.542,217.256,147.687,218.521z M144.807,223.321   c-2.906,3.548-11.188,4.53-14.4,0.479c-0.146,2.226,0.005,4.155,0.96,5.28c7.585,2.082,16.625,1.106,18.24-6.24   c-1.252-1.948-2.91-3.49-4.8-4.8C144.213,218.875,145.173,221.229,144.807,223.321z M170.727,225.721   c-1.011,6.189-8.604,5.796-13.44,8.16c0.561,0.72,1.387,1.174,1.44,2.4c8.273-0.688,16.481-1.439,17.76-9.12   C175.113,225.099,173.733,225.595,170.727,225.721z M100.167,235.321c-0.25-0.711-0.71-1.21-0.96-1.92   c-5.831,2.187-11.499-0.341-15.36-2.881C83.188,235.693,96.575,240.38,100.167,235.321z M145.767,232.921   c-1.697,4.587-10.087,4.697-14.4,3.84c0.836,4.746,7.703,5.131,12,4.32c2.353-0.444,4.451-1.675,6.24-2.4   C151.779,235.681,149.35,231.472,145.767,232.921z M122.247,233.881c-1.444,6.232-11.227,3.391-13.44,3.84   C109.978,245.047,135.939,240.217,122.247,233.881z M119.367,246.361c-4.167,0.865-6.847-1.429-9.12-0.96   c3.576,3.924,14.587,5.001,18.24,0.479C126.327,241.945,121.488,244.105,119.367,246.361z M205.767,39.001   c0.656-0.614,0.656-2.266,0-2.88c-0.64,0-1.28,0-1.92,0C203.408,38.159,204.63,38.537,205.767,39.001z"/>
	<path fill-rule="evenodd" clip-rule="evenodd" d="M82.407,188.761c0.407-1.033,1.182-1.697,2.88-1.439c0,0.64,0,1.279,0,1.92   c2.677-1.139,3.333,0.959,6.72,0c0.582,1.531,0.062,1.425,0.96,2.88c-1.531,0.411-1.484-0.756-2.4-0.96   c-0.347,1.467,0.491,1.749,0.48,2.88c0.302-0.818,1.45-0.79,1.92-1.44c1.033,0.407,1.698,1.183,1.44,2.88   c-0.427,0.373-1.084,0.517-1.92,0.48c1.22,0.7,3.074,0.767,3.36,2.4c1.362-2.193-3.423-7.953-0.96-11.04   c-0.558-0.883-2.548-0.333-1.92-2.4c1.49-0.502,3.224,0.278,4.32-1.44c0.357-1.478-1.318-0.922-0.96-2.399   c3.78-0.074,7.727,0.136,12-0.96c-0.204,1.003,0.329,1.271,0.48,1.92c0.97-1.108-0.332-2.141,0.48-3.84c0.8,0,1.6,0,2.4,0   c0.459,2.26,1.511,3.929,2.4,5.76c0.805-1.465-1.816-3.609-0.96-6.72c0.8,0,1.6,0,2.4,0c0.364,3.156,1.257,5.783,2.4,8.16   c1.6,0,3.2,0,4.8,0c-0.357-1.083-2.692-0.188-3.84-0.48c-1.745-4.181-2.509-7.15-2.88-12c1.092-0.348,2.452-0.428,3.36-0.96   c-1.354-0.406-1.873-1.647-2.88-2.4c-1.774,1,1.458,2.024,0,2.88c-1.879,0.024-5.115,0.722-5.76-1.92   c0.847-0.854,3.065-0.629,3.36,0.48c0.386-0.254,0.779-0.501,1.44-0.48c-0.429-0.851-1.948-0.611-1.44-2.399c0.48,0,0.96,0,1.44,0   c-3.505-9.287,9.215-17.889,15.84-10.08c0.357,1.478-1.317,0.922-0.96,2.399c-3.678-0.066-6.943,2.436-8.16,5.28   c-0.861,0.062-1.013-0.587-1.92-0.479c0.531,2.419,1.225,3.137-0.48,4.8c0.675,0.925,1.269,1.932,1.44,3.36   c4.321,1.547,9.064,0.868,12.48-0.961c0.04,0.761-0.23,1.831,0.479,1.921c-0.12-2.666,0.122-4.901,1.92-7.681c1.12,0,2.24,0,3.36,0   c0.508,1.412,0.66,3.18,1.44,4.32c1.051-2.663-3.77-6.998-0.48-9.12c-2.04-2.921-1.367-6.539,0.96-8.64   c-0.605-0.705-5.671,0.271-5.28-2.88c0.559,0.078,0.854-0.106,0.961-0.48c1.637,0.885,4.843,2.696,6.239,0.96   c-0.558-0.882-2.547-0.332-1.92-2.4c1.89-0.836,3.202-0.068,2.88-2.399c2.264-0.2,2.838-0.312,4.801-1.44   c0.524,1.075,0.795,2.405,1.439,3.36c2.186-0.832-0.978-2.251-0.479-4.32c0.294-0.665,1.848-0.072,1.92-0.96   c1.77,1.11,2.356,3.403,4.319,4.32c-1.301-1.579-1.354-4.406-3.359-5.28c0.372-1.067,0.277-2.603,1.439-2.88   c1.514,0.213,2.846,2.194,1.92,3.36c3.905,1.215,3.062,7.179,6.721,8.64c-0.781-5.245-6.814-10.001-5.761-13.92   c-0.669-0.771-2.368-0.511-2.88-1.44c0.254-0.386,0.501-0.778,0.48-1.439c1.814-0.695,0.921,1.318,2.399,0.96   c-1.901-1.534-0.477-3.842-3.359-3.84c0.273-1.326,0.508-2.691,2.399-2.4c-0.583-1.667-1.162-1.822,0-3.359   c1.004-0.204,1.271,0.328,1.92,0.479c1.107,0.147,0.533-1.387,1.44-1.44c0.331-1.291-0.992-0.928-1.44-1.44   c0.914-1.478,1.309-2.045,3.36-1.44c-0.033-1.039,0.835-3.488,1.92-4.8c1.559,0.278,2.233-0.327,3.36-0.48   c0.317,2.083,2.879,1.92,3.84,3.36c0.402-3.123-3.441-1.999-3.84-4.32c2.541,0.621,2.708-1.132,3.359-2.4   c1.214,0.638,3.232,2.178,2.4,3.36c2.25-0.49,2.729,0.79,3.84,1.44c0.237-1.507-1.654-1.268-0.479-2.4   c1.274,0.005,2.741-0.181,3.359,0.48c-0.148-3.496-2.54-0.228-4.8-0.48c-0.427-1.013-1.461-1.418-1.439-2.88   c2.244-0.589,3.123,0.31,4.8-0.48c-0.558-1.697-4.365-2.655-2.88-4.8c-0.406-1.035-2.105-0.775-2.881-1.44   c0.423-1.526,1.929-1.626,3.36-0.96c0.271-2.992-3.026-2.414-3.36-4.8c0.567-0.553,1.697-0.543,2.881-0.48   c0.065,0.894,0.315,1.604,0.96,1.92c0.795-0.485,0.521-2.039,0.96-2.88c-0.01-0.85-2.265,0.765-2.88-0.48   c-1.092-2.22,3.612-2.988,2.88-0.48c1.325,0.206,0.45-1.79,1.439-1.92c-0.123-0.997-2.108-0.131-2.399-0.96   c-0.459-2.185,2.018-3.022,3.359-1.92c0.482-1.602-0.666-1.574-1.92-1.44c0-0.8,0-1.6,0-2.4c6.058,1.144,10.796-3.726,15.84-1.44   c0.787-0.973,1.957-1.563,3.841-1.44c-0.479-0.642-1.298-0.943-1.44-1.92c-0.415,2.465-4.818,0.941-6.72,1.92   c-1.872-2.417,3.609-5.011,5.279-2.4c0.346-0.447,0.015-1.929,2.4-1.44c-1.236-2.256-4.546,0.165-6.72,0   c0.43-3.172-3.217-5.663-0.96-7.68c-0.054-1.227-1.607-0.953-2.88-0.96c-0.412-1.532,0.755-1.485,0.96-2.4   c4.6,1.167,6.326,1.073,11.04,0c-2.468-1.853-6.35-2.291-7.2-5.76c1.248-1.292,1.447,0.587,2.88,0.48   c-0.005-2.555-3.799-1.321-5.28-2.4c4.268-2.845,17.042,3.36,12-8.64c1.969-0.592,3.347-1.773,5.76-1.92   c-1.19-1.47-1.954-0.384-3.84-0.96c-0.8,0.48-0.34,2.22-1.439,2.4c-3.751-1.85-3.477-7.723-9.12-7.68   c1.04-3.712,6.441-0.407,9.12,0c0.151,1.912-2.221,1.3-2.4,2.88c1.438,0.202,4.694-0.792,7.2-1.92   c-0.901-1.019-3.83-0.01-4.32-1.44c-0.225-1.505,1.207-1.354,1.92-1.92c-0.109-1.65-1.428-2.091-2.88-2.4   c-1.468,0.889,2.115,0.719,1.44,2.4c-1.28,0-2.561,0-3.84,0c1.322-2.195,0.112-6.629-0.96-10.08   c2.902-0.138,4.269-1.811,7.199-1.92c-0.196,1.157,0.877,1.043,0.48,2.4c-1.59-0.31-2.09-0.969-1.44,0.96   c-1.229,0.371-2.721,0.479-3.359,1.44c0.054,0.92,1.606-0.564,2.88,0c1.959,2.503,6.757,7.72,10.08,4.32   c-1.262-4.979-4.694-7.786-9.12-9.6c-4.608,2.028-11.938,3.182-13.44-2.4c2.215-1.786,6.314-1.686,9.601-2.4   c0.948,1.115,0.948,1.285,0,2.4c8.117-1.766,12.44,8.277,16.319,13.92c-1.468,0.348-1.411-0.828-2.88-0.48   c1.001,1.719,4.127,1.313,4.8,3.36c-1.173,1.18-2.081-0.355-3.84,0c0.862,1.857,3.99,1.45,6.24,1.92   c0.074,2.125-1.357-0.227-1.92,0.96c4.425,2.455,7.35,6.41,9.6,11.04c0.749-2.36-2.078-5.273-2.88-7.68   c3.653,3.067,4.897,8.542,7.681,12.48c-1.875-0.045-1.9-1.94-2.881-2.88c-0.78,0.658,1.238,1.977-0.479,2.88   c-1.4-1-4.156-2.662-2.88-4.8c-1.658,0.377-2.111-0.449-2.4-1.44c-0.098,1.33-0.318,2.502-2.399,2.88   c2.268-0.704,4.512,0.338,5.76,2.88c-0.387,1.692-2.468,1.705-3.36,0.48c0.576,0.63,0.188,0.755,0,1.44   c1.792,1.089,4.691-0.927,5.76,1.44c1.309-0.441-0.67-1.5,0-2.88c4.617-0.12,3.513,3.939,4.801,6.24   c-1.31,0.35-0.967-0.954-1.92-0.96c-0.146,2.545,3.352,1.448,3.359,3.84c-0.963-0.164-1.502,0.098-1.439,0.96   c-0.103,1.542,1.711,1.168,2.399,1.92c0.487,4.071-0.02,8.25,0.96,12.48c1.646,7.104,8.912,14.619,1.44,20.64   c-3.095-0.618-3.729-3.919-6.72-3.36c2.93-3.437-2.857-6.326-1.921-9.12c-0.053-0.907-1.587-0.333-1.439-1.44   c-0.592,0.268,0.357,1.857-1.92,1.44c3.29,0.87,3.881,4.438,5.28,7.2c-1.924,0.918-4.998,0.676-4.32-2.4   c1.356,0.397,1.243-0.676,2.399-0.48c-1.768-0.849-3.361-0.264-5.76,0c1.702,0.378,2.61,1.55,3.36,2.88   c-0.054,1.227-1.607,0.953-2.88,0.96c0.437,1.824,1.929,0.352,3.359,0.48c0.217,1.383,1.699,1.501,1.44,3.36   c-2.873-0.883-2.744,0.595-5.76,0.48c1.088,1.151,4.789-0.309,4.8,1.92c1.008-0.134-0.695-1.282,0.479-1.92   c2.142,1.78,1.729,0.986,3.841,1.92c-0.264,2.803-2.343,0.831-3.841,2.4c0.641,1.48,2.135-0.895,2.881,0.48   c0.625,8.627,1.208,20.944-9.601,19.2c-0.593-1.808-2.085-2.715-3.36-3.84c-0.975,3.017-2.566-1.839-5.279-1.44   c-0.46,1.74,2.071,0.488,2.399,1.44c0.337,1.776-1.683,1.197-2.399,1.92c-0.021,1.461,1.014,1.866,1.439,2.88   c1.171-0.481-1.968-1.938-0.479-2.88c2.521-0.28,3.052,1.428,3.359,3.359c0.641,0,1.28,0,1.921,0   c-1.041-0.686-2.707-2.332-1.44-3.84c1.732-0.265,3.648,1.755,2.4,2.88c7.646,5.419,3.701,25.838-7.681,20.641   c-0.135,0.775,0.454,0.826,0.48,1.439c0.115,1.237,0.825-0.659,1.92,0c0,0.641,0,1.28,0,1.92c-2.256,0.496-1.848-1.672-4.32-0.96   c-0.976-1.264-1.649-2.83-2.399-4.319c-0.691,0.108-0.168,1.433-0.96,1.439c2.463,1.714,4.196,6.46,2.88,9.12   c-2.131-2.537-1.36-4.857-3.36-7.2c-1.57,3.022,2.698,5.527,3.36,9.601c1.325,8.157-4.926,15.262-12.96,14.399   c1.428,2.183-1.026,2.289,0.479,5.28c-1.964,0.393-3.717-2.437-1.92-2.88c-0.75-0.69-1.671-1.209-1.92-2.4   c-0.989,0.131-0.114,2.126-1.44,1.92c0.851,0.59,1.945,0.936,2.4,1.92c-0.17,0.631-0.845,0.756-0.96,1.44   c-3.402-0.368-0.86-4.027-3.84-4.32c1.003,2.837,1.044,6.636,1.92,9.601c-3.431,7.139-12.065,11.377-20.16,11.04   c-0.017-2.097,1.325-2.835,1.44-4.8c-1.83,0.09-1.254,2.586-2.4,3.359c-1.604-0.316-2.348-1.492-3.84-1.92   c-0.845,0.722,1.697,2.115,2.88,2.4c0,1.6,0,3.199,0,4.8c-2.061,1.485-2.232,0.016-4.8,0c-0.359,1.479,1.654,0.585,0.96,2.399   c-2.494-1.717-3.477,0.898-6.24,1.44c-2.025-0.215-2.42-2.06-5.28-1.44c0.471,1.131,2.771,0.431,3.36,1.44   c-0.64,2.893-2.419-0.815-2.88,1.92c-1.5,0.22-1.534-1.025-1.44-2.399c-1.645,1.49-4.371-1.235-2.88-2.881   c-0.447,0.513-1.771,0.149-1.439,1.44c-0.927-0.674-2.938-0.262-2.4-2.4c-2.18,0.307-0.513,3.389-2.88,4.32   c-1.575,0.075-2.304-1.96-1.44-2.88c-0.48-0.604-1.938,1.277-2.88-0.48c1.437,1.489,1.12,5.146-1.439,5.28   c2.248,1.592,3.728,3.952,6.239,5.28c-1.444,0.174-3.987,1.877-5.76,0c-0.011-1.131,0.827-1.413,0.48-2.88   c-0.649,0.471-0.96,1.28-1.44,1.92c-1.38-0.948-2.08-0.75-1.439-2.88c-1.829,2.557-3.504-1.431-4.801-2.4   c0.622,2.751,4.24,5.152,6.24,7.2c-2.644,0.829-3.457-0.109-5.28-0.96c-0.286,0.854,1.407,1.993,0,2.399   c-2.404-0.441,0.534-2.672,0-4.319c-0.812,0.298-2.584,0.094-3.84-1.44c-1.053,0.776,1.764,1.725,2.4,2.4   c0.029,1.789-0.484,3.036-0.96,4.319c-1.551-0.737-3.592-1.725-2.4-3.84c-1.467,0.933-1.932,2.868-1.92,5.28   c0.997-0.123,0.131-2.108,0.96-2.4c1.531-0.411,1.484,0.756,2.4,0.96c0.011,2.107-1.906,2.572-0.96,4.32   c-2.14-0.327-0.627-1.819-2.88-2.399c-0.353,0.413,0.127,2.499-0.96,3.359c-1.279-0.48-1.583-1.938-2.4-2.88   c0.869-1.851,0.992-4.447,1.92-6.24c1.31-0.35,0.966,0.954,1.92,0.96c0.184-1.783-1.945-1.255-1.439-3.359   c-1.623,1.027-3.042-1.561-4.32-2.4c-0.165,1.389-0.916,3.481-1.92,5.28c0.169,0.63,0.845,0.755,0.96,1.439   c0.899-1.341,0.909-3.57,1.92-4.8c0.978,0.143,1.278,0.962,1.92,1.44c-0.966,4.021-3.56,6.016-0.48,9.6   c-0.35,6.687-13.182,7.282-17.759,3.84c-2.769,0.756-7.685,0.857-10.56,0.96c0.059-1.777,0.698-1.207,1.92-0.96   c-0.313-1.447-1.885-1.635-2.4-2.88c0.064-1.855,1.947-1.894,2.4-3.359c-0.878-1.476,0.432-2.159-0.48-3.36   c-1.041-0.081-0.218,1.702-0.48,2.4c-0.841,0.158-3.693,2.202-3.84,0c-0.958,0.481-0.757,2.122-2.4,1.92   c-0.929-0.512-0.669-2.211-1.44-2.881c-1.458,0.592,0.521,1.651,0,2.881c-3.299,0.099-4.602-1.799-5.76-3.841   c-3.331,2.095,3.113,7.078-2.4,7.681c-0.362-2.992,0.42-5.714,0-10.561c-2.005,0.322-0.036,2.793-0.96,3.36   c-1.183-0.8-3.606-2.164-2.4-3.84c-2.39,0.959-3.843-3.224-1.92,0c0.424,0.712,0.251,2.134,0.48,2.399   c1.616,1.877,5.631,1.927,3.36,4.801c-1.777-0.303-2.676-1.484-2.4-3.841c-3.087,2.417-3.318-3.319-6.24-3.359   c0.617-0.823,0.992-1.888,2.4-1.92c0.042-2.441,0.21-5.011-0.96-6.24c-0.948,0.332-1.28,1.28-1.44,2.4   c-2.125-0.229-2.387,0.66-3.84,0c0-0.801,0-1.601,0-2.4c-1.174,0.426-0.52,2.68-2.4,2.4c-0.661-0.619-0.475-2.085-0.48-3.36   c-1.231,0.049-0.771,1.788-1.44,2.4c-1.745-0.495-2.799-1.682-4.8-1.921c-0.013,2.253,2.383,2.097,2.4,4.32c-0.8,0-1.6,0-2.4,0   c5.982,0.714,14.149,5.463,18.72,10.561c-1.834,0.689-7.754-2.353-9.12-5.28c-0.373,1.228-1.379,1.82-3.36,1.439   c-0.899-0.914-0.053-1.205,0-2.399c-1.531,0.677-4.492,0.919-3.84-1.92c-0.979,0.301-0.135,2.425-1.92,1.92   c-0.914-4.526-4.328-6.553-7.2-9.12c0.442-0.839,1.5-1.06,2.88-0.96c1.039,1.795,0.332,2.481,1.44,3.84   c0.861,0.061,1.013-0.588,1.92-0.479c-1.114-2.086-2.048-4.353-2.88-6.721c2.782-3.409,8.075-2.364,13.44-2.399   c0.285,1.322,1.245,3.414,2.88,1.92c-0.589-1.492-2.232-1.929-1.92-4.32c1.578,1.586,1.148-1.288,2.88-0.96   c0.333,2.064,1.749,3.966,0.96,5.76c1.463-1.248-0.128-5.915,1.92-7.68c-0.086-1.354-2.281-0.599-1.92-2.4   c1.942-1.69,6.942,1.572,7.68-2.88c0.8,0,1.6,0,2.4,0c-0.204,1.003,0.329,1.271,0.48,1.92c2.599-0.552,3.764,0.357,5.76-0.479   C87.316,189.946,84.282,189.911,82.407,188.761z M192.807,29.881c0.065,0.894,0.315,1.604,0.96,1.92   c0.903-1.816,4.915-0.525,5.76-2.4C197.475,29.607,194.659,31.008,192.807,29.881z M208.166,51.961   c1.371,1.51,4.469,1.292,3.841,4.8c-1.634,0.628-3.35-1.069-3.841,0c2.244,0.476,2.887,2.554,3.36,4.8   c9.496,3.287,4.128-10.865-0.96-12c-0.002,0.857,1.293,2.792,0,3.36C209.846,52.787,208.545,50.857,208.166,51.961z    M203.366,59.161c-0.22,1.5,1.025,1.534,2.4,1.44C205.848,59.116,204.078,58.442,203.366,59.161z M205.767,65.401   c0.058-1.525-2.334-3.069-3.36-1.92C203.611,64.037,204.014,65.394,205.767,65.401z M199.526,67.801   c-0.302-1.618-1.63-2.209-3.36-2.4C195.938,67.549,197.604,67.803,199.526,67.801z M205.286,68.761   c-0.244-1.379-2.057-3.67-3.359-2.4C203.409,66.798,203.22,68.907,205.286,68.761z M231.687,79.801   c-1.667-2.701-4.265-7.525-1.44-10.56C225.737,70.709,228.727,78.701,231.687,79.801z M199.047,79.801   c2.16,1.053,0.767,1.739,0.479,3.84c11.17,10.035,13.132-13.292,3.36-13.44c-0.235,1.515,0.865,1.695,0.479,3.36   c-1.226,0.371-2.207-1.878-2.88-0.48c1.879,0.255,4.944,3.167,2.4,4.8c-1.656-0.993-2.537-1.854-3.84,0   c2.288-0.369,3.162,0.678,3.84,1.92C201.889,81.453,197.815,78.786,199.047,79.801z M215.366,76.921   c-1.608-2.901,0.383-6.328,2.4-7.2C213.891,68.703,212.714,77.39,215.366,76.921z M191.847,75.481   c1.731-1.309,6.522,0.442,7.68-1.44C197.371,74.038,191.276,73.217,191.847,75.481z M193.286,79.321   c1.095,0.134,1.805-0.115,1.92-0.96c-1.765,0.297-2.39-3.013-3.359-1.92C192.233,77.554,194.616,77.935,193.286,79.321z    M234.087,80.761c-0.752,2.338-3.723,0.054-4.32,1.92c1.674-0.311,3.311,3.711,2.88,2.4c0.074-1.194-0.754-1.486-0.96-2.4   c0.631-0.49,1.77-0.471,2.4-0.96C235.917,85.494,236.277,82.867,234.087,80.761z M229.286,88.441   c2.921,1.348,0.712,4.946,3.36,6.24c-0.347-1.467,0.491-1.75,0.48-2.88c-2.236-0.336-1.923-5.742-3.841-4.8   C230.033,87.126,229.619,88.054,229.286,88.441z M232.646,87.961c1.113-0.153,1.843,0.077,2.4,0.48   c-0.021-0.661,0.226-1.054,0.479-1.44c-0.836,0.036-1.493-0.107-1.92-0.48C233.75,87.465,232.958,87.473,232.646,87.961z    M191.366,92.281c0.35-1.31-0.953-0.966-0.96-1.92c3.061-1.807,5.08,1.092,6.721-1.92c-2.757-0.166-5.983,1.964-8.641,0   C188.748,90.419,190.065,91.342,191.366,92.281z M186.087,91.801c0.329-1.609-0.806-1.754-1.921-1.92   C184.225,91.103,184.865,91.742,186.087,91.801z M221.127,104.281c-2.342-3.445-0.232-11.042,1.439-13.92   C216.896,90.879,218.206,101.707,221.127,104.281z M236.967,90.841c-6.056,1.141-3.273,11.87-0.48,14.88   c-0.822-3.018-2.268-5.412-1.92-9.6c1.359-0.5,2-0.5,3.36,0C238.94,94.184,238.132,91.964,236.967,90.841z M210.087,108.121   c4.719-1.11,5.429-9.376,1.92-13.44C213.346,99.744,212.59,104.609,210.087,108.121z M190.406,100.921   c-0.809-0.196-2.157-2.262-2.88-0.96c0.84,1.08,2.734,1.105,2.88,2.88c-0.481,0.638-0.454,1.786-1.439,1.92   c-0.291-0.276-2.277-1.123-2.4,0c1.265-0.145,1.575,0.665,1.44,1.92c-1.999,2.025-4.069-1.788-5.28-0.48   c0.822,0.617,1.888,0.992,1.92,2.4c-1.047-0.087-1.527,0.393-1.44,1.44c8.971,7.118,17.325-10.12,7.681-14.4   C189.562,98.257,191.086,98.832,190.406,100.921z M178.406,107.641c-0.559-0.081-0.521-0.759-0.479-1.44   c-1.202-0.06-1.503-0.917-1.92,0.48C176.962,106.581,178.057,108.716,178.406,107.641z M221.127,126.841   c2.934-2.551,3.855-8.979,5.279-11.52C221.357,113.768,219.033,122.696,221.127,126.841z M203.847,128.761   c-1.291-5.137,2.5-7.731,1.439-11.04C202.43,119.04,198.055,127.468,203.847,128.761z M196.166,122.041   c2.405,7.717-2.699,11.562-6.72,14.399C196.676,136.67,200.324,128.652,196.166,122.041z M172.646,130.201   c-0.907,0.107-1.059-0.541-1.92-0.48c-0.235,1.515,0.865,1.695,0.479,3.36c-1.122,0.148-1.982,0.939-2.88,0   c-0.712,1.407,0.543,1.782-0.96,2.399c-1.793,0.514-1.368-1.191-2.88-0.96c0.287,1.248-0.192,1.728-1.439,1.44   c-0.405,2.165,1.123,2.396,1.439,3.84c10.613,3.762,15.927-8.541,11.04-15.84c-0.64,0-1.28,0-1.92,0   C174.115,127.548,171.337,126.86,172.646,130.201z M156.807,130.681c1.739,0.46,0.488-2.071,1.439-2.399   c-0.613-0.026-0.664-0.615-1.439-0.48C156.566,129.311,157.853,129.678,156.807,130.681z M164.007,143.161   c-1.837-1.523-2.262-4.459-4.32-5.76C160.87,139.266,161.938,143.776,164.007,143.161z M214.406,152.761   c-1.978-6.59,3.306-12.675,2.88-15.359C212.316,138.525,207.912,150.249,214.406,152.761z M190.406,153.721   c-0.29-6.53,4.117-8.363,6.721-12C192.389,140.702,185.938,150.118,190.406,153.721z M144.807,149.881   c0.435-0.846,1.767-0.793,1.92-1.92C145.084,147.323,143.377,149.03,144.807,149.881z M174.087,160.921   c6.332,1.016,11.229-8.78,6.72-11.04C183.472,155.335,177.964,159.025,174.087,160.921z M152.486,162.841   c-1.082,1.414-3.206-2.48-1.92,0.48c-0.134,0.985-1.282,0.958-1.92,1.439c-0.417-0.702-0.719-1.521-1.92-1.439   c1.315,2.081-1.266,1.105-0.96,3.359c9.517,5.324,19.065-7.602,11.52-13.439c0.227,1.951-0.188,4.852-1.92,3.359   c0.808,2.142,0.054,4.662-2.399,3.36C152.938,161.583,153.832,162.009,152.486,162.841z M204.326,155.161   c1.485,0.555,2.645-0.473,3.84,0.96c0.335-1.614-0.986-1.573-1.439-2.4C207.467,155.741,204.243,153.797,204.326,155.161z    M196.166,178.201c0.491-4.789,3.291-7.27,4.801-11.04c-1.202,0.06-1.503,0.916-1.92-0.48c1.426-1.293,3.615-1.824,4.8-3.359   C197.121,164.258,191.549,173.006,196.166,178.201z M172.646,171.961c2.36-3.07,6.142-6.546,10.08-5.28   C180.341,162.402,170.333,168.69,172.646,171.961z M137.606,171.48c-0.372-1.067-0.277-2.603-1.44-2.88   C136.176,170.031,136.122,171.525,137.606,171.48z M148.646,179.641c1.338-4.245,6.161-5.406,9.6-6.239   C154.056,172.701,147.322,174.954,148.646,179.641z M120.327,177.721c-1.436-0.324-0.311-3.209-1.92-3.359   C118.525,175.71,119.151,179.02,120.327,177.721z M192.326,180.601c-0.818-0.196,0.102-0.619,0-1.439   c-0.798,0.057-4.347-0.263-2.88,0.479C191.254,178.839,191.633,181.874,192.326,180.601z M136.166,188.761   c-0.694-0.745-0.64-2.239-1.439-2.88c-0.812,2.384,2.274,3.879,0,4.8c-1.127-0.152-1.074-1.485-1.92-1.92   c0.209,1.7,0.738,2.731-0.48,3.84c-1.951,0.191-1.477-2.043-2.88-2.399c-0.347,1.467,0.491,1.749,0.48,2.88   c-0.8,0.64-3.055-0.175-2.88,1.439c7.509,4.436,17.761-5.194,11.04-10.56C137.915,186.029,137.8,188.154,136.166,188.761z    M175.047,194.041c3.976-2.904,4.99-8.77,11.52-9.12C182.238,182.069,173.641,188.146,175.047,194.041z M113.126,186.361   c-3.79-0.911-3.29,2.47-5.76,2.88c-0.562-0.719-0.597-1.964-1.44-2.4c-0.129,1.431,1.343,2.923-0.48,3.36   c-1.542,0.422-0.658-1.582-1.92-1.44c0.436,2.308-1.939,4.349-2.88,2.4c0.051,2.131-1.343,2.816-0.96,5.279   C105.695,203.244,121.953,195.166,113.126,186.361z M171.687,193.561c-0.422,1.97-1.797,1.557-2.88,1.92   c1.69,0.069,1.719,1.802,2.399,2.881c0.153-1.897,1.486,0.355,1.921-0.96c-2.131-0.432-1.557-3.707,0-4.32   c-1.398-0.362-2.381-1.14-3.36-1.92C169.405,192.962,171.6,192.207,171.687,193.561z M165.927,195.001   c1.835,0.075,1.56-1.96,2.399-2.88C166.503,192.058,166.062,193.376,165.927,195.001z M151.526,201.721   c2.687-3.394,6.078-6.082,10.561-7.68C156.536,193.777,152.569,196.249,151.526,201.721z M80.486,198.361   c0.054,2.002-0.939,2.614-2.4,1.92c0.347,1.467-0.491,1.749-0.48,2.88c2.013,5.954,15.204,6.893,15.84,0   c0.368-3.985-2.569-5.201-6.72-6.24c-0.238,2.174-2.47,1.298-2.88,0C83.613,198.833,81.758,200.09,80.486,198.361z M96.327,200.761   c0.115-1.484,3.95,0.751,3.36-1.439C98.734,199.744,95.262,199.09,96.327,200.761z M128.486,205.081   c1.617-3.161,6.857-4.794,11.521-3.36C137.449,197.104,126.324,202.112,128.486,205.081z M73.287,205.081   c1.201,0.06,1.502,0.916,1.92-0.48c-0.374-0.105-0.558-0.401-0.48-0.96c-0.32,0-0.64,0-0.96,0   C73.74,204.255,73.151,204.306,73.287,205.081z M116.966,211.321c-0.512-0.448-0.149-1.771-1.44-1.44   c-0.396,1.356,0.677,1.243,0.48,2.4c-0.567,0.553-1.697,0.543-2.88,0.479c-0.082-0.718,0.171-1.771-0.48-1.92   c-1.087,1.228,0.766,2.427,1.44,3.36c-1.901,1.55-3.467-0.442-4.32-1.44c-0.263,0.697,0.561,2.481-0.48,2.4   c-0.565,0.075-1.363-0.083-1.44,0.479c2.505,0.375,4.653,1.106,5.28,3.36c-1.998,0.562-4.653,0.467-5.28,2.4   c3.821-2.078,10.073-0.662,12.96,0c-2.557-2.084-7.177-2.104-8.64-5.28c1.345-0.552,2.496-0.552,3.84,0   c0.196-2.662,5.511-4.607,1.92-6.72C117.261,209.695,117.854,211.249,116.966,211.321z M102.086,227.161   c-2.509-1.587,1.85-6.209,0.48-8.16C101.989,220.037,98.462,227.736,102.086,227.161z M104.966,227.641   c0.075-0.925,1.892-4.004,0-3.84C105.311,225.674,101.635,226.975,104.966,227.641z"/>
	<path fill-rule="evenodd" clip-rule="evenodd" fill="#FFFFFF" d="M199.526,29.401c-0.845,1.875-4.856,0.584-5.76,2.4   c-0.645-0.315-0.895-1.026-0.96-1.92C194.659,31.008,197.475,29.607,199.526,29.401z"/>
	<path fill-rule="evenodd" clip-rule="evenodd" fill="#FFFFFF" d="M210.566,52.921c1.293-0.567-0.002-2.502,0-3.36   c5.088,1.135,10.456,15.287,0.96,12c-0.474-2.246-1.116-4.324-3.36-4.8c0.491-1.069,2.207,0.628,3.841,0   c0.628-3.508-2.47-3.29-3.841-4.8C208.545,50.857,209.846,52.787,210.566,52.921z"/>
	<path fill-rule="evenodd" clip-rule="evenodd" fill="#FFFFFF" d="M202.887,79.801c-0.678-1.242-1.552-2.289-3.84-1.92   c1.303-1.854,2.184-0.993,3.84,0c2.544-1.632-0.521-4.544-2.4-4.8c0.673-1.398,1.654,0.851,2.88,0.48   c0.386-1.665-0.715-1.845-0.479-3.36c9.771,0.148,7.81,23.475-3.36,13.44c0.287-2.101,1.681-2.788-0.479-3.84   C197.815,78.786,201.889,81.453,202.887,79.801z"/>
	<path fill-rule="evenodd" clip-rule="evenodd" fill="#FFFFFF" d="M191.847,76.441c0.97-1.093,1.595,2.217,3.359,1.92   c-0.115,0.845-0.825,1.094-1.92,0.96C194.616,77.935,192.233,77.554,191.847,76.441z"/>
	<path fill-rule="evenodd" clip-rule="evenodd" fill="#FFFFFF" d="M234.087,81.721c-0.631,0.49-1.77,0.471-2.4,0.96   c0.206,0.914,1.034,1.206,0.96,2.4c0.431,1.312-1.206-2.711-2.88-2.4c0.598-1.866,3.568,0.418,4.32-1.92   C236.277,82.867,235.917,85.494,234.087,81.721z"/>
	<path fill-rule="evenodd" clip-rule="evenodd" fill="#FFFFFF" d="M229.286,87.001c1.918-0.942,1.604,4.464,3.841,4.8   c0.011,1.131-0.827,1.414-0.48,2.88c-2.648-1.294-0.439-4.893-3.36-6.24C229.619,88.054,230.033,87.126,229.286,87.001z"/>
	<path fill-rule="evenodd" clip-rule="evenodd" fill="#FFFFFF" d="M176.007,106.681c0.417-1.396,0.718-0.54,1.92-0.48   c-0.042,0.681-0.079,1.359,0.479,1.44C178.057,108.716,176.962,106.581,176.007,106.681z"/>
	<path fill-rule="evenodd" clip-rule="evenodd" fill="#FFFFFF" d="M159.687,137.401c2.059,1.301,2.483,4.236,4.32,5.76   C161.938,143.776,160.87,139.266,159.687,137.401z"/>
	<path fill-rule="evenodd" clip-rule="evenodd" fill="#FFFFFF" d="M152.967,159.961c2.453,1.302,3.207-1.219,2.399-3.36   c1.732,1.492,2.146-1.408,1.92-3.359c7.546,5.838-2.003,18.764-11.52,13.439c-0.306-2.254,2.275-1.278,0.96-3.359   c1.201-0.082,1.503,0.737,1.92,1.439c0.638-0.481,1.786-0.454,1.92-1.439c-1.286-2.961,0.838,0.934,1.92-0.48   C153.832,162.009,152.938,161.583,152.967,159.961z"/>
	<path fill-rule="evenodd" clip-rule="evenodd" fill="#FFFFFF" d="M189.446,179.641c-1.467-0.742,2.082-0.423,2.88-0.479   c0.102,0.82-0.818,1.243,0,1.439C191.633,181.874,191.254,178.839,189.446,179.641z"/>
	<path fill-rule="evenodd" clip-rule="evenodd" fill="#FFFFFF" d="M169.767,191.161c0.979,0.78,1.962,1.558,3.36,1.92   c-1.557,0.613-2.131,3.889,0,4.32c-0.435,1.315-1.768-0.938-1.921,0.96c-0.681-1.079-0.709-2.812-2.399-2.881   c1.083-0.363,2.458,0.05,2.88-1.92C171.6,192.207,169.405,192.962,169.767,191.161z"/>
	<path fill-rule="evenodd" clip-rule="evenodd" d="M176.486,205.081c-1.136,0.623-3.172,0.348-2.88,2.399   c-1.265,0.146-1.575-0.664-1.44-1.92C174.595,206.346,175.366,201.277,176.486,205.081z"/>
</g>
</svg>